<?xml version="1.0" encoding="UTF-8" standalone="no"?>
<!-- Created with Inkscape (http://www.inkscape.org/) -->
<svg
   xmlns:svg="http://www.w3.org/2000/svg"
   xmlns="http://www.w3.org/2000/svg"
   version="1.0"
   width="2000"
   height="2000"
   id="svg1953">
  <defs
     id="defs1955" />
  <g
     id="layer1">
    <path
       d="M 969.24513,1055.6632 C 968.35473,1053.3213 967.79333,1034.9101 966.75903,974.13219 C 965.83783,920.00459 964.66603,865.56709 963.79713,836.54535 C 963.52263,827.37506 963.48183,821.17442 963.69463,820.97042 C 963.88903,820.78401 965.18243,820.15823 966.56883,819.57981 C 971.12423,817.67923 977.87463,817.84787 982.70213,819.98284 L 984.75553,820.89093 C 983.67041,863.16654 982.76069,905.44875 982.08083,947.73299 L 982.08083,954.36849 C 988.62512,948.8244 996.33721,945.36664 1004.5069,942.96839 C 1021.7634,938.28824 1038.2894,945.11209 1046.5525,960.75309 C 1051.5314,970.67229 1052.4949,983.60069 1049.0154,993.80246 C 1037.7366,1021.276 1006.969,1031.4379 988.58923,1052.9604 C 983.53984,1060.2154 975.83836,1063.3174 969.24513,1055.6632 z M 989.40603,1034.3514 C 1002.9213,1022.8041 1015.4529,1009.8797 1020.5163,992.46596 C 1022.4021,980.24227 1021.9185,965.99583 1010.4275,958.71649 C 998.84716,954.31636 990.00515,964.07004 986.37833,974.11209 C 985.22513,978.27339 984.66143,992.96636 984.90463,1012.5243 C 985.10833,1028.9099 985.64273,1036.5679 986.58233,1036.5679 C 986.72533,1036.5679 987.99603,1035.5704 989.40603,1034.3514 z "
       style="fill:black"
       id="path2037" />
  </g>
</svg>
