<?xml version="1.0" encoding="UTF-8" standalone="no"?>
<!-- Created with Inkscape (http://www.inkscape.org/) -->
<svg
   xmlns:svg="http://www.w3.org/2000/svg"
   xmlns="http://www.w3.org/2000/svg"
   version="1.0"
   width="2000"
   height="2000"
   id="svg2041"
   score:ascent="176"
   score:baseline="944"
   score:leftborder="930"
   score:rightborder="1089">
  <defs
     id="defs2043" />
  <g
     id="layer1">
    <path
       d="M 895.51821,1109.8572 C 886.42337,1109.8757 890.9167,1100.4732 906.32437,1098.463 C 915.789,1097.2282 929.02414,1097.4036 932.78423,1086.1299 C 945.97416,1046.5834 957.84242,1006.1748 973.04835,967.68975 C 976.89813,957.94624 971.91131,948.39086 962.41872,956.13755 C 949.57552,966.61862 944.816,982.91846 935.94739,996.13447 C 929.19246,1004.0533 918.88241,995.02264 925.98992,987.2632 C 935.03296,968.56734 944.5063,947.91711 963.18092,937.0712 C 975.83382,929.7226 996.76572,933.04166 1001.3928,947.81286 C 1005.2512,960.13025 1011.5949,947.61901 1018.8346,942.47779 C 1028.3659,935.7092 1040.3609,933.79073 1052.0711,934.25309 C 1070.7652,934.99119 1085.7058,950.82813 1087.9841,968.79526 C 1090.9611,992.27143 1083.9244,1017.3997 1066.408,1033.8537 C 1051.4479,1048.8903 1035.0147,1057.7618 1013.9111,1054.5949 C 1006.5539,1052.8744 996.47616,1045.1231 989.76648,1046.6839 C 985.89729,1047.584 980.00236,1062.2913 977.51047,1070.6 C 975.0695,1078.739 967.36044,1092.5138 978.52962,1096.1042 C 1002.5838,1103.8366 998.59441,1110.4013 991.67403,1109.8712 C 974.4557,1108.5523 962.58524,1107.521 945.24453,1107.68 C 926.42463,1107.8524 910.62046,1110.6444 895.51821,1109.8572 z M 1019.5891,1036.4523 C 1033.6832,1028.8842 1041.9992,1013.4711 1046.3891,999.34725 C 1050.1874,987.12659 1051.6699,971.95105 1047.6657,959.26661 C 1044.1834,948.23536 1029.0945,954.73972 1023.0323,960.99752 C 1010.0213,974.42815 1002.953,992.62576 999.39884,1010.5253 C 997.65726,1019.2959 995.29677,1030.8755 1004.7567,1036.923 C 1009.1627,1039.7396 1015.1526,1038.8346 1019.5891,1036.4523 z"
       id="path2125"
       style="fill:#000000" />
  </g>
</svg>
