<?xml version="1.0" encoding="UTF-8" standalone="no"?>
<!-- Created with Inkscape (http://www.inkscape.org/) -->
<svg
   xmlns:svg="http://www.w3.org/2000/svg"
   xmlns="http://www.w3.org/2000/svg"
   version="1.0"
   width="2000"
   height="2000"
   id="svg2">
  <defs
     id="defs4" />
  <g
     id="layer1">
    <path
       d="M 1051.7437,1055.0054 C 1011.9487,1048.5416 984.21155,1004.9041 947.8289,983.16302 C 926.08144,973.08913 904.43334,983.06552 902.38087,1000.2407 C 901.28243,1009.4326 903.53488,1016.5971 910.44057,1021.706 C 922.10204,1030.3333 926.73681,1011.0765 938.76551,1012.3178 C 950.63589,1013.5428 960.52856,1020.0142 961.19043,1032.4121 C 961.92792,1046.2265 948.32174,1056.0188 935.60196,1055.8804 C 926.42747,1055.7806 918.17845,1053.4198 910.60272,1047.95 C 895.02804,1036.7047 887.26831,1017.3664 887.67452,998.28391 C 888.05603,980.36169 898.12689,963.78936 912.60532,954.09594 C 925.82867,945.24279 943.04319,943.40822 958.07908,946.89671 C 1003.3794,959.23268 1021.8164,1008.5434 1066.313,1021.582 C 1095.545,1030.1476 1112.2628,998.35115 1090.7226,979.06026 C 1081.9546,971.20794 1078.6826,985.3138 1071.1152,987.59638 C 1060.7439,990.72473 1047.5791,987.96581 1042.2085,977.64107 C 1037.6024,968.78583 1040.3744,957.67304 1048.4198,951.58364 C 1057.7495,944.52206 1070.2803,943.96067 1080.6966,946.95131 C 1103.011,953.35797 1115.9107,978.40165 1115.0274,1001.2172 C 1113.5525,1039.3169 1083.0604,1060.0922 1051.7437,1055.0054 z "
       style="fill:black"
       id="path1933" />
  </g>
</svg>
