<?xml version="1.0" encoding="UTF-8" standalone="no"?>
<!-- Created with Inkscape (http://www.inkscape.org/) -->
<svg
   xmlns:svg="http://www.w3.org/2000/svg"
   xmlns="http://www.w3.org/2000/svg"
   version="1.0"
   width="2000"
   height="2000"
   id="svg2">
  <defs
     id="defs4" />
  <g
     id="layer1">
    <path
       d="M 1029.8872,821.40041 C 1013.7166,821.40043 1000.606,834.51115 1000.606,850.68166 C 1000.6059,866.8522 1013.7169,879.99416 1029.8872,879.99416 C 1038.5974,879.8683 1047.1025,878.93146 1055.6998,877.30666 C 1068.3406,874.8072 1084.771,862.57921 1078.6998,876.33791 C 1077.903,878.143 1069.6024,905.58036 1058.481,936.93166 C 1058.0087,938.2631 1057.6684,939.22764 1057.231,940.46291 C 1055.9273,941.98013 1054.5071,943.79404 1052.9498,945.90041 C 1045.51,955.96312 1038.5466,960.3508 1033.1685,959.08791 C 1032.9076,959.02664 1032.6405,958.95708 1032.3872,958.86916 C 1032.3656,958.86143 1032.3464,958.84584 1032.3248,958.83791 C 1032.281,958.82228 1032.2433,958.79184 1032.1998,958.77541 C 1031.7206,958.58984 1031.2428,958.40219 1030.7935,958.11916 C 1030.7743,958.1071 1030.7501,958.10015 1030.731,958.08791 C 1030.4953,957.93942 1030.2706,957.76322 1030.0435,957.58791 C 1030.0261,957.57428 1029.9983,957.57045 1029.981,957.55666 C 1029.7536,957.37838 1029.5432,957.16825 1029.3248,956.96291 C 1027.4493,955.17673 1025.9073,952.38078 1024.7935,948.58791 C 1024.3115,944.9994 1023.1726,941.61206 1021.5122,938.55666 C 1021.4722,938.48334 1021.4276,938.41091 1021.3872,938.33791 C 1021.2082,937.9895 1021.015,937.64406 1020.8248,937.30666 C 1019.6497,935.22321 1018.2539,933.35588 1016.6998,931.71291 C 1016.3313,931.32151 1015.9613,930.95342 1015.5748,930.58791 C 1015.5581,930.57229 1015.5289,930.57224 1015.5122,930.55666 C 1015.1254,930.19262 1014.7596,929.83195 1014.356,929.49416 C 1014.3387,929.47976 1014.3108,929.47726 1014.2935,929.46291 C 1013.8891,929.12621 1013.4633,928.77293 1013.0435,928.46291 C 1013.0245,928.44894 1013,928.44558 1012.981,928.43166 C 1012.5352,928.10589 1012.0988,927.82076 1011.6372,927.52541 C 1011.2032,927.24543 1010.7715,926.9655 1010.3248,926.71291 C 1010.3043,926.7014 1010.2828,926.69312 1010.2622,926.68166 C 1009.8153,926.4305 1009.3768,926.18631 1008.9185,925.96291 C 1008.8977,925.95283 1008.8768,925.94168 1008.856,925.93166 C 1008.8054,925.90718 1008.7505,925.8933 1008.6998,925.86916 C 1007.9207,925.50067 1007.1306,925.18764 1006.3248,924.90041 C 1006.1867,924.85119 1006.0573,924.79096 1005.9185,924.74416 C 1005.4398,924.58132 1004.9358,924.44044 1004.4498,924.30666 C 1004.4278,924.30068 1004.4092,924.28133 1004.3872,924.27541 C 1003.901,924.14297 1003.4108,924.03463 1002.9185,923.93166 C 1002.4135,923.82602 1001.8973,923.72461 1001.3872,923.65041 C 1000.8357,923.57016 1000.2868,923.50586 999.73103,923.46291 C 998.41533,923.28189 997.06493,923.18166 995.69983,923.18166 C 993.19433,923.18166 990.77093,923.52707 988.44983,924.11916 C 988.43013,924.12417 988.40693,924.11411 988.38723,924.11916 C 975.75722,927.36905 966.41853,938.81904 966.41853,952.46291 C 966.41853,960.57235 969.74781,967.90237 975.07478,973.21291 C 975.39084,973.52799 975.6822,973.84994 976.01228,974.15041 C 976.02884,974.16555 976.05819,974.16656 976.07478,974.18166 C 976.40562,974.48145 976.73047,974.8033 977.07478,975.08791 C 977.09198,975.10219 977.12005,975.10491 977.13728,975.11916 C 977.48182,975.40261 977.84235,975.6639 978.19978,975.93166 C 978.21812,975.94547 978.24391,975.94915 978.26228,975.96291 C 979.02213,976.52936 979.792,977.06474 980.60603,977.55666 C 980.98227,977.78402 981.37525,978.03351 981.76228,978.24416 C 981.78269,978.25533 981.80434,978.26428 981.82478,978.27541 C 982.2195,978.48901 982.60693,978.67345 983.01223,978.86916 C 983.03363,978.87951 983.05343,978.89011 983.07483,978.90041 C 983.48133,979.09551 983.90813,979.28632 984.32483,979.46291 C 984.34593,979.47195 984.36603,979.48516 984.38723,979.49416 C 984.80413,979.66965 985.21083,979.8377 985.63723,979.99416 C 985.65933,980.00231 985.67773,980.01731 985.69983,980.02541 C 986.12733,980.18115 986.57573,980.32682 987.01223,980.46291 C 987.03413,980.46977 987.05293,980.48735 987.07483,980.49416 C 987.51163,980.62918 987.94203,980.72309 988.38723,980.83791 C 988.40973,980.84376 988.42733,980.86336 988.44983,980.86916 C 988.89593,980.98309 989.33943,981.08853 989.79353,981.18166 C 989.82523,981.18827 989.85553,981.2064 989.88723,981.21291 C 991.79333,981.60385 993.74093,981.80666 995.76223,981.80666 C 1004.4727,981.68074 1012.9776,980.74396 1021.5748,979.11916 C 1030.555,977.34347 1041.4491,970.6598 1044.8248,971.86916 C 1044.8941,971.89401 1044.9493,971.93128 1045.0122,971.96291 C 1045.0976,972.01022 1045.19,972.05791 1045.2622,972.11916 C 1045.3728,972.21283 1045.4649,972.30358 1045.5435,972.43166 C 1045.715,972.71106 1045.8173,973.09703 1045.8248,973.55666 C 1045.0435,975.9943 1044.4236,978.07307 1043.8872,979.96291 C 1041.6127,986.85248 1034.0248,1011.2805 1024.2935,1038.7129 C 1023.7963,1040.1146 1023.4537,1041.098 1022.981,1042.4317 C 1022.9709,1042.4434 1022.9597,1042.4511 1022.9498,1042.4629 C 1021.6909,1043.9397 1020.316,1045.6958 1018.8248,1047.7129 C 1006.2947,1064.6606 995.06103,1065.5406 990.60603,1050.3692 C 990.12393,1046.7807 988.98523,1043.3933 987.32483,1040.3379 C 987.28493,1040.2646 987.24023,1040.1921 987.19983,1040.1192 C 987.02093,1039.7707 986.82753,1039.4253 986.63723,1039.0879 C 981.98384,1030.8371 973.98223,1025.9228 965.60603,1025.2754 C 964.29034,1025.0944 962.93988,1024.9942 961.57478,1024.9942 C 945.40418,1024.9942 932.29353,1038.1049 932.29353,1054.2754 C 932.29354,1070.4459 945.40428,1083.5879 961.57478,1083.5879 C 970.28518,1083.462 978.79012,1082.5252 987.38723,1080.9004 C 998.03073,1078.7959 1011.3451,1069.793 1011.6685,1075.2129 C 1010.6505,1078.385 1009.8373,1081.0739 1009.231,1083.3379 C 1006.5318,1091.6582 999.35293,1114.6346 990.16853,1140.5254 C 990.02253,1140.937 989.93743,1141.2134 989.79353,1141.6192 C 988.39313,1143.2188 986.84143,1145.1266 985.13723,1147.4316 C 972.60734,1164.3794 961.37353,1165.2593 956.91853,1150.0879 C 956.43644,1146.4994 955.29768,1143.112 953.63728,1140.0566 C 953.59728,1139.9834 953.55268,1139.9108 953.51228,1139.8379 C 953.33328,1139.4894 953.13998,1139.1439 952.94978,1138.8066 C 948.29618,1130.5559 940.29483,1125.6416 931.91853,1124.9942 C 930.60284,1124.8131 929.25238,1124.7129 927.88728,1124.7129 C 911.71668,1124.7129 898.60603,1137.8235 898.60603,1153.9942 C 898.60604,1170.1647 911.71678,1183.3066 927.88728,1183.3066 C 936.59778,1183.1808 945.10268,1182.2438 953.69978,1180.6192 C 964.79038,1178.4262 978.78068,1168.7631 977.94978,1175.7129 C 977.45768,1177.2257 976.97808,1178.6534 976.57478,1179.9629 C 975.48198,1182.797 967.36363,1209.5662 956.48103,1240.2442 C 936.72094,1295.9467 936.47648,1297.2509 946.26228,1297.2442 C 951.51688,1297.2406 956.21458,1298.9824 958.94978,1290.9942 C 962.87918,1279.5183 969.69438,1254.7018 979.57478,1219.6192 C 985.83093,1201.0841 993.61103,1177.9745 1001.5122,1153.7129 C 1001.5112,1153.6981 1001.5858,1153.484 1001.606,1153.4004 C 1001.6475,1153.2939 1001.6674,1153.3024 1001.7622,1153.0254 C 1005.2467,1142.8492 1020.9918,1096.863 1036.481,1049.2129 C 1037.0691,1047.6785 1037.6599,1046.158 1038.2935,1044.4004 C 1051.7044,1007.1976 1078.435,926.66107 1094.6998,870.24416 C 1105.7505,831.91141 1103.0445,822.60343 1087.1372,844.11916 C 1074.607,861.0669 1063.3736,861.94688 1058.9185,846.77541 C 1058.4365,843.18693 1057.2976,839.7996 1055.6372,836.74416 C 1055.5971,836.67089 1055.5526,836.59833 1055.5122,836.52541 C 1055.3331,836.17695 1055.14,835.83155 1054.9498,835.49416 C 1050.2959,827.24332 1042.2948,822.32902 1033.9185,821.68166 C 1032.6029,821.50066 1031.2523,821.40041 1029.8872,821.40041 z "
       style="fill:#000000"
       id="path2167" />
  </g>
</svg>
