<?xml version="1.0" encoding="UTF-8" standalone="no"?>
<!-- Created with Inkscape (http://www.inkscape.org/) -->
<svg
   xmlns:svg="http://www.w3.org/2000/svg"
   xmlns="http://www.w3.org/2000/svg"
   version="1.0"
   width="2000"
   height="2000"
   id="svg2">
  <defs
     id="defs4" />
  <g
     id="layer1">
    <path
       d="M 1064.1998,717.8176 C 1048.0291,717.81761 1034.9185,730.92834 1034.9185,747.09885 C 1034.9184,763.26938 1048.0294,776.41135 1064.1998,776.41135 C 1072.9099,776.28548 1081.4151,775.34865 1090.0122,773.72385 C 1102.6531,771.22438 1119.0836,758.9964 1113.0122,772.7551 C 1112.2155,774.56018 1103.9149,801.99755 1092.7935,833.34885 C 1092.3512,834.59593 1092.0354,835.53532 1091.6372,836.66135 C 1090.2779,838.22676 1088.7781,840.09823 1087.1372,842.3176 C 1079.6974,852.3803 1072.7341,856.76799 1067.356,855.5051 C 1067.1365,855.45355 1066.9138,855.38801 1066.6998,855.3176 C 1066.6781,855.30987 1066.6589,855.29428 1066.6372,855.28635 C 1066.597,855.27271 1066.5523,855.26941 1066.5122,855.2551 C 1063.3098,854.02048 1060.7456,850.58853 1059.106,845.0051 C 1058.624,841.41658 1057.4851,838.02925 1055.8248,834.97385 C 1055.7847,834.90058 1055.7401,834.8281 1055.6998,834.7551 C 1055.5207,834.40668 1055.3275,834.06125 1055.1372,833.72385 C 1052.1932,828.50401 1047.9146,824.66229 1043.0435,822.34885 C 1041.6008,821.66367 1040.1009,821.09604 1038.5748,820.6926 C 1038.1277,820.57082 1037.6832,820.44573 1037.231,820.34885 C 1037.1679,820.33584 1037.1067,820.33013 1037.0435,820.3176 C 1036.0762,820.11799 1035.0891,819.99494 1034.106,819.91135 C 1034.0429,819.90267 1033.9817,819.8884 1033.9185,819.8801 C 1032.6029,819.69907 1031.2523,819.59885 1029.8872,819.59885 C 1013.7166,819.59884 1000.606,832.70959 1000.606,848.8801 C 1000.6059,860.57162 1007.4788,870.6461 1017.3872,875.34885 C 1017.7571,875.52437 1018.1341,875.71984 1018.5122,875.8801 C 1018.5718,875.90581 1018.64,875.91727 1018.6998,875.9426 C 1019.5756,876.30679 1020.4709,876.63232 1021.3872,876.91135 C 1021.786,877.03275 1022.169,877.15048 1022.5748,877.2551 C 1022.9034,877.34227 1023.2416,877.4292 1023.5748,877.5051 C 1023.7182,877.53679 1023.868,877.56927 1024.0122,877.59885 C 1024.0736,877.61185 1024.1383,877.61749 1024.1998,877.6301 C 1024.2199,877.6341 1024.2421,877.62614 1024.2622,877.6301 C 1025.1348,877.80714 1026.0197,877.93895 1026.9185,878.03635 C 1026.9816,878.04319 1027.0428,878.06116 1027.106,878.0676 C 1027.5357,878.10852 1027.9524,878.13925 1028.3872,878.16135 C 1028.9495,878.1936 1029.5045,878.22385 1030.0748,878.22385 C 1038.7851,878.09798 1047.2902,877.16115 1055.8872,875.53635 C 1064.5349,873.82647 1074.9574,867.57436 1078.731,868.1926 C 1078.85,868.22137 1078.9713,868.24122 1079.0748,868.28635 C 1079.7597,868.58523 1080.0864,869.28169 1079.981,870.4426 C 1079.556,871.77608 1079.1741,873.06232 1078.8248,874.22385 C 1078.8221,874.23263 1078.8274,874.24633 1078.8248,874.2551 C 1078.7832,874.35193 1078.7437,874.43682 1078.6998,874.53635 C 1077.903,876.34141 1069.6024,903.7788 1058.481,935.1301 C 1058.03,936.40181 1057.7027,937.34813 1057.2935,938.5051 C 1055.942,940.06383 1054.4536,941.92687 1052.8248,944.1301 C 1046.5597,952.60398 1040.6312,957.06307 1035.6998,957.5051 C 1035.4447,957.52797 1035.1994,957.53497 1034.9498,957.53635 C 1034.6496,957.53261 1034.3665,957.50895 1034.0748,957.47385 C 1029.9899,956.98239 1026.7426,953.42388 1024.7935,946.78635 C 1024.3115,943.19787 1023.1726,939.8105 1021.5122,936.7551 C 1021.4722,936.68181 1021.4277,936.60935 1021.3872,936.53635 C 1021.2082,936.18797 1021.015,935.8425 1020.8248,935.5051 C 1017.3053,929.26494 1011.8567,924.96326 1005.7935,922.9426 C 1004.3408,922.45848 1002.8632,922.09338 1001.356,921.8801 C 1001.2933,921.87122 1001.2312,921.85725 1001.1685,921.84885 C 1001.0233,921.82831 1000.8765,921.83557 1000.731,921.8176 C 1000.4177,921.7813 1000.1081,921.71691 999.79351,921.6926 C 999.07491,921.59376 998.34201,921.52137 997.60601,921.47385 C 996.93331,921.42616 996.25731,921.41135 995.57481,921.41135 C 994.61741,921.41135 993.69611,921.47779 992.76221,921.5676 C 977.92296,922.99489 966.29351,935.47938 966.29351,950.6926 C 966.2933,965.90587 977.92318,978.41832 992.76221,979.84885 C 993.20301,979.89135 993.62851,979.95117 994.07481,979.97385 C 994.63481,980.00585 995.19421,980.0051 995.76221,980.0051 C 1000.0537,979.93738 1004.315,979.67043 1008.5435,979.22385 C 1012.8851,978.76993 1017.2245,978.13977 1021.5748,977.3176 C 1029.5572,975.73923 1039.0384,970.2868 1043.4185,969.9426 C 1043.5591,969.93533 1043.6956,969.90691 1043.8248,969.91135 C 1043.9959,969.91723 1044.1436,969.94609 1044.2935,969.97385 C 1045.2864,970.15778 1045.794,970.82738 1045.6685,972.22385 C 1045.2021,973.68685 1044.7624,975.06102 1044.3872,976.3176 C 1044.3832,976.32684 1044.3914,976.33959 1044.3872,976.34885 C 1043.5905,978.15396 1035.2898,1005.5913 1024.1685,1036.9426 C 1023.6962,1038.2741 1023.3559,1039.2386 1022.9185,1040.4739 C 1021.6148,1041.9911 1020.1945,1043.805 1018.6372,1045.9114 C 1011.1975,1055.9741 1004.2341,1060.3617 998.85601,1059.0989 C 998.59521,1059.0376 998.32801,1058.968 998.07481,1058.8801 C 998.05311,1058.8724 998.03391,1058.8568 998.01221,1058.8489 C 997.96841,1058.8332 997.93071,1058.8028 997.88721,1058.7864 C 997.40801,1058.6008 996.93031,1058.4131 996.48101,1058.1301 C 996.46191,1058.1181 996.43751,1058.1111 996.41851,1058.0989 C 996.18281,1057.9504 995.95821,1057.7742 995.73101,1057.5989 C 995.71371,1057.5852 995.68571,1057.5814 995.66851,1057.5676 C 995.44111,1057.3893 995.23061,1057.1792 995.01221,1056.9739 C 993.13671,1055.1877 991.59491,1052.3917 990.48101,1048.5989 C 989.99911,1045.0104 988.86011,1041.623 987.19981,1038.5676 C 987.15971,1038.4943 987.11511,1038.4219 987.07481,1038.3489 C 986.89571,1038.0005 986.70251,1037.655 986.51221,1037.3176 C 985.33711,1035.2342 983.94131,1033.3668 982.38726,1031.7239 C 982.01876,1031.3325 981.64876,1030.9644 981.26226,1030.5989 C 981.24556,1030.5833 981.21646,1030.5832 981.19976,1030.5676 C 980.81296,1030.2036 980.44701,1029.8429 980.04351,1029.5051 C 980.0261,1029.4907 979.99831,1029.4882 979.98101,1029.4739 C 979.57662,1029.1372 979.15091,1028.7839 978.73101,1028.4739 C 978.71202,1028.4599 978.68751,1028.4565 978.66851,1028.4426 C 978.2226,1028.1169 977.78636,1027.8317 977.32476,1027.5364 C 976.89076,1027.2564 976.45896,1026.9764 976.01226,1026.7239 C 975.99176,1026.7124 975.97036,1026.7041 975.94976,1026.6926 C 975.50286,1026.4415 975.06441,1026.1973 974.60601,1025.9739 C 974.58522,1025.9638 974.56431,1025.9526 974.54351,1025.9426 C 974.4928,1025.9181 974.43796,1025.9042 974.38726,1025.8801 C 973.60816,1025.5116 972.81806,1025.1986 972.01226,1024.9114 C 971.87416,1024.8622 971.74491,1024.8019 971.60601,1024.7551 C 971.12732,1024.5923 970.62326,1024.4514 970.13726,1024.3176 C 970.11526,1024.3116 970.09676,1024.2923 970.07476,1024.2864 C 969.58856,1024.1539 969.09841,1024.0456 968.60601,1023.9426 C 968.10102,1023.837 967.58486,1023.7356 967.07476,1023.6614 C 966.52326,1023.5811 965.97426,1023.5168 965.41851,1023.4739 C 964.10282,1023.2929 962.75236,1023.1926 961.38726,1023.1926 C 958.88176,1023.1926 956.45836,1023.538 954.13726,1024.1301 C 954.11756,1024.1351 954.09446,1024.1251 954.07476,1024.1301 C 941.44477,1027.38 932.10601,1038.83 932.10601,1052.4739 C 932.10602,1060.5833 935.43529,1067.9133 940.76226,1073.2239 C 941.07833,1073.539 941.36968,1073.8609 941.69976,1074.1614 C 941.71633,1074.1765 941.74567,1074.1775 941.76226,1074.1926 C 942.09311,1074.4924 942.41795,1074.8142 942.76226,1075.0989 C 942.77947,1075.1132 942.80753,1075.1159 942.82476,1075.1301 C 943.16931,1075.4136 943.52983,1075.6748 943.88726,1075.9426 C 943.90561,1075.9564 943.93139,1075.9601 943.94976,1075.9739 C 944.70962,1076.5403 945.47948,1077.0757 946.29351,1077.5676 C 946.66976,1077.795 947.06273,1078.0445 947.44976,1078.2551 C 947.47018,1078.2663 947.49182,1078.2752 947.51226,1078.2864 C 947.90699,1078.5 948.29446,1078.6844 948.69976,1078.8801 C 948.72118,1078.8905 948.74086,1078.9011 948.76226,1078.9114 C 949.16876,1079.1065 949.59556,1079.2973 950.01226,1079.4739 C 950.03336,1079.4829 950.05356,1079.4961 950.07476,1079.5051 C 950.49168,1079.6806 950.89836,1079.8486 951.32476,1080.0051 C 951.34688,1080.0133 951.36516,1080.0283 951.38726,1080.0364 C 951.81476,1080.1921 952.26326,1080.3378 952.69976,1080.4739 C 952.72168,1080.4807 952.74036,1080.4983 952.76226,1080.5051 C 953.19906,1080.6401 953.62956,1080.734 954.07476,1080.8489 C 954.09728,1080.8547 954.11476,1080.8743 954.13726,1080.8801 C 954.58336,1080.9941 955.02691,1081.0995 955.48101,1081.1926 C 955.51272,1081.1992 955.54306,1081.2173 955.57476,1081.2239 C 957.48088,1081.6148 959.42846,1081.8176 961.44976,1081.8176 C 970.16026,1081.6917 978.66508,1080.7549 987.26221,1079.1301 C 996.24241,1077.3544 1007.1365,1070.6707 1010.5122,1071.8801 C 1010.5816,1071.905 1010.6369,1071.9422 1010.6998,1071.9739 C 1010.7852,1072.0212 1010.8775,1072.0689 1010.9498,1072.1301 C 1011.0604,1072.2238 1011.1524,1072.3145 1011.231,1072.4426 C 1011.4026,1072.722 1011.5048,1073.108 1011.5122,1073.5676 C 1010.731,1076.0053 1010.1111,1078.084 1009.5748,1079.9739 C 1007.3003,1086.8634 999.71231,1111.2913 989.98101,1138.7239 C 989.48391,1140.1256 989.14121,1141.1089 988.66851,1142.4426 C 988.65831,1142.4544 988.64721,1142.4621 988.63721,1142.4739 C 987.37831,1143.9507 986.00351,1145.7066 984.51221,1147.7239 C 971.98216,1164.6716 960.74851,1165.5515 956.29351,1150.3801 C 955.81142,1146.7917 954.67266,1143.4041 953.01226,1140.3489 C 952.97236,1140.2756 952.92766,1140.203 952.88726,1140.1301 C 952.70836,1139.7817 952.51506,1139.4362 952.32476,1139.0989 C 947.67139,1130.8481 939.66971,1125.9339 931.29351,1125.2863 C 929.97783,1125.1054 928.62736,1125.0051 927.26226,1125.0051 C 911.09167,1125.0052 897.98101,1138.116 897.98101,1154.2863 C 897.98103,1170.4569 911.09176,1183.5989 927.26226,1183.5989 C 935.97267,1183.473 944.47765,1182.5363 953.07476,1180.9113 C 963.71828,1178.8069 977.03271,1169.8038 977.35601,1175.2239 C 976.33802,1178.396 975.52481,1181.0848 974.91851,1183.3489 C 972.2192,1191.6692 965.04041,1214.6457 955.85601,1240.5363 C 955.71002,1240.948 955.62491,1241.2243 955.48101,1241.6301 C 954.08062,1243.2298 952.52896,1245.1376 950.82476,1247.4426 C 938.29489,1264.3904 927.06101,1265.2701 922.60601,1250.0989 C 922.12393,1246.5104 920.98516,1243.123 919.32476,1240.0676 C 919.28477,1239.9944 919.24016,1239.9217 919.19976,1239.8489 C 919.02077,1239.5004 918.82746,1239.1549 918.63726,1238.8176 C 913.98367,1230.5669 905.98231,1225.6525 897.60601,1225.0051 C 896.29033,1224.8241 894.93986,1224.7239 893.57476,1224.7239 C 877.40417,1224.7239 864.29351,1237.8344 864.29351,1254.0051 C 864.29353,1270.1757 877.40426,1283.3176 893.57476,1283.3176 C 902.28527,1283.1918 910.79016,1282.2547 919.38726,1280.6301 C 930.47787,1278.4372 944.46816,1268.7739 943.63726,1275.7239 C 943.14517,1277.2367 942.66556,1278.6642 942.26226,1279.9739 C 941.16947,1282.808 933.05111,1309.5771 922.16851,1340.2551 C 902.40843,1395.9577 902.16396,1397.2618 911.94976,1397.2551 C 917.20437,1397.2516 921.90206,1398.9933 924.63726,1391.0051 C 928.56667,1379.5293 935.38186,1354.7127 945.26226,1319.6301 C 951.51842,1301.0951 959.29859,1277.9854 967.19976,1253.7239 C 967.19876,1253.7091 967.27321,1253.495 967.29351,1253.4113 C 967.3349,1253.3049 967.35496,1253.3135 967.44976,1253.0363 C 970.93426,1242.8602 986.67931,1196.8739 1002.1685,1149.2239 C 1002.7566,1147.6895 1003.3475,1146.169 1003.981,1144.4113 C 1012.1178,1121.8394 1025.1627,1083.2904 1037.7935,1043.8801 C 1037.9593,1043.4271 1038.1243,1043.0681 1038.2935,1042.5989 C 1046.4002,1020.1101 1059.3939,981.7634 1071.981,942.5051 C 1072.1962,941.92034 1072.3852,941.43001 1072.606,940.8176 C 1086.0169,903.61476 1112.7476,823.07826 1129.0122,766.66135 C 1140.063,728.32859 1137.3571,719.02062 1121.4498,740.53635 C 1108.9195,757.48408 1097.6861,758.36407 1093.231,743.1926 C 1092.749,739.60411 1091.6101,736.21679 1089.9498,733.16135 C 1089.9096,733.08807 1089.8651,733.01552 1089.8248,732.9426 C 1089.6456,732.59413 1089.4525,732.24874 1089.2622,731.91135 C 1084.6084,723.6605 1076.6073,718.74621 1068.231,718.09885 C 1066.9154,717.91784 1065.5648,717.8176 1064.1998,717.8176 z "
       style="fill:#000000"
       id="path2167" />
  </g>
</svg>
