<?xml version="1.0" encoding="UTF-8" standalone="no"?>
<!-- Created with Inkscape (http://www.inkscape.org/) -->
<svg
   xmlns:svg="http://www.w3.org/2000/svg"
   xmlns="http://www.w3.org/2000/svg"
   version="1.0"
   width="2000"
   height="2000"
   id="svg2">
  <defs
     id="defs4" />
  <g
     id="layer1">
    <path
       d="M 950.62212,1049.034 C 950.04504,1048.3003 949.96077,1047.8564 950.10802,1046.3258 C 950.20488,1045.319 950.642,1041.0238 951.07938,1036.7811 C 951.51676,1032.5383 951.96739,1028.033 952.08079,1026.7692 C 952.63408,1020.6026 953.60893,1012.5766 953.8829,1011.932 C 954.29804,1010.9555 955.72918,1010.6263 961.4407,1010.1939 C 973.57719,1009.2749 979.48365,1007.6385 985.77053,1003.4531 C 990.54958,1000.2717 990.60422,999.88101 986.65104,997.15628 C 980.02569,992.58972 973.36651,990.68815 961.11244,989.86354 C 956.00913,989.52014 954.39624,989.1434 953.87722,988.17362 C 953.53615,987.53631 952.68769,980.17725 950.93098,962.61908 C 949.79701,951.28524 949.80539,951.14959 951.69632,950.24791 C 952.71404,949.76257 953.27277,949.77419 959.1701,950.40323 C 979.00672,952.51919 987.45025,953.57424 988.3345,954.04746 C 989.46713,954.65362 989.73125,955.84842 990.00632,961.60995 C 990.3307,968.40411 991.02114,972.58945 992.58436,977.23746 C 993.99883,981.44317 995.91866,984.98177 998.17345,987.5392 C 999.6391,989.20157 999.81311,989.30448 1000.5732,988.95813 C 1001.7405,988.42626 1004.574,984.55688 1006.0862,981.42965 C 1008.6515,976.1243 1009.8971,970.20103 1010.3234,961.27907 C 1010.4746,958.11531 1010.752,955.52256 1010.9861,955.08509 C 1011.2076,954.67125 1011.8737,954.13009 1012.4663,953.88248 C 1014.9831,952.83087 1039.3284,950.1277 1046.3266,950.12277 C 1049.7305,950.12037 1050.0704,950.43077 1050.0704,953.54092 C 1050.0704,954.76162 1049.7019,959.18146 1049.2515,963.36286 C 1048.8011,967.54421 1048.3586,971.77776 1048.2682,972.77075 C 1047.8947,976.87276 1046.7642,987.10433 1046.6063,987.81021 C 1046.3429,988.98774 1044.5963,989.49897 1039.6352,989.85063 C 1029.0803,990.5988 1023.3532,991.8559 1017.7983,994.6438 C 1015.1926,995.95152 1011.692,998.35553 1011.1182,999.23132 C 1010.651,999.94441 1010.6514,1000.0887 1011.1233,1000.8087 C 1011.8783,1001.961 1016.8384,1005.1588 1019.7892,1006.3957 C 1024.7734,1008.4849 1030.075,1009.5353 1038.9097,1010.184 C 1044.1955,1010.5722 1046.3725,1011.1616 1046.6186,1012.2711 C 1047.6397,1020.3874 1048.3804,1028.536 1049.2515,1036.6695 C 1049.7019,1040.8509 1050.0704,1045.2964 1050.0704,1046.5484 C 1050.0704,1049.6046 1049.7228,1049.9121 1046.2697,1049.9095 C 1039.3215,1049.9046 1014.9705,1047.1962 1012.4663,1046.1498 C 1011.8737,1045.9023 1011.2076,1045.361 1010.9861,1044.9472 C 1010.752,1044.5098 1010.4746,1041.917 1010.3234,1038.7532 C 1009.7079,1025.8734 1007.1084,1017.9189 1001.5258,1011.8334 L 1000.1708,1010.3562 L 998.39681,1012.295 C 995.99314,1014.9219 994.05427,1018.4243 992.58436,1022.7949 C 991.02114,1027.4429 990.3307,1031.6282 990.00632,1038.4224 C 989.8641,1041.4013 989.58368,1044.252 989.38317,1044.7572 C 988.90297,1045.9671 987.616,1046.4696 983.41833,1047.086 C 975.00464,1048.3215 958.4899,1049.9065 953.99664,1049.9095 C 951.47696,1049.9113 951.27,1049.8576 950.62212,1049.034 z "
       style="fill:black"
       id="path1933" />
  </g>
</svg>
