<?xml version="1.0" encoding="UTF-8" standalone="no"?>
<!-- Created with Inkscape (http://www.inkscape.org/) -->
<svg
   xmlns:svg="http://www.w3.org/2000/svg"
   xmlns="http://www.w3.org/2000/svg"
   version="1.0"
   width="2000"
   height="2000"
   id="svg2">
  <defs
     id="defs4" />
  <g
     id="layer1" />
  <path
     d="M 955.24568,1043.5243 C 953.88271,1042.9501 952,1040.7167 952,1039.4922 C 952,1038.4028 954.11302,1033.3561 966.34733,1005.2265 C 984.45361,963.59553 996.18161,937.80487 997.52031,936.67508 C 998.58691,935.77498 1001.7549,935.77498 1002.8214,936.67508 C 1003.8708,937.56076 1006.6271,943.42584 1018.3443,969.70587 C 1026.8744,988.83769 1043.5273,1027.9123 1047.0696,1035.5181 C 1048.1971,1037.9389 1048.4708,1040.6657 1046.9221,1042.2051 C 1046.9221,1042.2051 1045.1918,1043.8036 1043.6558,1043.8209 C 1033.9749,1043.9271 1024.2176,1043.827 1017.4815,1043.8209 C 1015.0394,1043.8189 1013.1665,1038.4576 1013.1665,1038.4576 C 1004.7409,1018.581 998.39431,1003.0618 989.73963,982.57374 C 989.49973,982.00583 985.81091,989.49074 977.21552,1008.8641 C 965.79894,1034.5958 961.86312,1043.0541 961.33897,1043.3277 C 959.65414,1044.207 956.78234,1044.1715 955.24568,1043.5243 z "
     style="fill:black"
     id="path4665" />
</svg>
