<?xml version="1.0" encoding="UTF-8" standalone="no"?>
<!-- Created with Inkscape (http://www.inkscape.org/) -->
<svg
   xmlns:svg="http://www.w3.org/2000/svg"
   xmlns="http://www.w3.org/2000/svg"
   version="1.0"
   width="2000"
   height="2000"
   id="svg2">
  <defs
     id="defs4" />
  <g
     id="layer1">
    <path
       d="M 1049.3742,500.00029 C 1047.0007,499.96002 1038.0278,504.20279 1033.0032,508.39655 C 1022.6839,517.00921 1018.5646,521.08439 1011.6079,532.71813 C 998.93236,553.91551 983.85084,580.48981 978.48915,612.69945 C 975.96748,627.84812 972.88335,635.51458 972.92059,662.76168 C 972.99884,721.01589 974.45254,743.10992 984.14158,778.81146 C 997.26083,827.15287 1006.0541,832.66662 1005.1181,887.92347 C 1004.4059,929.48634 973.82417,978.82511 967.81253,984.89441 C 958.59872,994.19615 951.9575,996.2895 950.2692,999.20354 C 949.91026,999.82297 949.91026,1000.2566 950.2692,1000.8197 C 952.08264,1003.6653 958.60596,1005.8345 967.81253,1015.1289 C 973.82417,1021.1981 1004.4059,1070.5369 1005.1181,1112.0999 C 1006.0541,1167.3567 997.26083,1172.8703 984.14158,1221.2119 C 974.45254,1256.9133 972.99884,1279.0073 972.92059,1337.2617 C 972.88335,1364.5085 975.96748,1372.1751 978.48915,1387.324 C 983.85084,1419.5334 998.93236,1446.1077 1011.6079,1467.3051 C 1018.5646,1478.939 1022.6839,1483.014 1033.0032,1491.6267 C 1038.7456,1496.4195 1049.6481,1501.2499 1049.9603,1499.7075 C 1050.3861,1497.6027 1047.3053,1495.6917 1044.6848,1492.2575 C 1028.3713,1470.8785 1019.9496,1455.2941 1014.4551,1431.8674 C 998.38866,1350.4974 1008.4769,1267.4477 1026.0948,1187.1537 C 1033.422,1155.4617 1029.3568,1119.9347 1023.4569,1095.0707 C 1016.3678,1065.196 1004.5924,1037.8258 989.24965,1015.6019 C 982.76813,1006.2134 980.16835,1002.3593 979.53595,1000.0313 C 980.14838,997.70755 982.72955,993.86584 989.24965,984.4214 C 1004.5924,962.19747 1016.3678,934.82725 1023.4569,904.95251 C 1029.3568,880.08873 1033.422,844.56147 1026.0948,812.86954 C 1008.4769,732.57558 998.38866,649.52594 1014.4551,568.15589 C 1019.9496,544.72896 1028.3713,529.14461 1044.6848,507.76585 C 1047.3053,504.33141 1050.3861,502.42056 1049.9603,500.31565 C 1049.9212,500.12285 1049.7131,500.00605 1049.3742,500.00029 z "
       style="fill:black"
       id="path1886" />
  </g>
</svg>
