<?xml version="1.0" encoding="UTF-8" standalone="no"?>
<!-- Created with Inkscape (http://www.inkscape.org/) -->
<svg
   xmlns:svg="http://www.w3.org/2000/svg"
   xmlns="http://www.w3.org/2000/svg"
   version="1.0"
   width="2000"
   height="2000"
   id="svg2">
  <defs
     id="defs4" />
  <g
     id="layer1">
    <path
       d="M 1106.1051,1091.5615 C 1076.6874,1070.5765 1068.1439,1066.4996 1045.1952,1058.5374 C 1026.3477,1051.9982 1014.493,1050.1826 990.6044,1048.8425 C 983.3969,1048.5574 982.5468,1047.9567 980.2176,1045.8387 C 978.9019,1044.6422 978.6763,1042.8227 978.3721,1040.7623 C 978.1815,1039.4713 978.0198,1023.0618 978.0128,1016.8172 L 978,1000 L 997.5053,1000 L 1017.0107,1000 L 1021.1753,1001.042 C 1042.8576,1008.2053 1053.2133,1016.9399 1070.9392,1029.0733 C 1083.7713,1037.8568 1108.503,1059.0003 1122.0031,1080.3331 C 1128.4404,1090.5052 1129.4451,1098.655 1126.2103,1099.757 C 1121.5562,1101.3423 1110.6077,1094.7734 1106.1051,1091.5615 z "
       style="fill:black"
       id="path1955" />
  </g>
</svg>
