<?xml version="1.0" encoding="UTF-8" standalone="no"?>
<!-- Created with Inkscape (http://www.inkscape.org/) -->
<svg
   xmlns:svg="http://www.w3.org/2000/svg"
   xmlns="http://www.w3.org/2000/svg"
   version="1.0"
   width="2000"
   height="2000"
   id="svg2">
  <defs
     id="defs4" />
  <g
     id="layer1">
    <path
       d="M 859.79526,1226.6006 C 857.53323,1225.6603 855.47989,1222.6138 855.47989,1220.1979 C 855.47989,1219.3704 859.41186,1217.4026 865.22989,1215.3183 C 877.95375,1210.7602 897.03645,1201.2699 906.52918,1194.7793 C 910.68129,1191.9403 919.98741,1183.8954 927.20945,1176.9016 C 969.36766,1136.0759 998.12854,1085.2774 1008.5978,1033.1506 C 1011.7259,1017.5751 1011.9804,985.89448 1009.0783,973.32855 C 1000.5681,936.48015 976.90218,913.85503 945.11797,912.18129 C 931.84203,911.48217 923.2853,913.79784 910.1676,919.92268 C 902.58729,923.46203 897.82745,925.59353 890.63195,932.24626 C 879.32719,942.69829 873.3477,952.9268 872.65085,964.1303 C 872.09569,973.05564 877.19412,974.17058 882.0466,969.77471 C 890.53298,962.08677 904.15294,958.43677 913.04957,961.46626 C 923.16403,964.91042 932.39438,976.40228 934.4526,988.1133 C 935.80735,995.82167 934.32719,1007.3248 931.02216,1014.7733 C 926.48453,1024.9997 916.69275,1033.6671 906.27861,1036.6755 C 899.22273,1038.7138 886.10834,1037.7407 880.11194,1034.7339 C 857.67014,1023.481 847.49695,984.8039 859.30088,955.61302 C 869.48449,930.42911 891.5669,911.58885 920.88353,903.07198 C 937.13953,898.34946 965.8467,898.44438 984.97989,903.28391 C 1007.3457,908.94122 1027.4622,922.07908 1039.7709,939.06742 C 1046.5223,948.38546 1049.5159,954.24314 1053.8426,966.60139 C 1059.5454,982.89037 1060.9858,993.04961 1060.9378,1016.6422 C 1060.8952,1037.5698 1055.4508,1051.9503 1051.1764,1066.8764 C 1045.3024,1087.3878 1033.043,1109.4918 1015.8553,1133.2325 C 990.0309,1168.9026 943.59839,1203.1607 896.37883,1221.3829 C 882.32695,1226.8056 865.91792,1229.1459 859.79526,1226.6006 z M 1103.3739,1065.8426 C 1086.6395,1054.7522 1095.2231,1028.0641 1114.9807,1029.7545 C 1126.0304,1030.6999 1133.114,1039.3989 1132.2991,1051.0223 C 1131.5652,1061.4915 1124.9858,1067.9584 1114.4798,1068.5371 C 1108.6671,1068.8572 1107.4929,1068.5724 1103.3739,1065.8426 z M 1103.3739,966.79258 C 1086.6395,955.70216 1095.2231,929.01404 1114.9807,930.70449 C 1126.0304,931.64991 1133.114,940.34898 1132.2991,951.97231 C 1131.5652,962.44149 1124.9858,968.90833 1114.4798,969.48705 C 1108.6671,969.80721 1107.4929,969.52234 1103.3739,966.79258 z "
       style="fill:black"
       id="path2086" />
  </g>
</svg>
