<?xml version="1.0" encoding="UTF-8" standalone="no"?>
<!-- Created with Inkscape (http://www.inkscape.org/) -->
<svg
   xmlns:svg="http://www.w3.org/2000/svg"
   xmlns="http://www.w3.org/2000/svg"
   version="1.0"
   width="2000"
   height="2000"
   id="svg2">
  <defs
     id="defs4" />
  <path
     d="M 968.28125,806 C 962.65004,806.13204 956.92503,807.6793 951.65625,810.78125 C 934.31502,821.60207 934.90487,835.09059 943.84375,851.25 C 943.60131,851.46593 940.4597,853.12333 936.875,854.9375 C 929.53475,858.65228 922.12809,865.32736 920.4375,869.90625 C 918.23939,875.85988 918.35525,882.19551 921.125,886.875 C 924.37017,892.35777 930.25018,897.37618 938.03125,900.15625 C 931.60797,900.7118 925.68733,901.66448 920.875,903.0625 C 891.55837,911.57937 869.49609,930.44107 859.3125,955.625 C 847.50857,984.81588 857.6832,1023.4659 880.125,1034.7188 C 886.1214,1037.7256 899.22535,1038.7258 906.28125,1036.6875 C 916.69539,1033.6791 926.49362,1025.0076 931.03125,1014.7813 C 934.33628,1007.3327 935.79227,995.83339 934.4375,988.125 C 932.37928,976.41398 923.17697,964.91292 913.0625,961.46875 C 904.16587,958.43926 890.51766,962.0933 882.03125,969.78125 C 877.17877,974.17712 872.10106,973.05033 872.65625,964.125 C 873.3531,952.9215 879.32023,942.70201 890.625,932.25 C 897.8205,925.59727 902.57594,923.47686 910.15625,919.9375 C 923.27395,913.81266 931.84905,911.4884 945.125,912.1875 C 976.90921,913.86124 1000.5835,936.49535 1009.0938,973.34375 C 1011.9959,985.90968 1011.7219,1017.5807 1008.5938,1033.1563 C 998.12449,1085.283 969.37694,1136.0805 927.21875,1176.9063 C 919.99671,1183.9001 910.68337,1191.9423 906.53125,1194.7813 C 897.03852,1201.2719 877.94258,1210.7543 865.21875,1215.3125 C 859.40072,1217.3968 855.46872,1219.36 855.46875,1220.1875 C 855.46875,1222.6034 857.51919,1225.6535 859.78125,1226.5938 C 865.90391,1229.139 882.3231,1226.7977 896.375,1221.375 C 943.59456,1203.1528 990.01936,1168.8888 1015.8438,1133.2188 C 1033.0314,1109.478 1045.3135,1087.3865 1051.1875,1066.875 C 1055.4619,1051.9489 1060.895,1037.5838 1060.9375,1016.6563 C 1060.9855,993.06366 1059.5465,982.88274 1053.8438,966.59375 C 1049.5171,954.2355 1046.5327,948.38052 1039.7813,939.0625 C 1027.4726,922.07416 1007.3345,908.93853 984.96875,903.28125 C 980.33811,902.10998 975.15874,901.20816 969.71875,900.59375 C 970.36397,900.39287 971.01405,900.20078 971.625,899.96875 C 987.91675,893.78154 996.44587,880.41112 988.625,867.71875 C 986.07959,863.58784 983.56017,860.89917 979.78125,855.71875 C 986.12662,851.91928 994.0126,845.90515 996.375,841.5 C 998.73752,837.09487 999.72987,829.14307 997.59375,824.125 C 992.53818,812.24861 980.6699,805.70952 968.28125,806 z M 969.75,812.84375 C 977.68166,812.84375 988.66801,820.09679 988.375,829 C 988.08197,837.90319 983.41725,847.05542 975.15625,851.34375 C 970.89735,848.55048 964.14986,842.17542 959.5,835.78125 C 955.61603,830.44027 954.66068,823.88584 957.125,819.28125 C 958.87081,816.01917 965.10554,812.84375 969.75,812.84375 z M 948.40625,856.53125 C 961.96702,870.58024 978.95271,880.13149 964.3125,891.5 C 959.63891,894.97452 949.94001,894.5828 945.46875,891.84375 C 931.96947,883.57411 924.02495,872.87282 948.40625,856.53125 z M 1113.1563,930.625 C 1094.706,930.66401 1087.1635,956.03738 1103.375,966.78125 C 1107.494,969.51101 1108.656,969.82015 1114.4688,969.5 C 1124.9747,968.92128 1131.5786,962.43795 1132.3125,951.96875 C 1133.1274,940.34542 1126.0184,931.66419 1114.9688,930.71875 C 1114.3513,930.66592 1113.7514,930.62374 1113.1563,930.625 z M 1113.1563,1029.6875 C 1094.706,1029.7266 1087.1635,1055.0999 1103.375,1065.8438 C 1107.494,1068.5736 1108.656,1068.8513 1114.4688,1068.5313 C 1124.9747,1067.9526 1131.5786,1061.5004 1132.3125,1051.0313 C 1133.1274,1039.4079 1126.0184,1030.6954 1114.9688,1029.75 C 1114.3513,1029.6972 1113.7514,1029.6862 1113.1563,1029.6875 z "
     style="fill:black"
     id="path2086" />
</svg>
