<?xml version="1.0" encoding="UTF-8" standalone="no"?>
<!-- Created with Inkscape (http://www.inkscape.org/) -->
<svg
   xmlns:svg="http://www.w3.org/2000/svg"
   xmlns="http://www.w3.org/2000/svg"
   version="1.0"
   width="2000"
   height="2000"
   id="svg2">
  <defs
     id="defs4" />
  <g
     id="layer1">
    <path
       d="M 1020.2188,518.875 C 1017.7595,518.875 999.2508,539.10093 993.34375,548.25 C 976.0717,575.00223 963.56221,612.99476 959.21875,651.875 C 956.58789,675.42452 958.14788,713.4702 962.71875,736.90625 L 966.4375,756 L 955.1875,766.3125 C 874.41287,840.45976 848.04816,899.38902 845.6875,959.875 C 845.08898,975.2094 845.40108,979.31101 847.9375,989.6875 C 853.38777,1011.9821 863.56531,1029.8436 881.875,1049.2188 C 901.92603,1070.437 918.64343,1086.1394 949.28125,1094.6875 C 964.53982,1098.9456 966.41377,1099.1486 989.9375,1099.25 C 1013.7095,1099.3485 1015.005,1099.2315 1025.6875,1095.4688 C 1031.7821,1093.3239 1036.995,1091.8003 1037.2813,1092.0938 C 1038.9261,1093.7827 1051.25,1168.3617 1051.25,1176.625 C 1051.25,1200.8997 1036.144,1223.5717 1011.2813,1236.5938 C 995.91994,1244.6411 985.77176,1246.8798 968.8125,1245.9688 C 955.22914,1245.2388 937.96873,1240.9017 937.96875,1238.2188 C 937.96875,1237.6405 941.69941,1236.3659 946.28125,1235.4063 C 961.87107,1232.1342 978.18804,1219.9198 983.34375,1207.625 C 990.91272,1189.5719 986.59223,1169.4804 971.65625,1153.25 C 963.7575,1144.6699 956.42642,1141.75 942.625,1141.75 C 932.4566,1141.75 929.52651,1142.2852 923.3125,1145.3125 C 898.32699,1157.4739 889.28469,1191.2106 903.375,1219.6875 C 911.02236,1235.1398 923.17552,1245.6207 940.78125,1251.9063 C 946.5211,1253.9562 950.01443,1254.9413 954.59375,1255.4375 C 952.5845,1256.1822 950.60328,1257.1221 948.6875,1258.25 C 930.35691,1269.6881 930.98861,1283.95 940.4375,1301.0313 C 940.18122,1301.2596 936.88298,1303.0197 933.09375,1304.9375 C 925.33472,1308.8642 917.50578,1315.9411 915.71875,1320.7813 C 913.39523,1327.0747 913.50972,1333.741 916.4375,1338.6875 C 920.48447,1345.5249 928.36883,1351.7067 938.90625,1354.0938 C 947.9774,1356.1486 960.79814,1355.9547 969.8125,1352.5313 C 987.03374,1345.9909 996.04828,1331.8539 987.78125,1318.4375 C 985.09063,1314.0709 982.40074,1311.2572 978.40625,1305.7813 C 985.11364,1301.765 993.5027,1295.3751 996,1290.7188 C 998.4973,1286.0623 999.508,1277.6793 997.25,1272.375 C 993.71404,1264.0684 987.03277,1258.2261 979.125,1255.3125 C 992.0902,1254.0181 1004.3997,1250.6409 1014.25,1245.5313 C 1044.1684,1230.0041 1058.824,1208.1877 1060.0938,1177.3125 C 1060.5957,1165.1054 1059.8914,1159.477 1053.5313,1124.9063 L 1046.4063,1086.1563 L 1053.1875,1082.6563 C 1077.7767,1069.9088 1111.2199,1043.2399 1118.8125,1019.375 C 1123.1615,1005.7055 1123.6548,984.6421 1119.9688,970 C 1112.3065,939.56226 1090.3092,916.16272 1059.9375,906.15625 C 1052.2685,903.62882 1045.8262,902.71458 1032.375,902.15625 C 1015.7351,901.46466 1004.7843,901.2608 1004.0938,898.4375 C 1003.693,896.79949 999.74275,878.32539 995.3125,857.40625 L 987.25,819.375 L 996.1875,811 C 1038.8979,770.94862 1061.8616,732.71378 1070.6563,687.0625 C 1074.2471,668.42329 1072.8175,635.25185 1067.5,614.21875 C 1065.2616,605.36496 1060.7526,591.40185 1057.5,583.1875 C 1048.3128,559.98448 1024.4888,518.87501 1020.2188,518.875 z M 1029.2188,567.71875 L 1035.6875,575.09375 C 1048.8702,590.10245 1053.9376,603.10359 1053.9375,622 C 1053.9375,652.16686 1037.59,684.78789 1004.8125,720.125 C 988.98514,737.18871 975.44268,749.29987 974.6875,747.03125 C 968.93724,729.76147 970.42327,683.261 977.8125,649.46875 C 986.25868,610.84212 1003.0707,581.4843 1022.5938,571.21875 L 1029.2188,567.71875 z M 977.90625,827.53125 C 978.00336,827.53619 978.07769,827.57181 978.125,827.625 C 978.91082,828.5072 993.93753,901.21066 993.9375,904.125 C 993.9375,904.80486 990.78627,906.15964 986.9375,907.15625 C 971.73755,911.09191 965.47028,921.75974 952.71875,936.15625 C 938.53396,952.17057 932.70268,968.29011 933.53125,989.125 C 933.97637,1000.3218 934.65412,1003.586 938.15625,1011.1563 C 940.63971,1016.5226 945.0771,1022.8809 949.34375,1027.1875 C 957.2979,1035.2133 972.97955,1043.8569 981.65625,1045 L 987.28125,1045.7188 L 978.53125,1037.4375 C 973.10786,1032.3003 968.03336,1025.8564 965.21875,1020.5 C 960.92132,1012.3196 960.68198,1011.0876 960.65625,998.15625 C 960.63303,986.46085 961.0878,983.60674 963.75,978.34375 C 970.53498,964.93035 976.62437,953.08904 993.6875,948.9375 C 999.0372,947.63481 1003.6621,946.81101 1003.9688,947.125 C 1004.4468,947.61566 1033.9375,1078.372 1033.9375,1080 C 1033.9375,1080.698 1025.0013,1084.4926 1016.5938,1087.3438 C 1009.5935,1089.7178 975.25298,1090.9444 965.96875,1089.1563 C 922.87922,1080.8557 899.28089,1053.5891 886.0625,1016.1563 C 880.56066,1000.5759 879.77321,979.64919 883.96875,961 C 891.00028,929.74354 908.79819,900.76652 941.46875,867.375 C 958.48312,849.98584 974.89595,827.37816 977.90625,827.53125 z M 1017.7188,944.15625 C 1019.334,944.16915 1031.4574,944.23174 1034.2188,944.34375 C 1044.5823,944.76756 1047.2367,945.43847 1055.0938,949.53125 C 1070.2361,957.42121 1083.0906,974.20678 1087.9063,992.40625 C 1089.0609,996.76845 1089.3834,1003.4311 1088.9063,1012.3125 C 1088.0524,1028.2092 1083.523,1040.749 1074.0313,1053.4063 C 1068.4742,1060.8142 1041.9374,1076.811 1041.9375,1074.7813 C 1041.9375,1073.7176 1014.1452,950.16095 1013.0625,946.40625 C 1012.5524,944.63783 1012.873,944.11754 1017.7188,944.15625 z M 967.84375,1260.4375 C 976.22793,1260.4375 987.80972,1268.089 987.5,1277.5 C 987.19026,1286.9111 982.29479,1296.592 973.5625,1301.125 C 969.06061,1298.1722 961.88387,1291.4464 956.96875,1284.6875 C 952.86319,1279.0417 951.89513,1272.1172 954.5,1267.25 C 956.34543,1263.8017 962.93431,1260.4376 967.84375,1260.4375 z M 945.28125,1306.625 C 959.61571,1321.4754 977.56919,1331.5766 962.09375,1343.5938 C 957.15353,1347.2665 946.88262,1346.833 942.15625,1343.9375 C 927.8868,1335.1962 919.50893,1323.8989 945.28125,1306.625 z"
       id="path2188"
       style="fill:#000000" />
  </g>
</svg>
