<?xml version="1.0" encoding="UTF-8" standalone="no"?>
<!-- Created with Inkscape (http://www.inkscape.org/) -->
<svg
   xmlns:svg="http://www.w3.org/2000/svg"
   xmlns="http://www.w3.org/2000/svg"
   version="1.0"
   width="2000"
   height="2000"
   id="svg2225">
  <defs
     id="defs2227" />
  <g
     id="layer1">
    <path
       d="M 987.30757,1099.2757 C 977.62161,1097.5575 972.34691,1095.786 963.5196,1091.2864 C 930.44721,1073.1249 923.97833,1036.7871 923.77968,1001.8398 C 925.10835,946.7461 948.93385,900.82234 1005.536,900.30415 C 1021.7301,900.37011 1022.8822,900.48414 1032.2221,902.94599 C 1063.3569,911.15245 1074.8802,928.81236 1069.5007,948.39838 C 1064.2062,961.34769 1054.5084,968.51069 1041.4496,968.17416 C 1018.8021,967.58616 1012.371,947.81436 1017.5888,931.86011 C 1019.4024,923.97417 1020.6182,920.95995 1021.7286,917.79066 C 1000.3767,913.62937 982.17449,921.34879 975.41399,946.13495 C 972.71105,956.0448 970.38605,961.03086 970.45198,976.29463 C 970.48697,984.40294 971.7549,992.63337 971.96006,992.83854 C 987.11391,981.89445 1014.7836,974.40827 1037.4051,984.42013 C 1064.264,997.93846 1072.5195,1012.9937 1071.9786,1042.9712 C 1071.4376,1072.9573 1049.3341,1092.5825 1025.1013,1098.4741 C 1016.9932,1100.4454 995.36531,1100.7051 987.30757,1099.2757 z M 1003.829,1002.0475 C 965.3775,1002.7144 967.3606,1079.4631 1006.0467,1079.7433 C 1044.3757,1080.0236 1042.276,1001.3807 1003.829,1002.0475 z "
       style="fill:black"
       id="path2276" />
  </g>
</svg>
