<?xml version="1.0" encoding="UTF-8" standalone="no"?>
<!-- Created with Inkscape (http://www.inkscape.org/) -->
<svg
   xmlns:svg="http://www.w3.org/2000/svg"
   xmlns="http://www.w3.org/2000/svg"
   version="1.0"
   width="2000"
   height="2000"
   id="svg2012">
  <defs
     id="defs2014" />
  <g
     id="layer1">
    <path
       d="M 969.48394,1099.1346 C 959.39301,1097.6838 945.18421,1092.986 937.05942,1088.4142 C 923.47926,1080.4009 913.39666,1068.7341 913.25255,1052.773 C 912.57355,1040.2237 919.51533,1029.7324 930.15274,1023.4284 C 938.99289,1020.1237 950.32414,1020.1691 958.91202,1024.2148 C 973.01244,1031.7188 975.81761,1050.0262 970.38885,1061.5599 C 965.11117,1072.7727 960.9318,1074.3956 956.81594,1080.3769 C 968.97268,1091.9926 989.5381,1092.6706 1001.6916,1080.8717 C 1010.6558,1071.8365 1014.3919,1060.5943 1015.1896,1040.2542 C 1016.1009,1019.396 1012.7956,997.8481 991.12705,989.53679 C 983.80962,987.32124 971.77918,986.59883 962.05139,990.06048 C 950.71973,993.97157 944.40417,1000.1396 932.64986,1002.1809 L 923.68641,1002.2779 C 923.68731,1001.6363 924.79591,983.08557 926.15002,964.72484 C 927.50412,946.36412 929.04966,924.39384 929.58457,915.902 C 930.11949,907.41016 930.69155,900.31516 930.85581,900.13532 C 931.02006,899.95549 972.01874,903.86002 990.76235,904.20977 C 1016.0245,903.65835 1046.2529,902.58868 1064.4795,901.23498 C 1065.3126,920.83834 1046.0111,934.13849 1030.5108,940.91593 C 1015.2507,946.12077 991.70217,948.20303 969.48488,946.3121 C 961.96702,945.67225 953.86137,945.14052 951.47232,945.13049 C 946.49162,945.10957 946.98961,944.0494 945.40446,958.04821 C 944.61351,965.03331 944.2116,980.16454 944.81702,980.16454 C 944.9643,980.16454 949.00167,978.68853 953.78898,976.8845 C 967.54416,971.70106 977.64038,969.90347 993.37208,969.83686 C 1007.5654,969.77676 1014.959,970.86916 1026.1677,974.68232 C 1048.908,982.4185 1062.3218,999.10231 1067.1098,1019.0999 C 1068.912,1026.6276 1068.9023,1040.554 1067.0896,1048.1828 C 1064.0118,1061.1358 1056.9026,1072.8987 1045.3646,1081.4224 C 1036.0982,1088.2678 1023.7893,1095.516 1010.0637,1098.3439 C 1001.5225,1100.1036 979.2434,1100.5377 969.48394,1099.1346 z "
       style="fill:black"
       id="path2087" />
  </g>
</svg>
