<?xml version="1.0" encoding="UTF-8" standalone="no"?>
<!-- Created with Inkscape (http://www.inkscape.org/) -->
<svg
   xmlns:svg="http://www.w3.org/2000/svg"
   xmlns="http://www.w3.org/2000/svg"
   version="1.0"
   width="2000"
   height="2000"
   id="svg2338">
  <defs
     id="defs2340" />
  <g
     id="layer1">
    <path
       d="M 986.98113,1098.968 C 974.73713,1097.7319 959.83609,1092.7218 951.20253,1086.9381 C 946.40904,1083.727 938.62074,1075.2511 936.52723,1070.9671 C 933.21636,1064.192 933.13794,1053.9624 936.33712,1046.1711 C 938.64213,1040.5573 945.16042,1034.0659 950.27216,1032.2935 C 956.09371,1030.2749 965.64852,1030.8334 970.74415,1033.4901 C 982.22043,1041.7755 984.49204,1053.3991 980.88629,1068.5579 C 978.57559,1076.2753 981.39074,1081.5095 983.67188,1084.0444 C 986.25156,1086.9111 990.05519,1087.9501 996.38278,1087.5168 C 1016.0177,1086.1723 1024.397,1067.6606 1025.8934,1022.7693 L 1026.3959,1007.6929 L 1022.5889,1009.6961 C 1015.7352,1013.3021 1009.325,1016.9598 1001.0657,1018.7358 C 985.91148,1020.8257 972.18496,1020.4146 958.8954,1016.0412 C 943.0189,1010.4424 931.51307,997.9491 927.57013,982.02769 C 924.73333,970.57264 925.30603,955.30074 929.03238,943.0361 C 936.13674,919.65321 957.24875,904.29703 987.06312,900.82644 C 1028.8672,895.96018 1053.3989,913.02783 1066.5563,951.81874 C 1075.2873,977.55974 1074.5173,1014.0809 1066.702,1038.9399 C 1057.4938,1068.2286 1041.3593,1088.6785 1016.7731,1096.5104 C 1006.9507,1099.3811 997.033,1099.9908 986.98113,1098.968 z M 1009.3117,999.37061 C 1016.9976,995.66816 1022.106,988.48994 1024.3351,978.26023 C 1028.7803,957.85978 1024.5953,932.11227 1015.0399,921.07063 C 1006.7872,911.53445 990.74067,912.60725 981.12583,923.33799 C 972.43525,933.03717 968.1992,949.7212 969.80746,967.91621 C 971.33334,985.17915 977.57083,997.003 987.08008,1000.6583 C 992.26138,1002.65 1003.9039,1001.9756 1009.3117,999.37061 z "
       style="fill:black"
       id="path2413" />
  </g>
</svg>
