<?xml version="1.0" encoding="UTF-8" standalone="no"?>
<!-- Created with Inkscape (http://www.inkscape.org/) -->
<svg
   xmlns:svg="http://www.w3.org/2000/svg"
   xmlns="http://www.w3.org/2000/svg"
   version="1.0"
   width="2000"
   height="2000"
   id="svg2">
  <defs
     id="defs4" />
  <g
     id="layer1">
    <path
       d="M 1013.4789,821.15625 C 997.30834,821.15625 984.19764,834.26699 984.19764,850.4375 C 984.19764,866.60802 997.30844,879.75 1013.4789,879.75 C 1022.1892,879.62412 1030.6942,878.6873 1039.2914,877.0625 C 1051.9324,874.56302 1068.3627,862.33505 1062.2914,876.09375 C 1061.4948,877.89882 1053.1941,905.3362 1042.0726,936.6875 C 1041.5754,938.08918 1041.2328,939.07262 1040.7601,940.40625 C 1040.75,940.41803 1040.7389,940.42568 1040.7289,940.4375 C 1039.47,941.91426 1038.0952,943.6704 1036.6039,945.6875 C 1024.0738,962.63523 1012.8401,963.51522 1008.3851,948.34375 C 1007.903,944.75526 1006.7643,941.36794 1005.1039,938.3125 C 1005.064,938.23922 1005.0193,938.16667 1004.9789,938.09375 C 1004.8,937.74528 1004.6066,937.39989 1004.4164,937.0625 C 999.76294,928.81165 991.76134,923.89736 983.38514,923.25 C 982.06944,923.06899 980.71904,922.96875 979.35394,922.96875 C 963.18334,922.96876 950.07264,936.07949 950.07264,952.25 C 950.07264,968.42053 963.18344,981.5625 979.35394,981.5625 C 988.06434,981.43663 996.56924,980.4998 1005.1664,978.875 C 1015.8098,976.77053 1029.1242,967.76762 1029.4476,973.1875 C 1028.4296,976.35959 1027.6164,979.0485 1027.0101,981.3125 C 1024.3109,989.6328 1017.132,1012.6092 1007.9476,1038.5 C 1007.8016,1038.9116 1007.7165,1039.1881 1007.5726,1039.5938 C 1006.1722,1041.1934 1004.6205,1043.1013 1002.9164,1045.4063 C 990.38644,1062.354 979.15264,1063.2339 974.69764,1048.0625 C 974.21554,1044.474 973.07684,1041.0867 971.41644,1038.0313 C 971.37644,1037.958 971.33184,1037.8854 971.29144,1037.8125 C 971.11244,1037.464 970.91914,1037.1186 970.72894,1036.7813 C 966.07534,1028.5305 958.07394,1023.6162 949.69764,1022.9688 C 948.38194,1022.7878 947.03154,1022.6875 945.66644,1022.6875 C 929.49584,1022.6875 916.38514,1035.7982 916.38514,1051.9688 C 916.38514,1068.1393 929.49594,1081.2813 945.66644,1081.2813 C 954.37694,1081.1554 962.88184,1080.2185 971.47894,1078.5938 C 982.56954,1076.4008 996.55984,1066.7377 995.72894,1073.6875 C 995.23684,1075.2003 994.75724,1076.628 994.35394,1077.9375 C 993.26114,1080.7716 985.14274,1107.5409 974.26014,1138.2188 C 954.50004,1193.9213 954.25564,1195.2256 964.04144,1195.2188 C 969.29604,1195.2152 973.99374,1196.957 976.72894,1188.9688 C 980.65834,1177.4929 987.47354,1152.6765 997.35394,1117.5938 C 1003.6101,1099.0587 1011.3901,1075.9491 1019.2914,1051.6875 C 1019.2903,1051.6727 1019.3649,1051.4586 1019.3851,1051.375 C 1019.4266,1051.2685 1019.4465,1051.277 1019.5414,1051 C 1025.0243,1034.9873 1060.9065,930.30261 1078.2914,870 C 1089.3423,831.66723 1086.6362,822.35927 1070.7289,843.875 C 1058.1988,860.82272 1046.9651,861.70272 1042.5101,846.53125 C 1042.028,842.94275 1040.8893,839.55544 1039.2289,836.5 C 1039.1889,836.42671 1039.1443,836.35417 1039.1039,836.28125 C 1038.9249,835.93277 1038.7316,835.58739 1038.5414,835.25 C 1033.8877,826.99914 1025.8863,822.08486 1017.5101,821.4375 C 1016.1944,821.25648 1014.844,821.15625 1013.4789,821.15625 z "
       style="fill:#000000"
       id="path2167" />
  </g>
</svg>
