<?xml version="1.0" encoding="UTF-8" standalone="no"?>
<!-- Created with Inkscape (http://www.inkscape.org/) -->
<svg
   xmlns:svg="http://www.w3.org/2000/svg"
   xmlns="http://www.w3.org/2000/svg"
   version="1.0"
   width="2000"
   height="2000"
   id="svg2">
  <defs
     id="defs4" />
  <g
     id="layer1">
    <path
       d="M 1047.0435,719.59375 C 1030.8728,719.59374 1017.7622,732.70449 1017.7622,748.875 C 1017.7621,765.04551 1030.8731,778.1875 1047.0435,778.1875 C 1055.7536,778.06161 1064.2588,777.1248 1072.856,775.5 C 1085.4968,773.00051 1101.9273,760.77255 1095.856,774.53125 C 1095.0592,776.33631 1086.7586,803.7737 1075.6372,835.125 C 1075.1862,836.39671 1074.859,837.34303 1074.4498,838.5 C 1073.0983,840.05873 1071.6099,841.92177 1069.981,844.125 C 1063.7159,852.59888 1057.7875,857.05797 1052.856,857.5 C 1052.6009,857.52287 1052.3556,857.52987 1052.106,857.53125 C 1051.8058,857.52751 1051.5228,857.50385 1051.231,857.46875 C 1047.1461,856.97729 1043.8989,853.41878 1041.9498,846.78125 C 1041.4678,843.19277 1040.3289,839.8054 1038.6685,836.75 C 1038.6284,836.67671 1038.5839,836.60425 1038.5435,836.53125 C 1038.3644,836.18287 1038.1712,835.8374 1037.981,835.5 C 1034.4615,829.25984 1029.013,824.95816 1022.9498,822.9375 C 1021.4971,822.45338 1020.0194,822.08828 1018.5122,821.875 C 1018.4495,821.86612 1018.3875,821.85215 1018.3248,821.84375 C 1018.1796,821.82321 1018.0327,821.83047 1017.8872,821.8125 C 1017.5739,821.7762 1017.2644,821.71181 1016.9498,821.6875 C 1016.2312,821.58866 1015.4982,821.51627 1014.7622,821.46875 C 1014.0895,821.42106 1013.4135,821.40625 1012.731,821.40625 C 1011.7737,821.40625 1010.8523,821.47269 1009.9185,821.5625 C 995.07922,822.98979 983.44982,835.47428 983.44982,850.6875 C 983.44962,865.90077 995.07942,878.41322 1009.9185,879.84375 C 1010.3593,879.88625 1010.7847,879.94607 1011.231,879.96875 C 1011.7911,880.00075 1012.3504,880 1012.9185,880 C 1017.21,879.93228 1021.4713,879.66533 1025.6998,879.21875 C 1030.0414,878.76483 1034.3808,878.13467 1038.731,877.3125 C 1046.7134,875.73413 1056.1947,870.2817 1060.5748,869.9375 C 1060.7154,869.93023 1060.8519,869.90181 1060.981,869.90625 C 1061.1521,869.91213 1061.2999,869.94099 1061.4498,869.96875 C 1062.4427,870.15268 1062.9503,870.82228 1062.8248,872.21875 C 1062.3584,873.68175 1061.9187,875.05592 1061.5435,876.3125 C 1061.5394,876.32174 1061.5476,876.33449 1061.5435,876.34375 C 1060.7467,878.14886 1052.4461,905.5862 1041.3248,936.9375 C 1040.8525,938.26896 1040.5122,939.23348 1040.0748,940.46875 C 1038.7711,941.98599 1037.3508,943.79988 1035.7935,945.90625 C 1028.3537,955.96898 1021.3903,960.35664 1016.0122,959.09375 C 1015.7514,959.0325 1015.4843,958.96292 1015.231,958.875 C 1015.2094,958.86729 1015.1901,958.85168 1015.1685,958.84375 C 1015.1247,958.82814 1015.087,958.79768 1015.0435,958.78125 C 1014.5643,958.5957 1014.0865,958.40803 1013.6372,958.125 C 1013.6181,958.11296 1013.5938,958.10599 1013.5748,958.09375 C 1013.3391,957.94528 1013.1144,957.76906 1012.8872,957.59375 C 1012.8699,957.58014 1012.842,957.57629 1012.8248,957.5625 C 1012.5974,957.38424 1012.3869,957.17409 1012.1685,956.96875 C 1010.293,955.18259 1008.7511,952.38662 1007.6372,948.59375 C 1007.1553,945.00526 1006.0164,941.6179 1004.356,938.5625 C 1004.316,938.4892 1004.2714,938.41675 1004.231,938.34375 C 1004.052,937.99536 1003.8587,937.6499 1003.6685,937.3125 C 1002.4934,935.22907 1001.0976,933.36172 999.54352,931.71875 C 999.17502,931.32737 998.80502,930.95926 998.41852,930.59375 C 998.40182,930.57815 998.37272,930.57808 998.35602,930.5625 C 997.96922,930.19848 997.60332,929.83779 997.19982,929.5 C 997.18242,929.48562 997.15452,929.4831 997.13722,929.46875 C 996.73282,929.13207 996.30712,928.77877 995.88722,928.46875 C 995.86822,928.4548 995.84382,928.45142 995.82482,928.4375 C 995.37892,928.11175 994.94262,927.8266 994.48102,927.53125 C 994.04702,927.25129 993.61522,926.97134 993.16852,926.71875 C 993.14802,926.70726 993.12662,926.69896 993.10602,926.6875 C 992.65912,926.43636 992.22062,926.19215 991.76222,925.96875 C 991.74142,925.95869 991.72062,925.94752 991.69982,925.9375 C 991.64912,925.91304 991.59422,925.89914 991.54352,925.875 C 990.76442,925.50653 989.97432,925.19348 989.16852,924.90625 C 989.03042,924.85705 988.90112,924.7968 988.76222,924.75 C 988.28352,924.58718 987.77952,924.44628 987.29352,924.3125 C 987.27152,924.30654 987.25302,924.28717 987.23102,924.28125 C 986.74482,924.14883 986.25462,924.04047 985.76222,923.9375 C 985.25722,923.83188 984.74112,923.73045 984.23102,923.65625 C 983.67952,923.57602 983.13052,923.5117 982.57477,923.46875 C 981.25908,923.28775 979.90862,923.1875 978.54352,923.1875 C 976.03802,923.18752 973.61462,923.53291 971.29352,924.125 C 971.27382,924.13003 971.25072,924.11995 971.23102,924.125 C 958.60103,927.37491 949.26227,938.82488 949.26227,952.46875 C 949.26228,960.57821 952.59155,967.90821 957.91852,973.21875 C 958.23459,973.53385 958.52594,973.85578 958.85602,974.15625 C 958.87259,974.17141 958.90193,974.1724 958.91852,974.1875 C 959.24937,974.48731 959.57421,974.80914 959.91852,975.09375 C 959.93573,975.10805 959.96379,975.11075 959.98102,975.125 C 960.32557,975.40847 960.68609,975.66974 961.04352,975.9375 C 961.06187,975.95133 961.08765,975.95499 961.10602,975.96875 C 961.86588,976.53522 962.63574,977.07058 963.44977,977.5625 C 963.82602,977.78988 964.21899,978.03935 964.60602,978.25 C 964.62644,978.26119 964.64808,978.27012 964.66852,978.28125 C 965.06325,978.49487 965.45072,978.67929 965.85602,978.875 C 965.87744,978.88537 965.89712,978.89595 965.91852,978.90625 C 966.32502,979.10137 966.75182,979.29216 967.16852,979.46875 C 967.18962,979.47781 967.20982,979.491 967.23102,979.5 C 967.64794,979.67551 968.05462,979.84354 968.48102,980 C 968.50314,980.00817 968.52142,980.02315 968.54352,980.03125 C 968.97102,980.18701 969.41952,980.33266 969.85602,980.46875 C 969.87794,980.47563 969.89662,980.49319 969.91852,980.5 C 970.35532,980.63504 970.78582,980.72893 971.23102,980.84375 C 971.25354,980.84962 971.27102,980.8692 971.29352,980.875 C 971.73962,980.98895 972.18317,981.09437 972.63727,981.1875 C 972.66898,981.19413 972.69932,981.21224 972.73102,981.21875 C 974.63714,981.60971 976.58472,981.8125 978.60602,981.8125 C 987.31652,981.6866 995.82132,980.7498 1004.4185,979.125 C 1013.3987,977.34933 1024.2928,970.66564 1027.6685,971.875 C 1027.7378,971.89987 1027.7931,971.93712 1027.856,971.96875 C 1027.9414,972.01608 1028.0338,972.06375 1028.106,972.125 C 1028.2166,972.21869 1028.3086,972.30942 1028.3872,972.4375 C 1028.5588,972.71692 1028.661,973.10287 1028.6685,973.5625 C 1027.8872,976.00016 1027.2674,978.07891 1026.731,979.96875 C 1024.4565,986.85834 1016.8685,1011.2863 1007.1372,1038.7188 C 1006.6401,1040.1205 1006.2975,1041.1038 1005.8248,1042.4375 C 1005.8146,1042.4493 1005.8034,1042.457 1005.7935,1042.4688 C 1004.5346,1043.9456 1003.1597,1045.7016 1001.6685,1047.7188 C 989.13842,1064.6665 977.90477,1065.5464 973.44977,1050.375 C 972.96768,1046.7866 971.82892,1043.3991 970.16852,1040.3438 C 970.12862,1040.2705 970.08392,1040.1979 970.04352,1040.125 C 969.86462,1039.7766 969.67132,1039.4312 969.48102,1039.0938 C 964.82765,1030.843 956.82597,1025.9287 948.44977,1025.2812 C 947.13409,1025.1003 945.78362,1025 944.41852,1025 C 928.24793,1025.0001 915.13727,1038.1108 915.13727,1054.2812 C 915.13729,1070.4518 928.24802,1083.5938 944.41852,1083.5938 C 953.12893,1083.4679 961.63391,1082.5311 970.23102,1080.9062 C 980.87454,1078.8018 994.18892,1069.7988 994.51222,1075.2188 C 993.49422,1078.3909 992.68112,1081.0798 992.07482,1083.3438 C 989.37552,1091.6641 982.19667,1114.6405 973.01227,1140.5312 C 972.86628,1140.9429 972.78117,1141.2192 972.63727,1141.625 C 971.23688,1143.2247 969.68522,1145.1325 967.98102,1147.4375 C 955.45115,1164.3853 944.21727,1165.2651 939.76227,1150.0938 C 939.28019,1146.5053 938.14142,1143.1179 936.48102,1140.0625 C 936.44103,1139.9893 936.39642,1139.9167 936.35602,1139.8438 C 936.17703,1139.4953 935.98372,1139.1498 935.79352,1138.8125 C 931.13993,1130.5618 923.13857,1125.6474 914.76227,1125 C 913.44659,1124.819 912.09612,1124.7188 910.73102,1124.7188 C 894.56043,1124.7188 881.44977,1137.8293 881.44977,1154 C 881.44979,1170.1706 894.56052,1183.3125 910.73102,1183.3125 C 919.44153,1183.1867 927.94642,1182.2496 936.54352,1180.625 C 947.63413,1178.4321 961.62442,1168.7689 960.79352,1175.7188 C 960.30143,1177.2316 959.82182,1178.6592 959.41852,1179.9688 C 958.32573,1182.8029 950.20737,1209.572 939.32477,1240.25 C 919.56469,1295.9526 919.32022,1297.2567 929.10602,1297.25 C 934.36063,1297.2465 939.05832,1298.9882 941.79352,1291 C 945.72293,1279.5242 952.53812,1254.7076 962.41852,1219.625 C 968.67468,1201.09 976.45485,1177.9804 984.35602,1153.7188 C 984.35502,1153.704 984.42952,1153.4898 984.44982,1153.4062 C 984.49122,1153.2998 984.51122,1153.3083 984.60602,1153.0312 C 988.09052,1142.8551 1003.8356,1096.8689 1019.3248,1049.2188 C 1019.9129,1047.6844 1020.5037,1046.1638 1021.1372,1044.4062 C 1029.274,1021.8343 1042.319,983.28527 1054.9498,943.875 C 1055.1156,943.42199 1055.2806,943.06304 1055.4498,942.59375 C 1068.8607,905.39097 1095.5913,824.85441 1111.856,768.4375 C 1122.9067,730.10472 1120.2008,720.79677 1104.2935,742.3125 C 1091.7632,759.26021 1080.5298,760.14022 1076.0748,744.96875 C 1075.5928,741.38024 1074.4539,737.99294 1072.7935,734.9375 C 1072.7533,734.8642 1072.7089,734.79167 1072.6685,734.71875 C 1072.4893,734.37026 1072.2962,734.02489 1072.106,733.6875 C 1067.4521,725.43663 1059.451,720.52236 1051.0748,719.875 C 1049.7592,719.69397 1048.4086,719.59375 1047.0435,719.59375 z "
       style="fill:#000000"
       id="path2167" />
  </g>
</svg>
