<?xml version="1.0" encoding="UTF-8" standalone="no"?>
<!-- Created with Inkscape (http://www.inkscape.org/) -->
<svg
   xmlns:svg="http://www.w3.org/2000/svg"
   xmlns="http://www.w3.org/2000/svg"
   version="1.0"
   width="2000"
   height="2000"
   id="svg2">
  <defs
     id="defs4" />
  <g
     id="layer1">
    <path
       d="M 993.3009,700.00001 C 971.45484,699.80669 952.03862,704.37283 935.05712,713.77506 C 914.15673,725.34829 902.5794,740.76218 900.3233,760.04626 C 899.10847,770.43025 901.30072,781.04529 906.8359,791.8028 C 912.34846,802.51736 922.23259,814.76916 936.48895,828.55164 C 936.54721,828.60798 936.56914,828.63394 936.62753,828.69033 L 947.01995,837.61172 C 947.04092,837.603 947.04516,837.57427 947.06614,837.56551 C 952.74005,842.16781 959.33703,847.23585 966.83486,852.7273 C 951.68809,855.8255 938.27007,861.81319 926.65078,870.75502 C 908.87427,884.43657 899.99998,900.95238 899.99998,920.3544 C 899.99993,930.80191 903.1053,941.11759 909.28389,951.23265 C 915.43733,961.30747 925.70593,972.44065 940.13786,984.65342 C 940.19682,984.7033 940.2635,984.74211 940.32262,984.79199 L 950.71506,992.55773 C 950.73321,992.54693 950.74305,992.52245 950.76123,992.51164 C 953.57784,994.49709 956.6082,996.59388 959.86038,998.7519 C 945.06234,1005.3637 933.07933,1013.0277 924.01804,1021.7259 C 909.75688,1035.4156 901.75855,1049.7164 899.99998,1064.715 C 898.26192,1079.5488 902.75785,1094.3841 913.44085,1109.1834 C 928.67722,1129.9653 958.56854,1154.7885 1003.1852,1183.6517 C 1026.7042,1198.9606 1043.0663,1212.9284 1052.3298,1225.5776 C 1057.8882,1233.1665 1060.0789,1242.2091 1058.8426,1252.7582 C 1057.4323,1264.79 1050.2639,1274.4437 1037.3648,1281.6024 C 1024.4663,1288.7609 1009.4136,1291.4018 992.19237,1289.5995 C 980.16088,1288.3395 970.98378,1285.1506 964.66399,1279.9846 C 958.34421,1274.8178 955.60483,1268.853 956.39624,1262.0956 C 956.78324,1258.7989 957.77474,1255.3156 959.3985,1251.6486 C 962.02,1245.5825 963.49671,1241.3167 963.7864,1238.8444 C 964.38531,1233.7347 962.25069,1229.0336 957.50477,1224.6996 C 952.75954,1220.3652 946.40423,1217.773 938.38271,1216.9337 C 930.36252,1216.0936 923.91777,1217.131 919.02967,1220.1232 C 912.31666,1224.4254 908.60605,1229.7813 907.85204,1236.2095 C 906.19128,1250.3841 913.11021,1263.9396 928.68307,1276.7488 C 944.25671,1289.5574 964.99494,1297.283 990.94529,1300 L 990.99147,1300 C 1019.3008,1302.9633 1043.9085,1298.6291 1064.8469,1287.0569 C 1085.7853,1275.4836 1097.413,1260.1163 1099.6732,1240.8321 C 1100.8901,1230.448 1098.7059,1219.8328 1093.1606,1209.0756 C 1087.638,1198.3608 1077.7438,1186.1093 1063.4615,1172.3266 C 1063.403,1172.2703 1063.3351,1172.2444 1063.2766,1172.188 L 1052.8841,1163.2665 C 1052.8631,1163.2753 1052.859,1163.304 1052.838,1163.3128 C 1049.1088,1160.2934 1044.8363,1157.0077 1040.3209,1153.6057 C 1059.0738,1143.607 1073.2464,1132.3665 1082.7682,1119.8615 C 1094.2578,1104.7709 1099.9958,1089.6977 1099.9964,1074.607 C 1099.9958,1059.6826 1094.318,1045.4007 1083.0455,1031.8028 C 1074.5317,1021.6828 1062.121,1010.8727 1045.8635,999.35277 C 1057.9157,993.40669 1067.8585,986.64994 1075.6553,979.15246 C 1089.8905,965.46278 1097.8717,951.16207 1099.6269,936.16332 C 1101.3617,921.32936 1096.8959,906.49429 1086.2322,891.69491 C 1071.0238,870.91281 1041.1623,846.08981 996.62648,817.22652 C 973.15013,801.91789 956.82102,787.94987 947.57422,775.30047 C 942.02591,767.71168 939.82744,758.66921 941.06164,748.1202 C 942.46923,736.08851 949.61751,726.43456 962.49313,719.27583 C 975.36813,712.11749 990.42937,709.47652 1007.6194,711.27891 C 1019.6291,712.53889 1028.7472,715.7277 1035.0553,720.89371 C 1041.3637,726.06054 1044.113,732.02527 1043.3232,738.78276 C 1042.937,742.07935 1041.988,745.5628 1040.3671,749.22959 C 1037.7504,755.29575 1036.2684,759.56175 1035.9793,762.03391 C 1035.3813,767.14362 1037.4773,771.84467 1042.2148,776.17875 C 1046.9511,780.51321 1053.2835,783.10519 1061.2905,783.94454 C 1069.2962,784.78459 1075.7643,783.74737 1080.6435,780.75504 C 1087.3443,776.4528 1091.0223,771.09696 1091.775,764.66873 C 1093.4324,750.49434 1086.5347,736.93873 1070.9902,724.12944 C 1055.4448,711.32091 1034.7237,703.5954 1008.8203,700.8783 C 1003.5219,700.32269 998.3423,700.04463 993.3009,700.00001 z M 979.44435,861.74116 C 983.09422,864.31237 986.86252,866.95542 990.85291,869.69186 C 1021.0505,890.71134 1040.6488,907.55535 1049.651,920.26197 C 1058.6526,932.96852 1062.5438,944.67984 1061.2905,955.3929 C 1059.6713,969.2317 1050.2521,981.01485 1033.1616,990.75512 C 1021.5612,983.17768 1008.4386,975.28366 993.67042,967.134 C 970.69103,954.36567 954.32736,942.17868 944.57198,930.57013 C 938.71864,923.60583 935.7961,914.83543 935.79612,904.22192 C 935.79611,892.11663 941.29126,881.801 952.23926,873.34363 C 960.06642,867.29714 969.1233,863.45884 979.44435,861.74116 z M 972.60843,1006.9338 C 979.12212,1011.0138 986.18057,1015.285 993.99374,1019.8769 C 1023.6934,1037.6207 1043.3451,1052.3304 1052.8841,1064.0217 C 1062.4225,1075.7125 1067.1565,1086.9409 1067.1565,1097.7195 C 1067.1564,1115.9037 1054.75,1131.9966 1030.0208,1145.9786 C 1023.5944,1141.3275 1016.6461,1136.4487 1008.9588,1131.1863 C 978.70633,1110.1669 959.08693,1093.3228 950.06839,1080.6161 C 941.05054,1067.9099 937.1732,1056.1986 938.4289,1045.4854 C 940.2317,1030.1038 951.66167,1017.2511 972.60843,1006.9338 z "
       id="flowRoot1916" />
  </g>
</svg>
