<?xml version="1.0" encoding="UTF-8" standalone="no"?>
<!-- Created with Inkscape (http://www.inkscape.org/) -->
<svg
   xmlns:svg="http://www.w3.org/2000/svg"
   xmlns="http://www.w3.org/2000/svg"
   version="1.0"
   width="2000"
   height="2000"
   id="svg2">
  <defs
     id="defs4" />
  <g
     id="layer1">
    <path
       d="M 884.85683,1016.2995 C 884.87225,1000.5814 888.42816,980.32638 894.27786,962.63565 C 907.22065,923.49411 933.13145,895.47212 966.48348,884.5468 C 985.75505,878.23391 1011.2761,877.93688 1030.683,883.79961 C 1076.5993,897.67065 1107.3263,941.70583 1113.3539,1002.2758 C 1113.9474,1008.2405 1114.44,1015.412 1114.4484,1018.2123 L 1114.4638,1023.3038 L 1111.2851,1023.0738 C 1108.3881,1022.8642 1108.0311,1022.6119 1107.2566,1020.2261 C 1106.7892,1018.7863 1105.329,1011.2136 1104.0117,1003.3977 C 1101.4193,988.0171 1098.5704,977.96548 1094.4723,969.74096 C 1084.9275,950.58548 1068.4741,934.60012 1048.2722,924.85522 C 1039.4054,920.57807 1031.7726,917.97267 1021.7208,915.79199 C 1013.7268,914.05775 990.5485,913.8362 982.45459,915.41666 C 952.72202,921.2224 929.79335,935.09003 913.65753,957.0262 C 904.63853,969.28727 901.1445,977.90272 898.21979,995.0919 C 895.86265,1008.9454 893.52599,1019.4859 892.30722,1021.7632 C 891.71456,1022.8706 890.7317,1023.2178 888.1894,1023.2178 L 884.85004,1023.2178 L 884.85683,1016.2995 z M 992.73983,1014.2129 C 986.47948,1011.0189 983.17141,1005.1998 983.7828,998.45727 C 984.68241,988.53624 994.27453,981.76854 1003.8006,984.33371 C 1008.3197,985.55051 1013.7645,990.99535 1014.9813,995.5144 C 1016.7369,1002.0341 1013.93,1009.2785 1008.1718,1013.0891 C 1003.7538,1016.0128 997.20281,1016.4899 992.73983,1014.2129 z "
       style="fill:black"
       id="path1933" />
  </g>
</svg>
