<?xml version="1.0" encoding="UTF-8" standalone="no"?>
<!-- Created with Inkscape (http://www.inkscape.org/) -->
<svg
   xmlns:svg="http://www.w3.org/2000/svg"
   xmlns="http://www.w3.org/2000/svg"
   version="1.0"
   width="2000"
   height="2000"
   id="svg2">
  <defs
     id="defs4" />
  <g
     id="layer1">
    <path
       d="M 993.862,871.35186 L 993.73924,902.86836 C 973.3397,905.90693 954.25125,917.06088 940.76871,932.36471 C 923.86944,951.54674 919.15824,978.13893 919.18039,1003.2724 C 919.20431,1030.4207 925.75555,1060.3046 946.90589,1078.5104 C 959.93394,1089.7246 976.76071,1098.2542 994.0246,1099.8341 L 993.80362,1132.2486 L 1007.773,1132.1568 L 1008.1614,1099.8341 C 1047.5958,1097.4662 1067.4342,1077.8765 1079.0597,1040.9045 C 1081.2882,1032.2387 1071.3092,1030.8516 1069.8112,1036.9891 C 1059.1418,1066.1886 1041.1447,1090.0464 1008.2479,1088.4229 L 1008.1614,913.12028 C 1026.7157,910.8837 1045.0175,920.2419 1056.7847,934.23657 C 1047.3326,934.15224 1037.4771,936.99486 1031.3916,944.85904 C 1021.4548,957.7001 1024.3105,978.99094 1038.9754,987.4022 C 1052.1132,994.9375 1070.3766,989.61882 1075.6885,975.49523 C 1082.9439,956.20357 1072.7394,940.78563 1066.4319,931.62955 C 1051.2448,909.5843 1023.2876,901.30406 1008.1614,902.327 L 1008.0737,871.2324 L 993.862,871.35186 z M 994.636,915.79685 L 993.93335,1086.8809 C 984.44743,1084.0144 979.0063,1077.832 976.76394,1073.3072 C 966.84103,1053.2845 967.98136,1027.6773 968.25218,1006.0392 C 968.53857,983.15691 968.24639,964.62917 972.95379,942.05906 C 975.22347,931.17692 983.72026,919.56153 994.636,915.79685 z "
       style="fill:black"
       id="path1980" />
  </g>
</svg>
