<?xml version="1.0" encoding="UTF-8" standalone="no"?>
<!-- Created with Inkscape (http://www.inkscape.org/) -->
<svg
   xmlns:svg="http://www.w3.org/2000/svg"
   xmlns="http://www.w3.org/2000/svg"
   version="1.0"
   width="2000"
   height="2000"
   id="svg2">
  <defs
     id="defs4" />
  <g
     id="layer1">
    <path
       d="M 951.25164,1099.2563 C 951.26351,1096.595 952.53751,1091.7818 954.24551,1090.1862 C 955.28213,1089.2177 958.22685,1087.6437 960.78933,1086.6882 C 966.06183,1084.7223 969.16477,1081.8802 971.36307,1077.0033 C 972.75836,1073.9079 972.89086,1069.5874 973.11642,1019.8291 C 973.35021,968.2534 973.07476,951.4735 972.55791,952.18478 C 972.26782,952.58399 964.17015,957.44919 957.84277,964.86726 C 951.68312,972.08869 949.57222,974.32513 948.17695,975.40004 C 945.56407,977.41297 943.65134,978.10074 939.79071,976.97951 C 935.51149,973.70927 941.25951,967.2228 944.68131,961.13607 C 954.74679,942.78944 968.79227,919.774 981.01173,900.23811 C 986.1636,900.19461 996.9854,901.24206 1005.5938,901.16329 C 1017.2025,901.0604 1027.7029,900 1027.7029,900 L 1027.6963,917.34755 C 1027.6611,1008.6829 1028.312,1072.2495 1029.3137,1075.3193 C 1030.852,1080.0336 1034.7081,1083.2669 1042.6345,1086.4884 C 1049.9679,1089.4689 1051.2858,1090.8732 1052.419,1096.9136 L 1053.0025,1100.0238 L 1001.8457,1100.0238 C 961.476,1100.0238 951.24795,1100.082 951.25164,1099.2563 z "
       style="fill:black"
       id="path1933" />
  </g>
</svg>
