<?xml version="1.0" encoding="UTF-8" standalone="no"?>
<!-- Created with Inkscape (http://www.inkscape.org/) -->
<svg
   xmlns:svg="http://www.w3.org/2000/svg"
   xmlns="http://www.w3.org/2000/svg"
   version="1.0"
   width="2000"
   height="2000"
   id="svg2"
   score:ascent="176"
   score:baseline="944"
   score:leftborder="930"
   score:rightborder="1043">
  <defs
     id="defs4" />
  <g
     id="layer1">
    <path
       d="M 977.76549,1064.8772 C 964.07794,1062.6167 951.43177,1050.3791 951.21386,1035.6857 C 951.09786,1027.8637 954.83843,1018 963.463,1016.8613 C 971.88481,1015.7493 981.68582,1024.4509 978.84066,1032.7562 C 977.12009,1037.7787 967.98882,1040.447 970.3774,1046.8446 C 975.179,1054.3929 985.58071,1054.6278 993.3878,1052.5959 C 1002.8981,1050.3095 1013.0282,1043.4057 1013.6584,1032.789 C 1014.5864,1022.8351 1006.6855,1015.1416 999.35174,1009.6441 C 990.29311,1002.8537 979.84083,997.50384 973.79493,987.68144 C 969.63102,980.91654 969.76941,972.82904 971.94803,965.43883 C 977.33916,947.1513 996.8949,935.15767 1015.9734,936.43574 C 1028.2095,937.25543 1042.3924,942.27195 1046.6115,954.65992 C 1048.8375,961.19601 1049.2838,969.78714 1044.3426,975.10794 C 1038.5473,981.34834 1025.6604,979.93344 1022.3263,971.92874 C 1019.4999,965.14275 1028.8896,958.99334 1024.6561,951.56775 C 1020.5804,944.4186 1010.9104,946.60531 1005.2691,950.46216 C 998.03763,955.40613 993.13637,966.44174 999.12772,973.81944 C 1006.1931,982.51964 1017.2509,986.35494 1025.899,993.23774 C 1033.5792,999.35024 1040.0494,1007.8902 1040.3136,1018.2124 C 1040.7854,1036.6431 1028.2828,1053.1186 1012.0646,1060.5158 C 1001.2616,1065.4431 989.24555,1066.7732 977.76549,1064.8772 z"
       id="path1933"
       style="fill:#000000" />
  </g>
</svg>
