<?xml version="1.0" encoding="UTF-8" standalone="no"?>
<!-- Created with Inkscape (http://www.inkscape.org/) -->
<svg
   xmlns:svg="http://www.w3.org/2000/svg"
   xmlns="http://www.w3.org/2000/svg"
   version="1.0"
   width="2000"
   height="2000"
   id="svg2">
  <defs
     id="defs4" />
  <g
     id="layer1">
    <path
       d="M 994.77234,922.96875 C 978.60174,922.96876 965.49104,936.07949 965.49104,952.25 C 965.49114,968.42053 978.60184,981.5625 994.77234,981.5625 C 1003.4827,981.43663 1011.9876,980.4998 1020.5848,978.875 C 1033.2259,976.37553 1049.6561,964.14755 1043.5848,977.90625 C 1042.7882,979.71133 1034.4875,1007.1487 1023.366,1038.5 C 1023.22,1038.9116 1023.1349,1039.1881 1022.991,1039.5938 C 1021.5906,1041.1934 1020.0389,1043.1013 1018.3348,1045.4063 C 1005.8048,1062.354 994.57104,1063.2339 990.11604,1048.0625 C 989.63394,1044.474 988.49524,1041.0867 986.83484,1038.0313 C 986.79494,1037.958 986.75024,1037.8854 986.70984,1037.8125 C 986.53094,1037.464 986.33754,1037.1186 986.14734,1036.7813 C 981.49384,1028.5305 973.49234,1023.6162 965.11604,1022.9688 C 963.80034,1022.7878 962.44994,1022.6875 961.08484,1022.6875 C 944.91424,1022.6875 931.80354,1035.7982 931.80354,1051.9688 C 931.80354,1068.1393 944.91434,1081.2813 961.08484,1081.2813 C 969.79534,1081.1554 978.30024,1080.2185 986.89734,1078.5938 C 997.95824,1076.4067 1011.8969,1066.7824 1011.1473,1073.625 C 1011.1453,1073.6434 1011.1495,1073.6689 1011.1473,1073.6875 C 1010.6966,1075.0732 1010.2735,1076.4104 1009.8973,1077.625 C 1009.8628,1077.7364 1009.8062,1077.8275 1009.7723,1077.9375 C 1008.6795,1080.7716 1000.5611,1107.5409 989.67854,1138.2188 C 969.91844,1193.9213 969.67404,1195.2256 979.45984,1195.2188 C 984.71454,1195.2152 989.41214,1196.957 992.14734,1188.9688 C 996.07674,1177.4929 1002.8919,1152.6765 1012.7723,1117.5938 C 1026.2947,1077.5315 1047.4067,1014.0541 1059.5848,971.8125 C 1070.6357,933.47974 1067.9296,924.17177 1052.0223,945.6875 C 1039.4922,962.63523 1028.2585,963.51522 1023.8035,948.34375 C 1023.3214,944.75526 1022.1827,941.36794 1020.5223,938.3125 C 1020.4824,938.23922 1020.4377,938.16667 1020.3973,938.09375 C 1020.2184,937.74528 1020.025,937.39989 1019.8348,937.0625 C 1015.1813,928.81165 1007.1798,923.89736 998.80354,923.25 C 997.48794,923.06899 996.13744,922.96875 994.77234,922.96875 z "
       style="fill:#000000"
       id="path2167" />
  </g>
</svg>
