<?xml version="1.0" encoding="UTF-8" standalone="no"?>
<!-- Created with Inkscape (http://www.inkscape.org/) -->
<svg
   xmlns:svg="http://www.w3.org/2000/svg"
   xmlns="http://www.w3.org/2000/svg"
   version="1.0"
   width="2000"
   height="2000"
   id="svg2">
  <defs
     id="defs4" />
  <g
     id="layer1" />
  <path
     d="M 927.71821,950.00382 C 924.42857,950.10955 921.4513,952.35463 920.51038,955.77217 L 920.29384,956.59622 C 919.13577,960.80245 921.50176,965.13556 925.61463,966.29465 C 925.61463,966.29465 1039.9058,996.89652 1039.9058,999.9856 C 1039.9058,1003.0747 925.61463,1033.7084 925.61463,1033.7084 C 921.50176,1034.8674 919.13577,1039.1689 920.29384,1043.3751 L 920.51038,1044.1992 C 921.66842,1048.4053 925.89448,1050.873 930.00739,1049.714 L 1074.3496,1009.0186 C 1078.2564,1007.9176 1080.6236,1003.9842 1079.856,999.9856 C 1080.6062,995.99739 1078.2466,992.05101 1074.3496,990.95275 L 930.00739,950.28907 C 929.23622,950.07174 928.47735,949.97943 927.71821,950.00382 z "
     style="fill:black;fill-opacity:1;stroke:none;stroke-width:6;stroke-miterlimit:4;stroke-dasharray:none"
     id="rect4627" />
</svg>
