<?xml version="1.0" encoding="UTF-8" standalone="no"?>
<!-- Created with Inkscape (http://www.inkscape.org/) -->
<svg
   xmlns:svg="http://www.w3.org/2000/svg"
   xmlns="http://www.w3.org/2000/svg"
   version="1.0"
   width="2000"
   height="2000"
   id="svg2089">
  <defs
     id="defs2091" />
  <g
     id="layer1">
    <path
       d="M 984.08687,1099.5581 C 973.4119,1098.1218 962.0041,1094.723 953.08711,1090.3219 C 945.84955,1086.7498 943.29465,1084.9331 937.71225,1079.3897 C 926.95828,1068.7107 922.85298,1058.1983 923.51373,1043.0316 C 924.07358,1030.1809 928.15006,1020.5149 936.52037,1012.1905 C 940.51108,1008.2218 947.84477,1003.5814 952.46711,1002.1005 C 954.17209,1001.5541 955.5597,1000.857 955.55069,1000.5512 C 955.54166,1000.2455 953.65385,998.87934 951.35554,997.51534 C 930.18911,984.95358 921.92277,953.83812 933.46842,930.18621 C 939.51542,917.79862 954.36589,906.99921 971.92672,902.21905 C 979.4942,900.15909 981.04169,900.0322 998.96675,900.0017 C 1014.5424,899.97524 1019.2502,900.24804 1025.0066,901.51059 C 1050.7605,907.15934 1066.6499,919.05845 1070.9535,935.91877 C 1072.8567,943.37508 1072.2262,956.56362 1069.5923,964.3873 C 1066.3318,974.07262 1058.6525,984.51966 1049.1313,992.22282 L 1045.563,995.10968 L 1051.6112,998.36755 C 1059.4999,1002.6166 1069.3761,1012.2997 1072.4012,1018.7507 C 1077.2533,1029.0979 1078.3741,1043.9516 1075.0892,1054.3729 C 1068.6478,1074.808 1049.3788,1090.9591 1023.3949,1097.7024 C 1017.057,1099.3472 1012.973,1099.809 1002.6867,1100.044 C 995.63945,1100.2049 987.26951,1099.9862 984.08687,1099.5581 z M 1010.4676,1083.4888 C 1027.422,1079.8971 1037.4917,1070.7171 1037.5605,1058.79 C 1037.6439,1044.3514 1023.9985,1034.6065 990.0621,1017.1957 C 973.21906,1008.5545 977.8262,1009.3866 966.75252,1015.3731 C 961.81526,1018.0422 957.42631,1022.2116 953.60263,1030.1685 C 949.75327,1039.23 948.41897,1050.2241 953.0237,1060.3416 C 957.18107,1070.7619 970.21273,1080.4208 984.08687,1083.3652 C 991.60192,1084.96 1003.2647,1085.0148 1010.4676,1083.4888 z M 1023.5767,978.80145 C 1028.2029,976.44133 1036.5435,967.86299 1038.8885,963.05332 C 1041.1129,958.49081 1043.1637,949.44938 1043.1658,944.1957 C 1043.1678,938.79835 1041.3023,931.70643 1038.7222,927.30389 C 1033.1466,917.78986 1018.3506,911.93892 999.94605,911.97033 C 975.52084,912.012 964.50301,920.21342 964.84274,938.72247 C 965.14089,954.96629 980.65157,967.89061 1009.3,977.78556 C 1018.6873,981.0279 1019.1482,981.06063 1023.5767,978.80145 z "
       style="fill:black"
       id="path2146" />
  </g>
</svg>
