<?xml version="1.0" encoding="UTF-8" standalone="no"?>
<!-- Created with Inkscape (http://www.inkscape.org/) -->
<svg
   xmlns:svg="http://www.w3.org/2000/svg"
   xmlns="http://www.w3.org/2000/svg"
   version="1.0"
   width="2000"
   height="2000"
   id="svg1953">
  <defs
     id="defs1955" />
  <g
     id="layer1">
    <path
       d="M 1021.8858,1099.9184 C 1017.7439,1099.2359 1011.6979,1099.0167 986.55735,1091.236 C 973.41527,1087.1687 963.79747,1088.3448 951.31085,1093.3117 C 938.61736,1098.3609 937.21693,1098.8444 934.10368,1098.8313 C 931.69873,1098.8213 929.53441,1099.2301 928.87123,1097.9091 C 928.84256,1084.2927 935.34477,1067.467 941.68554,1056.5588 C 946.81268,1047.9695 950.98228,1042.0836 955.6352,1036.8676 C 961.88665,1029.8596 965.54479,1026.6137 988.48435,1007.7195 C 999.7666,998.4268 1010.2575,987.03477 1012.8384,981.27355 C 1017.5892,970.66859 1017.2928,950.6874 1012.2064,938.64429 C 1006.8379,925.93394 997.24387,919.80109 984.12858,919.38678 C 973.07167,919.03749 965.95583,921.54118 959.51848,929.33921 C 966.45559,936.0368 974.44318,942.23775 978.23374,951.86747 C 980.48681,960.37237 979.05309,967.25651 973.64812,973.88615 C 967.54546,981.3715 959.77992,984.82641 950.23626,984.04613 C 938.66403,983.1 931.08373,975.74797 930.42321,960.23063 C 929.01666,927.1867 949.2568,905.37226 985.51411,900.85466 C 999.8441,899.06916 1017.6019,900.50941 1027.3603,904.24861 C 1049.6839,912.80232 1062.1476,928.56057 1065.4685,952.42966 C 1067.052,963.81101 1063.5691,977.87151 1057.0638,986.35934 C 1052.9066,991.78355 1044.2435,1006.3498 1015.2246,1020.5429 C 989.97584,1032.892 974.1274,1043.2752 962.28306,1059.7598 C 980.43579,1055.0047 995.27103,1052.8327 1013.1726,1061.4147 C 1026.8014,1067.9163 1054.1949,1062.7608 1059.6275,1050.8392 C 1065.3891,1038.1955 1065.7596,1038.6237 1070.0171,1033.669 L 1069.5699,1040.1448 C 1067.5144,1069.9138 1059.1521,1085.7828 1046.6411,1094.6363 C 1040.3148,1099.1133 1030.1554,1101.2811 1021.8858,1099.9184 z "
       style="fill:black"
       id="path2010" />
  </g>
</svg>
