<?xml version="1.0" encoding="UTF-8" standalone="no"?>
<!-- Created with Inkscape (http://www.inkscape.org/) -->
<svg
   xmlns:svg="http://www.w3.org/2000/svg"
   xmlns="http://www.w3.org/2000/svg"
   version="1.0"
   width="2000"
   height="2000"
   id="svg2"
   score:baseline="944"
   score:ascent="176"
   score:leftborder="942"
   score:rightborder="1085">
  <defs
     id="defs4" />
  <g
     id="layer1">
    <path
       d="M 908.99977,1149.9588 C 892.70542,1147.6638 875.3262,1135.3442 875.98253,1117.0399 C 876.49845,1102.6515 882.11005,1084.7091 899.76469,1082.5639 C 917.41933,1080.4186 930.82787,1102.4128 915.77106,1112.1928 C 904.81316,1118.7635 895.073,1134.9153 913.81492,1132.8155 C 933.22327,1129.8147 940.56393,1117.3242 944.41535,1102.9739 C 957.47275,1054.3227 969.81432,1005.4529 981.81559,956.526 C 971.18367,954.04735 947.42497,961.10229 951.43165,942.41169 C 954.54313,935.19908 962.78554,938.45469 968.85944,937.51894 C 974.91105,937.37809 980.96266,937.23725 987.01425,937.09641 C 1000.2431,900.32943 1026.7426,865.45216 1064.652,852.20627 C 1084.5552,845.46769 1111.1379,847.47195 1123.3124,866.81553 C 1130.1066,880.5053 1127.1102,898.65938 1117.6072,910.4414 C 1107.5128,922.45164 1087.1972,915.58854 1083.2542,900.30608 C 1079.2001,884.59333 1109.9465,879.21431 1097.9345,867.61634 C 1087.7296,857.76327 1067.1423,869.69503 1060.9142,882.79732 C 1053.0424,899.35784 1046.8399,918.15397 1042.9852,935.93583 C 1048.6554,936.86764 1059.4244,937.58931 1067.239,937.46288 C 1075.6812,937.68013 1079.4307,945.4901 1075.1556,951.97238 C 1067.9199,959.15321 1057.8832,956.63544 1048.379,956.41809 C 1041.1534,956.10589 1043.1983,956.21423 1038.3001,955.90831 C 1027.4868,990.30587 1019.4585,1030.3751 1003.9793,1063.0242 C 989.04823,1094.5172 971.11322,1126.8576 939.57884,1144.2328 C 930.25425,1149.2085 919.54195,1151.4436 908.99977,1149.9588 z"
       id="path1933"
       style="fill:#000000" />
  </g>
</svg>
