<?xml version="1.0" encoding="UTF-8" standalone="no"?>
<!-- Created with Inkscape (http://www.inkscape.org/) -->
<svg
   xmlns:svg="http://www.w3.org/2000/svg"
   xmlns="http://www.w3.org/2000/svg"
   version="1.0"
   width="2000"
   height="2000"
   id="svg1954"
   score:ascent="176"
   score:baseline="944"
   score:leftborder="930"
   score:rightborder="1090">
  <defs
     id="defs1956" />
  <g
     id="layer1">
    <path
       d="M 1037.8209,1065.317 C 1026.906,1061.7433 1029.9029,1048.5457 1032.3395,1040.2135 C 1037.3437,1018.5318 1043.0246,996.976 1047.1169,975.0999 C 1049.2887,963.49048 1036.2969,965.74281 1030.6333,971.6098 C 1024.5289,977.9333 1023.6394,986.8836 1020.5158,994.5945 C 1013.8076,1016.2268 1008.0461,1038.1414 1001.3885,1059.785 C 996.79781,1068.8994 984.94434,1065.1991 976.76629,1066.1592 C 964.91173,1067.1355 970.48672,1053.8214 972.36257,1047.3309 C 979.44155,1022.4138 987.34124,997.6713 992.86966,972.3562 C 991.03595,960.22554 975.95382,968.6421 972.28646,975.4116 C 966.46896,987.1347 963.31074,1000.0307 958.65819,1012.2576 C 953.02104,1027.9633 948.14131,1043.9672 942.0785,1059.5015 C 937.64239,1068.2249 926.31426,1065.8899 918.29871,1066.0686 C 904.72323,1066.362 911.40682,1054.6709 913.79422,1048.0408 C 921.35788,1023.9081 930.52358,1000.2591 937.08555,975.8266 C 940.86713,963.22333 925.19161,965.53557 919.84156,972.8399 C 911.92773,983.6446 908.03585,996.8598 900.70844,1007.7484 C 895.496,1015.4941 886.48306,1008.7268 890.41339,1000.0706 C 900.69842,977.4189 913.60761,953.41457 936.5415,941.71382 C 945.92193,937.22965 960.19302,935.40194 966.80347,945.34287 C 970.10278,949.14403 970.02069,960.02702 976.11599,951.91541 C 985.72743,943.20747 999.38131,934.63267 1012.7417,939.34921 C 1020.2184,941.43454 1022.6435,951.84229 1025.5496,955.99024 C 1035.2426,946.70097 1046.9802,937.12524 1061.302,938.28087 C 1074.8245,940.01198 1084.6388,954.02879 1084.5283,967.1736 C 1080.7148,991.2538 1073.8445,1014.7431 1068.8807,1038.5864 C 1067.0647,1047.3095 1083.3107,1035.2511 1087.8306,1031.3544 C 1091.6785,1028.037 1104.7014,1021.2702 1101.4202,1031.9278 C 1094.5,1041.2751 1084.528,1047.9406 1075.2146,1054.7178 C 1064.2654,1061.3292 1051.0063,1068.6047 1037.8209,1065.317 z"
       id="path2038"
       style="fill:#000000" />
  </g>
</svg>
