<?xml version="1.0" encoding="UTF-8" standalone="no"?>
<!-- Created with Inkscape (http://www.inkscape.org/) -->
<svg
   xmlns:svg="http://www.w3.org/2000/svg"
   xmlns="http://www.w3.org/2000/svg"
   version="1.0"
   width="2000"
   height="2000"
   id="svg2">
  <defs
     id="defs4" />
  <g
     id="layer1">
    <path
       d="M 1076.7843,1230.3053 C 1081.5661,1217.8468 1082.4301,1210.1918 1082.174,1198.4261 C 1081.7339,1177.3443 1074.6822,1160.3604 1069.0855,1151.2267 C 1056.9022,1131.3439 1034.7816,1113.5051 1015.5655,1104.5524 C 1003.3489,1098.8607 1000,1100.0254 1000,1100.0254 L 1000,1057.8414 L 1000,1000 L 1004.4667,1000.0158 L 1012.8086,1021.5263 C 1020.6063,1038.3977 1032.1573,1056.9968 1037.8762,1066.3464 C 1040.7948,1071.1182 1051.7073,1084.6948 1061.8568,1094.7181 C 1074.631,1107.3334 1089.7977,1130.0599 1095.1887,1150.8205 C 1100.542,1171.4363 1100.9981,1191.1083 1098.6358,1209.6231 C 1096.8139,1223.9025 1090.5681,1235.8843 1084.7235,1244.3033 C 1078.8463,1252.7692 1070.1346,1264.739 1065.7356,1262.1192 C 1060.261,1258.8588 1070.2152,1247.4207 1076.7843,1230.3053 z "
       style="fill:black"
       id="path2040" />
  </g>
</svg>
