<?xml version="1.0" encoding="UTF-8" standalone="no"?>
<!-- Created with Inkscape (http://www.inkscape.org/) -->
<svg
   xmlns:svg="http://www.w3.org/2000/svg"
   xmlns="http://www.w3.org/2000/svg"
   version="1.0"
   width="2000"
   height="2000"
   id="svg2">
  <defs
     id="defs4" />
  <g
     id="layer1">
    <path
       d="M 880,950 L 880,1050 L 895,1050 L 895,950 L 880,950 z M 905,950 L 905,1050 L 920,1050 L 920,950 L 905,950 z M 1080,950 L 1080,1050 L 1095,1050 L 1095,950 L 1080,950 z M 1105,950 L 1105,1050 L 1120,1050 L 1120,950 L 1105,950 z M 998.59375,950.03125 C 992.75946,950.08373 987.03603,950.56948 981.5625,951.5 C 956.455,955.76834 942.59741,961.99141 930.875,974.28125 C 925.4936,979.92322 923.20627,983.84589 921.53125,990.375 C 920.14345,995.78477 920.20067,1005.1355 921.65625,1010.5313 C 923.71725,1018.1712 926.40061,1022.308 933.4375,1028.7188 C 944.7335,1039.0098 962.14931,1046.1474 983.125,1049.0625 C 993.2588,1050.4709 1010.7688,1050.2314 1020.4688,1048.5625 C 1037.242,1045.6765 1052.1644,1039.8734 1061.7813,1032.4688 C 1066.1176,1029.13 1071.3686,1023.5761 1073.875,1019.6875 C 1082.8692,1005.7338 1080.8049,985.60337 1069.2188,974.34375 C 1060.5866,965.95487 1050.1611,959.9239 1037.375,955.875 C 1024.8215,951.8998 1011.4292,949.91579 998.59375,950.03125 z M 992.96875,957.78125 C 995.69272,957.70706 998.34626,958.26846 1001.75,959.53125 C 1012.3977,963.48162 1022.5503,974.61647 1027.375,987.625 C 1032.7657,1002.1589 1033.0213,1016.9593 1028.0625,1027.8125 C 1025.0488,1034.4082 1020.8234,1038.013 1013.3438,1040.4063 C 1003.4046,1043.5866 993.54707,1040.4629 984.40625,1031.2188 C 975.86695,1022.583 970.43586,1011.5407 968.53125,998.875 C 965.44965,978.38193 973.05126,962.46081 987.78125,958.59375 C 989.65865,958.10087 991.33437,957.82577 992.96875,957.78125 z "
       style="fill:black"
       id="path2833" />
  </g>
</svg>
