<?xml version="1.0" encoding="UTF-8" standalone="no"?>
<!-- Created with Inkscape (http://www.inkscape.org/) -->
<svg
   xmlns:svg="http://www.w3.org/2000/svg"
   xmlns="http://www.w3.org/2000/svg"
   version="1.0"
   width="2000"
   height="2000"
   id="svg2">
  <defs
     id="defs4" />
  <g
     id="layer1">
    <path
       d="M 951.35026,1101.4659 C 945.20602,1094.1141 955.16002,1079.0419 966.33027,1072.6993 C 980.05959,1064.9037 997.02485,1054.8956 1006.1962,1042.1676 C 1013.1156,1032.5647 1004.2266,1018.4066 996.17113,1007.0999 C 987.31363,994.66751 970.57834,982.99276 972.24882,967.14278 C 974.78394,943.08876 986.79511,920.85689 996.60915,898.6296 C 964.88205,901.51433 936.61696,921.27025 924.54961,952.32349 C 919.47813,965.37407 924.13912,982.15865 939.73529,980.17671 C 954.94718,978.24361 954.3612,950.64376 960.80637,952.8675 C 969.08918,955.72526 958.58122,985.62636 948.57805,996.42912 C 936.86578,1009.0776 919.8673,1012.7906 909.18204,1000.1278 C 894.85886,983.15375 900.49744,957.79528 911.1496,940.60608 C 935.11474,901.93396 985.13577,883.40321 1028.8145,892.7082 C 1057.683,898.8581 1082.5006,926.33446 1080.149,957.24965 C 1079.0064,972.27085 1065.5186,984.87795 1048.311,978.09825 C 1034.0962,972.49769 1015.5843,946.22746 1021.5927,940.49242 C 1025.2866,936.96652 1047.1906,966.85642 1056.7392,949.76518 C 1070.6233,924.91361 1030.1038,897.97345 1005.586,899.12573 C 998.64052,913.9733 990.04142,934.12441 986.89601,947.5353 C 983.70052,961.15968 1015.6974,994.10024 1027.3219,1010.9923 C 1036.004,1023.6086 1023.3105,1038.5458 1008.5656,1056.7734 C 1025.4204,1061.1253 1043.1241,1079.2122 1047.5785,1078.7351 C 1053.6682,1078.083 1062.3603,1070.8619 1074.1766,1060.6936 C 1092.3546,1045.0508 1096.6068,1058.4811 1079.8487,1070.7335 C 1038.1792,1101.1992 1033.9068,1119.1935 1020.9167,1095.75 C 1016.8116,1087.1673 1017.822,1078.7196 1000.6161,1065.5416 C 985.6311,1086.3319 958.46442,1109.9781 951.35026,1101.4659 z "
       style="fill:black"
       id="path1933" />
  </g>
</svg>
