<?xml version="1.0" encoding="UTF-8" standalone="no"?>
<!-- Created with Inkscape (http://www.inkscape.org/) -->
<svg
   xmlns:svg="http://www.w3.org/2000/svg"
   xmlns="http://www.w3.org/2000/svg"
   version="1.0"
   width="2000"
   height="2000"
   id="svg2">
  <defs
     id="defs4" />
  <g
     id="layer1">
    <path
       d="M 999.7231,1074.8795 C 993.79498,1074.3531 985.69187,1072.1612 985.23293,1065.999 C 984.21589,1052.3429 998.97532,1040.6618 993.15404,1026.822 C 990.70172,1022.2072 987.8631,1023.0813 985.76204,1023.6086 C 982.43748,1024.443 981.25266,1027.4838 974.01184,1041.5444 C 965.74184,1057.6036 963.49322,1060.4049 958.87242,1060.4049 C 954.92583,1060.4049 951.54154,1058.9069 947.89585,1055.5464 C 940.30674,1048.551 939.03988,1040.67 944.73426,1035.8785 C 955.41209,1028.955 967.93103,1025.4214 975.89215,1015.1082 C 977.40122,1013.2687 978.37735,1008.8505 973.8137,1008.3011 C 957.3654,1006.3207 944.53642,1018.2383 931.91317,1014.7192 C 927.02894,1013.3576 925.39311,1006.2915 924.89693,999.19287 C 925.7416,992.6737 926.68002,987.4223 931.93187,985.61462 C 942.91966,981.83264 953.91035,990.45451 966.23807,991.60495 C 973.36382,992.26995 978.78523,987.9911 972.05373,980.87995 C 963.28592,971.61765 954.47056,972.73866 945.15612,966.36565 C 941.56748,963.91028 940.60997,960.91004 941.50684,956.90801 C 942.46899,952.61475 945.22873,949.03234 948.65888,945.75187 C 952.67015,941.91562 956.88778,941.1498 962.68617,945.88141 C 974.46799,955.49562 972.65384,963.84208 987.68681,974.00268 C 989.62619,975.31348 994.75249,974.65678 994.37582,969.95906 C 992.76013,949.80835 985.29281,946.45975 984.91216,933.1424 C 984.97542,928.68033 991.27423,925.57945 999.9726,924.5219 C 1007.3863,925.76108 1016.1819,926.53863 1015.4249,933.61627 C 1014.0392,946.57173 1008.9647,954.38007 1007.298,965.29072 C 1005.9133,974.3547 1011.2441,977.37033 1017.1594,972.8157 C 1027.6534,964.73555 1027.816,953.51712 1036.5919,943.48191 C 1039.5964,940.04631 1042.2927,940.0522 1045.4794,941.13356 C 1053.6696,943.91282 1058.3008,948.01833 1060.6595,956.53027 C 1061.4779,959.48372 1059.274,961.83544 1056.5837,964.37531 C 1054.8844,965.97953 1049.0429,969.56378 1042.679,972.90708 C 1028.4227,980.39657 1026.8688,982.31595 1025.1985,985.48031 C 1022.348,990.8807 1026.9071,993.5524 1030.9369,993.56684 C 1033.3772,993.57558 1041.4862,992.34819 1053.0703,986.88937 C 1058.293,984.42824 1063.874,984.01698 1064.7062,983.85923 C 1072.3314,982.41381 1075.5176,991.09415 1076.6969,999.91097 C 1074.931,1008.5448 1070.4312,1016.8944 1063.8962,1015.1752 C 1051.1725,1011.8278 1044.9357,1005.2866 1031.6121,1007.035 C 1028.0566,1007.5016 1024.8535,1011.5618 1027.2699,1014.9914 C 1034.9773,1025.9304 1060.1369,1030.8714 1059.4991,1040.767 C 1058.9923,1048.6306 1052.9942,1054.6991 1045.3711,1057.4382 C 1033.1818,1061.8181 1028.1592,1029.15 1012.8868,1021.7431 C 1010.2837,1020.8475 1005.4107,1024.4877 1005.4107,1029.0051 C 1004.3975,1041.5681 1015.9827,1050.9916 1015.075,1066.0738 C 1014.7415,1071.6146 1007.8651,1073.9947 999.7231,1074.8795 z M 1005.7317,1009.0839 C 1011.4714,1005.3622 1012.9293,998.70926 1009.1043,993.69434 C 1004.3106,987.40945 995.87443,987.82683 991.54469,994.5631 C 989.1552,998.28066 989.22599,1002.0742 991.75368,1005.7632 C 995.25185,1010.8685 1000.9074,1012.212 1005.7317,1009.0839 z "
       style="fill:black"
       id="path2151" />
  </g>
</svg>
