<?xml version="1.0" encoding="UTF-8" standalone="no"?>
<!-- Created with Inkscape (http://www.inkscape.org/) -->
<svg
   xmlns:svg="http://www.w3.org/2000/svg"
   xmlns="http://www.w3.org/2000/svg"
   version="1.0"
   width="2000"
   height="2000"
   id="svg2">
  <defs
     id="defs4" />
  <g
     id="layer1">
    <path
       d="M 1002.1596,1135.9911 C 991.43264,1127.8218 983.52593,1120.1793 974.70895,1109.4579 C 969.46276,1103.0786 968.05552,1100.9311 964.93714,1094.546 C 961.16308,1086.8182 959.54329,1080.325 959.52029,1072.832 C 959.49927,1065.9808 960.33535,1062.257 963.09408,1056.9148 C 965.69552,1051.8771 969.4101,1048.2349 974.49046,1045.7402 C 980.31988,1042.8776 979.03189,1041.8662 986.53539,1041.8671 C 994.51432,1041.868 1007.9394,1043.5393 1017.2535,1047.4309 C 1019.0052,1048.1628 1021.4148,1049.1041 1021.0391,1048.4085 C 1019.4038,1045.3793 970.22556,984.4184 964.25723,976.63946 C 963.88765,976.15777 963.0671,976.90102 968.24454,971.43637 C 976.61873,962.59769 982.34022,955.44458 986.76113,948.28645 C 1002.55,922.72228 1003.7631,895.547 983.68198,864.76462 C 980.80113,860.34848 977.08873,855.95732 977.41657,855.94946 L 988.14318,855.6922 L 1017.1065,892.13853 C 1033.0364,912.18403 1046.2432,928.88341 1046.4552,929.24831 C 1046.7044,929.67725 1045.0809,932.00655 1041.8624,935.83747 C 1016.6712,965.82304 1011.2233,980.55547 1011.1086,1000.6265 C 1011.0617,1008.8114 1010.7141,1015.1843 1015.4168,1024.9566 C 1018.5813,1031.5324 1035.1425,1047.8598 1038.0682,1052.0654 C 1041.1305,1056.4672 1043.5559,1060.4225 1047.6634,1065.6051 L 1050.7928,1069.0423 L 1049.0253,1071.3304 C 1047.6061,1073.164 1046.7704,1074.2535 1046.5558,1074.4817 C 1046.3413,1074.7099 1040.644,1070.9219 1036.4074,1069.3166 C 1027.4909,1065.938 1023.3856,1065.102 1018.2863,1065.6063 C 1010.9412,1066.3326 1006.1407,1066.8382 1001.7147,1071.9472 C 995.41563,1079.2187 994.02339,1084.6431 995.3101,1096.9005 C 995.91501,1102.6625 995.2242,1108.0895 999.22516,1116.6049 C 1002.6002,1123.788 1004.4688,1126.7593 1007.2875,1130.183 L 1011.7801,1135.6474 C 1010.1268,1138.0263 1010.0701,1138.1809 1008.1077,1140.3078 C 1007.9388,1140.2965 1005.2622,1138.3539 1002.1596,1135.9911 z"
       id="path1985"
       style="fill:#000000;fill-opacity:1" />
  </g>
</svg>
