<?xml version="1.0" encoding="UTF-8" standalone="no"?>
<!-- Created with Inkscape (http://www.inkscape.org/) -->
<svg
   xmlns:svg="http://www.w3.org/2000/svg"
   xmlns="http://www.w3.org/2000/svg"
   version="1.0"
   width="2000"
   height="2000"
   id="svg2039">
  <defs
     id="defs2041" />
  <g
     id="layer1">
    <path
       d="M 994.20407,1153.8411 L 992.50471,1153.5066 C 991.57006,1153.3226 987.59322,1152.5918 983.66728,1151.8825 C 938.50951,1143.7238 893.24369,1100.0282 874.88435,1046.8731 C 871.02717,1035.7056 867.36502,1017.17 867.32489,1008.6117 C 867.31908,1007.3709 865.03519,1007.29 829.98832,1007.29 L 792.65796,1007.29 C 792.60364,1002.8693 792.06061,998.41447 792.48403,994.00638 C 792.65711,993.83518 809.56572,993.69508 830.05872,993.69508 C 855.33711,993.69508 867.3187,993.44268 867.3187,992.91008 C 867.3187,992.47828 867.6818,988.82468 868.12558,984.79088 C 873.06094,939.93088 903.38828,891.85068 942.70411,866.55598 C 957.35275,857.13158 974.91455,850.44778 990.61653,848.32128 L 994.20407,847.83548 L 994.20407,770.13518 L 1001.3791,770.13518 L 1008.5542,770.13518 L 1008.5542,847.85958 L 1011.0088,848.26188 C 1021.1029,849.91658 1024.1179,850.59218 1030.457,852.61998 C 1065.8731,863.94868 1098.1055,893.47858 1118.2675,933.06828 C 1127.436,951.07148 1132.0361,965.26458 1133.9242,981.37548 C 1134.4019,985.45118 1134.9537,989.89038 1135.1503,991.24048 L 1135.508,993.69508 L 1210.2113,993.69508 L 1210.2113,1007.29 L 1135.5321,1007.29 L 1135.1462,1010.4999 C 1133.4089,1024.9497 1132.7457,1028.9661 1130.8725,1036.3833 C 1125.8361,1056.3252 1113.8772,1079.9137 1099.2907,1098.6776 C 1077.7218,1126.4235 1046.7369,1146.851 1018.3997,1152.007 C 1014.854,1152.6521 1011.1882,1153.3287 1010.2535,1153.5106 L 1008.5542,1153.8411 L 1008.5542,1230.8499 L 1001.3791,1230.8499 L 994.20407,1230.8499 L 994.20407,1153.8411 z M 994.20407,1007.29 L 928.30074,1007.29 L 928.82655,1014.2762 C 933.09504,1060.9454 950.5252,1121.7185 989.67245,1139.431 C 991.95714,1140.249 993.9114,1140.9305 994.01525,1140.9455 L 994.20407,1007.29 z M 1073.4449,1017.4998 C 1073.8247,1012.5226 1073.974,1008.1892 1073.7768,1007.8701 L 1008.5542,1007.29 L 1008.5542,1140.9058 L 1011.6351,1139.8187 C 1055.7773,1124.2268 1067.844,1061.4499 1073.4449,1017.4998 z M 994.20407,860.66578 L 992.50471,861.14298 C 948.67586,878.24536 934.05338,940.61406 928.84069,987.08648 L 928.31692,993.69508 L 994.20407,993.69508 L 994.20407,860.66578 z M 1073.987,990.10758 C 1069.4967,940.0473 1053.8125,875.63422 1012.7408,861.7969 L 1008.5542,860.66578 L 1008.5542,993.69508 L 1074.4044,993.69508 L 1073.987,990.10758 z "
       style="fill:black"
       id="path2156" />
  </g>
</svg>
