<?xml version="1.0" encoding="UTF-8" standalone="no"?>
<!-- Created with Inkscape (http://www.inkscape.org/) -->
<svg
   xmlns:svg="http://www.w3.org/2000/svg"
   xmlns="http://www.w3.org/2000/svg"
   version="1.0"
   width="2000"
   height="2000"
   id="svg2"
   score:ascent="200"
   score:baseline="950"
   score:leftborder="900"
   score:rightborder="1100">
  <defs
     id="defs4" />
  <g
     id="layer1">
    <path
       d="M 1056.125,700 C 1053.8183,700 1051.9375,701.84949 1051.9375,704.15625 L 1051.9375,956.8125 C 1047.3459,954.07498 1041.7901,952.01134 1035.9688,950.9375 C 1031.3284,950.0815 1019.9055,949.89932 1014.4062,950.59375 C 983.7084,954.47046 955.07487,970.00286 940.71875,990.59375 C 933.47206,1000.9877 931.21255,1013.676 934.4375,1025.6562 C 938.13671,1039.3985 951.84097,1048.4677 970.71875,1049.6875 C 980.74499,1050.3353 992.60666,1048.836 1004.6875,1045.375 C 1021.0944,1040.6744 1037.7676,1031.5415 1048.8125,1021.25 C 1059.9706,1010.8531 1065.7149,1000.9093 1066.8125,989.75 C 1066.8135,989.7397 1066.8115,989.72906 1066.8125,989.71875 C 1066.8966,989.38783 1066.9375,989.04531 1066.9375,988.6875 L 1066.9375,987.6875 C 1067.0032,986.28885 1067.0111,984.87949 1066.9375,983.4375 L 1066.9375,704.15625 C 1066.9375,701.84951 1065.088,700 1062.7812,700 L 1056.125,700 z"
       id="path3816"
       style="fill:#000000" />
  </g>
</svg>
