<?xml version="1.0" encoding="UTF-8" standalone="no"?>
<!-- Created with Inkscape (http://www.inkscape.org/) -->
<svg
   xmlns:svg="http://www.w3.org/2000/svg"
   xmlns="http://www.w3.org/2000/svg"
   version="1.0"
   width="2000"
   height="2000"
   id="svg2">
  <defs
     id="defs4" />
  <g
     id="layer1">
    <path
       d="M 1000,850 C 917.2,850 849.99998,917.2 850,1000 C 850,1082.8 917.19998,1150 1000,1150 C 1082.8,1150 1150,1082.8 1150,1000 C 1150,917.2 1082.8,850 1000,850 z M 1000,865 C 1053.9543,865.00001 1100.5477,896.71732 1122.1563,942.5 L 877.84375,942.5 C 899.45229,896.71732 946.04573,865 1000,865 z M 1000,875 C 986.2,875 975,886.2 975,900 C 975,913.8 986.2,925 1000,925 C 1013.7999,925 1025,913.8 1025,900 C 1025,886.2 1013.7999,875 1000,875 z M 871.84375,957.5 L 1128.1563,957.5 C 1132.5917,970.86683 1135,985.15076 1135,1000 C 1135,1014.8493 1132.5916,1029.1332 1128.1563,1042.5 L 871.84375,1042.5 C 867.40828,1029.1332 865,1014.8492 865,1000 C 865.00001,985.15077 867.40828,970.86683 871.84375,957.5 z M 877.84375,1057.5 L 1122.1563,1057.5 C 1100.5477,1103.2827 1053.9543,1135 1000,1135 C 946.04575,1135.0001 899.45229,1103.2827 877.84375,1057.5 z "
       style="fill:black;fill-opacity:1;stroke:none;stroke-width:6;stroke-miterlimit:4"
       id="path1967" />
  </g>
</svg>
