<?xml version="1.0" encoding="UTF-8" standalone="no"?>
<!-- Created with Inkscape (http://www.inkscape.org/) -->
<svg
   xmlns:svg="http://www.w3.org/2000/svg"
   xmlns="http://www.w3.org/2000/svg"
   version="1.0"
   width="2000"
   height="2000"
   id="svg2">
  <defs
     id="defs4" />
  <g
     id="layer1">
    <path
       d="M 1032,421.75 C 1026.0475,421.88958 1019.9756,423.53357 1014.4063,426.8125 C 996.07574,438.2506 996.70755,452.51245 1006.1563,469.59375 C 1005.9001,469.82205 1002.6017,471.58221 998.8125,473.5 C 991.05346,477.4267 983.22462,484.50356 981.4375,489.34375 C 979.114,495.63715 979.19732,502.33476 982.125,507.28125 C 986.172,514.11865 994.08753,520.26923 1004.625,522.65625 C 1007.4597,523.29841 1010.6645,523.73124 1014,523.90625 C 1007.3372,530.5087 997.39264,541.97892 993.34375,548.25 C 976.0717,575.00223 963.56221,612.99476 959.21875,651.875 C 956.58789,675.42452 958.14788,713.4702 962.71875,736.90625 L 966.4375,756 L 955.1875,766.3125 C 874.41287,840.45976 848.04816,899.38902 845.6875,959.875 C 845.08898,975.2094 845.40108,979.31101 847.9375,989.6875 C 853.38777,1011.9821 863.56531,1029.8436 881.875,1049.2188 C 901.92603,1070.437 918.64343,1086.1394 949.28125,1094.6875 C 964.53982,1098.9456 966.41377,1099.1486 989.9375,1099.25 C 1013.7095,1099.3485 1015.005,1099.2315 1025.6875,1095.4688 C 1031.7821,1093.3239 1036.995,1091.8003 1037.2813,1092.0938 C 1038.9261,1093.7827 1051.25,1168.3617 1051.25,1176.625 C 1051.25,1200.8997 1036.144,1223.5717 1011.2813,1236.5938 C 995.91994,1244.6411 985.77176,1246.8798 968.8125,1245.9688 C 955.22914,1245.2388 937.96873,1240.9017 937.96875,1238.2188 C 937.96875,1237.6405 941.69941,1236.3659 946.28125,1235.4063 C 961.87107,1232.1342 978.18804,1219.9198 983.34375,1207.625 C 990.91272,1189.5719 986.59223,1169.4804 971.65625,1153.25 C 963.7575,1144.6699 956.42642,1141.75 942.625,1141.75 C 932.4566,1141.75 929.52651,1142.2852 923.3125,1145.3125 C 898.32699,1157.4739 889.28469,1191.2106 903.375,1219.6875 C 911.02236,1235.1398 923.17552,1245.6207 940.78125,1251.9063 C 950.62188,1255.4209 953.80381,1255.8929 967.28125,1255.9063 C 984.44445,1255.9222 1001.4335,1252.1795 1014.25,1245.5313 C 1044.1684,1230.0041 1058.824,1208.1877 1060.0938,1177.3125 C 1060.5957,1165.1054 1059.8914,1159.477 1053.5313,1124.9063 L 1046.4063,1086.1563 L 1053.1875,1082.6563 C 1077.7767,1069.9088 1111.2199,1043.2399 1118.8125,1019.375 C 1123.1615,1005.7055 1123.6548,984.6421 1119.9688,970 C 1112.3065,939.56226 1090.3092,916.16272 1059.9375,906.15625 C 1052.2685,903.62882 1045.8262,902.71458 1032.375,902.15625 C 1015.7351,901.46466 1004.7843,901.2608 1004.0938,898.4375 C 1003.693,896.79949 999.7428,878.32539 995.3125,857.40625 L 987.25,819.375 L 996.1875,811 C 1038.8979,770.94862 1061.8616,732.71378 1070.6563,687.0625 C 1074.2471,668.42329 1072.8175,635.25185 1067.5,614.21875 C 1065.2616,605.36496 1060.7526,591.40185 1057.5,583.1875 C 1050.187,564.71802 1033.6225,534.96 1025,523.5625 C 1028.7518,523.11518 1032.3533,522.32004 1035.5,521.125 C 1052.7212,514.5847 1061.7672,500.41649 1053.5,487 C 1050.8094,482.6334 1048.1194,479.81975 1044.125,474.34375 C 1050.8324,470.32755 1059.1903,463.96891 1061.6875,459.3125 C 1064.1848,454.656 1065.2267,446.24181 1062.9688,440.9375 C 1057.6247,428.38354 1045.0954,421.44292 1032,421.75 z M 1033.5625,429 C 1041.9467,429 1053.5284,436.68274 1053.2188,446.09375 C 1052.909,455.50485 1047.9823,465.1545 1039.25,469.6875 C 1034.7481,466.7347 1027.6026,460.00889 1022.6875,453.25 C 1018.5819,447.6042 1017.614,440.6797 1020.2188,435.8125 C 1022.0642,432.3642 1028.653,429.00001 1033.5625,429 z M 1011,475.1875 C 1025.3345,490.0379 1043.288,500.13914 1027.8125,512.15625 C 1022.8723,515.82895 1012.6013,515.39552 1007.875,512.5 C 993.60555,503.7587 985.22776,492.4614 1011,475.1875 z M 1029.2188,567.71875 L 1035.6875,575.09375 C 1048.8702,590.10245 1053.9376,603.10359 1053.9375,622 C 1053.9375,652.16686 1037.59,684.78789 1004.8125,720.125 C 988.98514,737.18871 975.44268,749.29987 974.6875,747.03125 C 968.93724,729.76147 970.42327,683.261 977.8125,649.46875 C 986.25868,610.84212 1003.0707,581.4843 1022.5938,571.21875 L 1029.2188,567.71875 z M 977.90625,827.53125 C 978.00336,827.53619 978.07769,827.57181 978.125,827.625 C 978.91082,828.5072 993.9375,901.21066 993.9375,904.125 C 993.9375,904.80486 990.7863,906.15964 986.9375,907.15625 C 971.73755,911.09191 965.47028,921.75974 952.71875,936.15625 C 938.53396,952.17057 932.70268,968.29011 933.53125,989.125 C 933.97637,1000.3218 934.65412,1003.586 938.15625,1011.1563 C 940.63971,1016.5226 945.0771,1022.8809 949.34375,1027.1875 C 957.2979,1035.2133 972.97955,1043.8569 981.65625,1045 L 987.28125,1045.7188 L 978.53125,1037.4375 C 973.10786,1032.3003 968.03336,1025.8564 965.21875,1020.5 C 960.92132,1012.3196 960.68198,1011.0876 960.65625,998.15625 C 960.63303,986.46085 961.0878,983.60674 963.75,978.34375 C 970.53498,964.93035 976.62437,953.08904 993.6875,948.9375 C 999.0372,947.63481 1003.6621,946.81101 1003.9688,947.125 C 1004.4468,947.61566 1033.9375,1078.372 1033.9375,1080 C 1033.9375,1080.698 1025.0013,1084.4926 1016.5938,1087.3438 C 1009.5935,1089.7178 975.25298,1090.9444 965.96875,1089.1563 C 922.87922,1080.8557 899.28089,1053.5891 886.0625,1016.1563 C 880.56066,1000.5759 879.77321,979.64919 883.96875,961 C 891.00028,929.74354 908.79819,900.76652 941.46875,867.375 C 958.48312,849.98584 974.89595,827.37816 977.90625,827.53125 z M 1017.7188,944.15625 C 1019.334,944.16915 1031.4574,944.23174 1034.2188,944.34375 C 1044.5823,944.76756 1047.2367,945.43847 1055.0938,949.53125 C 1070.2361,957.42121 1083.0906,974.20678 1087.9063,992.40625 C 1089.0609,996.76845 1089.3834,1003.4311 1088.9063,1012.3125 C 1088.0524,1028.2092 1083.523,1040.749 1074.0313,1053.4063 C 1068.4742,1060.8142 1041.9374,1076.811 1041.9375,1074.7813 C 1041.9375,1073.7176 1014.1452,950.16095 1013.0625,946.40625 C 1012.5524,944.63783 1012.873,944.11754 1017.7188,944.15625 z"
       id="path2188"
       style="fill:#000000" />
  </g>
</svg>
