<?xml version="1.0" encoding="UTF-8" standalone="no"?>
<!-- Created with Inkscape (http://www.inkscape.org/) -->
<svg
   xmlns:svg="http://www.w3.org/2000/svg"
   xmlns="http://www.w3.org/2000/svg"
   version="1.0"
   width="2000"
   height="2000"
   id="svg2">
  <defs
     id="defs4" />
  <g
     id="layer1">
    <path
       d="M 981.12079,1099.0502 C 948.26324,1094.6926 928.41625,1080.211 926.42019,1059.1373 C 925.42899,1048.6726 931.30825,1038.7683 941.47515,1033.7756 C 945.56003,1031.7697 947.02362,1031.5005 953.8436,1031.5005 C 960.6478,1031.5005 962.13187,1031.772 966.17249,1033.7564 C 982.00696,1041.5324 984.237,1060.5037 971.18841,1076.4278 L 968.17614,1080.1039 L 970.17012,1081.6365 C 976.05333,1086.1583 993.01897,1088.2767 1002.5326,1085.6772 C 1017.4627,1081.5979 1026.5053,1063.0055 1023.9161,1041.7106 C 1022.4626,1029.7572 1019.7184,1023.4671 1013.6207,1018.1133 C 1008.3738,1013.5065 1003.0061,1012.1779 992.07658,1010.9081 C 979.08495,1009.3987 971.28738,1007.724 969.43158,1006.0445 C 967.75259,1004.525 967.13779,999.85613 968.46366,996.36882 C 969.76276,992.95197 972.52184,991.83544 981.85056,990.9515 C 994.34631,989.76749 1001.4623,986.70213 1008.1398,983.43595 C 1018.5057,978.36571 1022.2292,971.25209 1022.8679,955.29846 C 1024.01,926.7693 1010.7392,912.86896 983.46792,914.02912 C 976.84903,914.31069 974.45566,914.76686 971.29081,916.35005 C 969.12433,917.43379 965.82246,919.41622 965.68126,919.89146 C 965.54006,920.36671 969.27748,923.14073 972.25871,926.91991 C 978.63454,935.00228 980.63915,939.25796 981.27428,946.05958 C 981.94318,953.22261 980.0846,958.28218 975.05686,962.98501 C 968.4682,969.14794 959.9195,971.63917 950.80582,970.05207 C 944.1697,968.89643 940.47176,967.04679 936.1429,962.71793 C 931.14038,957.7154 929.17183,953.01658 928.75551,945.08467 C 927.91959,929.1584 935.84898,916.97241 952.35585,908.81533 C 964.96925,902.58226 978.16563,900 997.40569,900 C 1017.4405,900 1029.8947,902.5874 1043.615,909.60014 C 1060.4812,918.22086 1069.4062,932.82168 1069.4522,951.86801 C 1069.4711,959.68417 1068.2243,965.17258 1064.8444,972.15278 C 1059.7923,982.58614 1050.2724,993.27965 1040.1852,997.9439 L 1035.7386,1000 L 1040.5924,1001.3692 C 1053.097,1004.8966 1063.7155,1012.3436 1069.4247,1023.6479 C 1075.3183,1035.3176 1074.5852,1054.2496 1067.686,1068.5486 C 1060.3304,1083.7937 1044.9513,1093.7536 1022.2402,1097.9805 C 1010.7936,1100.111 992.67351,1100.5824 981.12079,1099.0502 z "
       style="fill:black"
       id="path1933" />
  </g>
</svg>
