<?xml version="1.0" encoding="UTF-8" standalone="no"?>
<!-- Created with Inkscape (http://www.inkscape.org/) -->
<svg
   xmlns:svg="http://www.w3.org/2000/svg"
   xmlns="http://www.w3.org/2000/svg"
   version="1.0"
   width="2000"
   height="2000"
   id="svg6603"
   score:ascent="176"
   score:baseline="944"
   score:leftborder="935"
   score:rightborder="1070">
  <defs
     id="defs6605" />
  <g
     id="layer1">
    <path
       d="M 974.24299,1051.1167 C 964.39397,1048.9811 952.76354,1047.0388 944.43922,1053.726 C 936.84053,1058.3239 930.45669,1045.8674 938.34921,1042.0461 C 963.78472,1015.8374 990.79438,991.19045 1016.0848,964.83425 C 1020.0607,961.6511 1017.7757,961.31667 1013.9431,962.22475 C 996.63001,963.33428 985.19177,955.57495 968.26246,959.1649 C 962.69444,959.95146 948.13485,971.70139 945.77655,963.32894 C 942.44547,951.50293 957.81275,936.99384 971.78028,934.48599 C 990.23265,931.17289 1007.0446,942.00724 1026.1922,940.65226 C 1033.134,940.57606 1040.4734,940.55573 1046.2072,936.05571 C 1053.8726,930.03979 1060.5364,940.63795 1054.3106,946.52952 C 1029.0332,972.45145 1003.1673,997.15647 977.54257,1023.6469 C 994.47451,1022.8177 1011.1791,1025.7935 1028.5197,1032.2753 C 1035.8777,1035.0257 1048.4772,1030.3288 1051.2774,1022.5292 C 1053.547,1016.1452 1049.7693,1010.3561 1050.7739,1003.9827 C 1052.0189,996.08527 1061.8417,996.54347 1064.1357,1007.536 C 1066.5389,1019.051 1069.3357,1027.2918 1065.5039,1038.6399 C 1059.2232,1056.6977 1043.234,1063.631 1023.7064,1062.0001 C 1007.054,1060.5077 990.35445,1055.5894 974.24299,1051.1167 z"
       id="path6687"
       style="fill:#000000" />
  </g>
</svg>
