<?xml version="1.0" encoding="UTF-8" standalone="no"?>
<!-- Created with Inkscape (http://www.inkscape.org/) -->
<svg
   xmlns:svg="http://www.w3.org/2000/svg"
   xmlns="http://www.w3.org/2000/svg"
   version="1.0"
   width="2000"
   height="2000"
   id="svg2">
  <defs
     id="defs4" />
  <g
     id="layer1">
    <path
       d="M 999.53125,938 C 965.30815,938.25542 937.7445,966.24564 938,1000.4688 C 938.25539,1034.6918 966.24551,1062.2554 1000.4688,1062 C 1034.6918,1061.7446 1062.2553,1033.7544 1062,999.53125 C 1061.7446,965.30817 1033.7544,937.7446 999.53125,938 z M 1000,950 C 1010.7424,950 1020.691,953.38365 1028.8438,959.15625 L 1000,988 L 971.15625,959.15625 C 979.309,953.38365 989.25759,950 1000,950 z M 959.15625,971.15625 L 988,1000 L 959.15625,1028.8438 C 953.38364,1020.691 950,1010.7424 950,1000 C 950,989.25761 953.38365,979.309 959.15625,971.15625 z M 1040.8438,971.15625 C 1046.6164,979.309 1050,989.2576 1050,1000 C 1050,1010.7424 1046.6164,1020.691 1040.8438,1028.8438 L 1012,1000 L 1040.8438,971.15625 z M 1000,1012 L 1028.8438,1040.8438 C 1020.691,1046.6163 1010.7424,1050 1000,1050 C 989.2576,1050 979.309,1046.6164 971.15625,1040.8438 L 1000,1012 z "
       style="fill:black;fill-opacity:1;stroke:none;stroke-width:6;stroke-miterlimit:4"
       id="rect1897" />
  </g>
</svg>
