<?xml version="1.0" encoding="UTF-8" standalone="no"?>
<!-- Created with Inkscape (http://www.inkscape.org/) -->
<svg
   xmlns:svg="http://www.w3.org/2000/svg"
   xmlns="http://www.w3.org/2000/svg"
   version="1.0"
   width="2000"
   height="2000"
   id="svg2">
  <defs
     id="defs4" />
  <g
     id="layer1">
    <path
       d="M 884.85683,984.60325 C 884.87225,1000.3214 888.42816,1020.5764 894.27786,1038.2671 C 907.22065,1077.4086 933.13145,1105.4306 966.48348,1116.356 C 985.75505,1122.6688 1011.2761,1122.9659 1030.683,1117.1031 C 1076.5993,1103.2321 1107.3263,1059.1969 1113.3539,998.627 C 1113.9474,992.66225 1114.44,985.49075 1114.4484,982.69045 L 1114.4638,977.59895 L 1111.2851,977.82895 C 1108.3881,978.03855 1108.0311,978.29085 1107.2566,980.67665 C 1106.7892,982.11645 1105.329,989.68915 1104.0117,997.5051 C 1101.4193,1012.8857 1098.5704,1022.9373 1094.4723,1031.1618 C 1084.9275,1050.3173 1068.4741,1066.3026 1048.2722,1076.0475 C 1039.4054,1080.3247 1031.7726,1082.9301 1021.7208,1085.1108 C 1013.7268,1086.845 990.5485,1087.0666 982.45459,1085.4861 C 952.72202,1079.6804 929.79335,1065.8127 913.65753,1043.8766 C 904.63853,1031.6155 901.1445,1023 898.21979,1005.8109 C 895.86265,991.95735 893.52599,981.41685 892.30722,979.13955 C 891.71456,978.03215 890.7317,977.68495 888.1894,977.68495 L 884.85004,977.68495 L 884.85683,984.60325 z M 992.73983,986.68985 C 986.47948,989.88385 983.17141,995.70295 983.7828,1002.4455 C 984.68241,1012.3665 994.27453,1019.1342 1003.8006,1016.569 C 1008.3197,1015.3522 1013.7645,1009.9074 1014.9813,1005.3883 C 1016.7369,998.8687 1013.93,991.62425 1008.1718,987.81365 C 1003.7538,984.88995 997.20281,984.41285 992.73983,986.68985 z "
       style="fill:black"
       id="path1933" />
  </g>
</svg>
