<?xml version="1.0" encoding="UTF-8" standalone="no"?>
<!-- Created with Inkscape (http://www.inkscape.org/) -->
<svg
   xmlns:svg="http://www.w3.org/2000/svg"
   xmlns="http://www.w3.org/2000/svg"
   version="1.0"
   width="2000"
   height="2000"
   id="svg2">
  <defs
     id="defs4" />
  <g
     id="layer1">
    <path
       d="M 993.3125,700 C 971.46644,699.80669 952.044,704.37902 935.0625,713.78125 C 914.1621,725.35445 902.5686,740.74717 900.3125,760.03125 C 899.09767,770.41524 901.30857,781.05499 906.84375,791.8125 C 912.35633,802.52706 922.24364,814.78002 936.5,828.5625 C 936.55826,828.61884 936.56661,828.63111 936.625,828.6875 L 947.03125,837.625 C 947.05221,837.61631 947.04152,837.57126 947.0625,837.5625 C 952.73639,842.16482 959.34592,847.2273 966.84375,852.71875 C 951.697,855.81696 938.27554,861.80817 926.65625,870.75 C 908.87976,884.43157 900,900.94173 900,920.34375 C 899.99993,930.79129 903.10266,941.10369 909.28125,951.21875 C 915.43471,961.29355 925.69307,972.44348 940.125,984.65625 C 940.18394,984.70611 940.25338,984.73137 940.3125,984.78125 L 950.71875,992.5625 C 950.73687,992.55169 950.73182,992.51081 950.75,992.5 C 953.56661,994.48543 956.62282,996.59198 959.875,998.75 C 945.07699,1005.3618 933.09254,1013.0206 924.03125,1021.7188 C 909.77006,1035.4085 901.75857,1049.7202 900,1064.7188 C 898.26192,1079.5526 902.7545,1094.3882 913.4375,1109.1875 C 924.51889,1124.3022 943.38765,1141.548 970,1160.9375 L 970,1200 L 990,1200 L 990,1174.9375 C 994.25731,1177.8065 998.62187,1180.7027 1003.1875,1183.6563 C 1005.543,1185.1895 1007.788,1186.7124 1010,1188.2188 L 1010,1200 L 1026.2188,1200 C 1037.7658,1209.0575 1046.4868,1217.5649 1052.3438,1225.5625 C 1057.9021,1233.1514 1060.0801,1242.2009 1058.8438,1252.75 C 1057.4334,1264.7818 1050.2741,1274.435 1037.375,1281.5938 C 1024.4766,1288.7522 1009.4087,1291.3961 992.1875,1289.5938 C 980.156,1288.3338 970.97604,1285.166 964.65625,1280 C 958.33646,1274.8332 955.61484,1268.8512 956.40625,1262.0938 C 956.79325,1258.7971 957.78249,1255.3232 959.40625,1251.6563 C 962.02775,1245.5902 963.49156,1241.3161 963.78125,1238.8438 C 964.38018,1233.7341 962.24592,1229.0215 957.5,1224.6875 C 952.75478,1220.3531 946.39652,1217.7768 938.375,1216.9375 C 930.35483,1216.0974 923.91935,1217.1328 919.03125,1220.125 C 912.31825,1224.4272 908.59776,1229.7906 907.84375,1236.2188 C 906.18298,1250.3934 913.11464,1263.9408 928.6875,1276.75 C 944.26117,1289.5586 964.98715,1297.283 990.9375,1300 L 991,1300 C 1019.3093,1302.9633 1043.9054,1298.6347 1064.8438,1287.0625 C 1085.7821,1275.4892 1097.4273,1260.1279 1099.6875,1240.8438 C 1100.9044,1230.4596 1098.7015,1219.8197 1093.1563,1209.0625 C 1087.6336,1198.3477 1077.7511,1186.0952 1063.4688,1172.3125 C 1063.4102,1172.2561 1063.3398,1172.2439 1063.2813,1172.1875 L 1052.875,1163.2813 C 1052.8539,1163.2901 1052.8647,1163.3037 1052.8438,1163.3125 C 1049.1145,1160.2932 1044.8279,1156.9958 1040.3125,1153.5938 C 1059.0654,1143.595 1073.2595,1132.38 1082.7813,1119.875 C 1094.2709,1104.7844 1099.9994,1089.6845 1100,1074.5938 C 1099.9993,1059.6693 1094.3038,1045.4104 1083.0313,1031.8125 C 1074.5174,1021.6924 1062.1325,1010.8637 1045.875,999.34375 C 1057.9272,993.39766 1067.8595,986.65373 1075.6563,979.15625 C 1089.8915,965.46656 1097.8698,951.155 1099.625,936.15625 C 1101.3597,921.32228 1096.8824,906.48688 1086.2188,891.6875 C 1075.1909,876.61802 1056.4451,859.41242 1030,840.09375 L 1030,800 L 1010,800 L 1010,826.09375 C 1005.6866,823.18005 1001.2556,820.21981 996.625,817.21875 C 994.34174,815.72986 992.14811,814.27604 990,812.8125 L 990,800 L 972.53125,800 C 961.55405,791.26695 953.22085,783.05299 947.5625,775.3125 C 942.01419,767.7237 939.8283,758.67401 941.0625,748.125 C 942.47008,736.09333 949.62438,726.43998 962.5,719.28125 C 975.37503,712.12292 990.43497,709.47886 1007.625,711.28125 C 1019.6347,712.54121 1028.7544,715.74024 1035.0625,720.90625 C 1041.3709,726.07305 1044.1023,732.02376 1043.3125,738.78125 C 1042.9263,742.07782 1041.9959,745.55196 1040.375,749.21875 C 1037.7583,755.28489 1036.2579,759.55909 1035.9688,762.03125 C 1035.3708,767.14093 1037.4812,771.85342 1042.2188,776.1875 C 1046.955,780.52194 1053.2743,783.09815 1061.2813,783.9375 C 1069.2869,784.77757 1075.7771,783.74233 1080.6563,780.75 C 1087.357,776.44773 1091.0285,771.08448 1091.7813,764.65625 C 1093.4386,750.48189 1086.5445,736.93429 1071,724.125 C 1055.4546,711.31645 1034.7159,703.5921 1008.8125,700.875 C 1003.5141,700.31939 998.3539,700.04462 993.3125,700 z M 970,864 L 970,952.59375 C 959.0324,945.03256 950.54985,937.68724 944.5625,930.5625 C 938.70918,923.5982 935.78123,914.83226 935.78125,904.21875 C 935.78122,892.11346 941.302,881.80112 952.25,873.34375 C 957.59718,869.21305 963.49401,866.09748 970,864 z M 990,869.09375 C 990.28868,869.29232 990.55275,869.48794 990.84375,869.6875 C 997.80337,874.53185 1004.1663,879.16126 1010,883.5625 L 1010,976.4375 C 1004.7919,973.37719 999.34573,970.26468 993.65625,967.125 C 992.41093,966.43305 991.20646,965.75104 990,965.0625 L 990,869.09375 z M 1030,899.6875 C 1038.8598,907.45392 1045.4417,914.30116 1049.6563,920.25 C 1058.6578,932.95656 1062.5346,944.69319 1061.2813,955.40625 C 1059.662,969.24507 1050.2467,981.00973 1033.1563,990.75 C 1032.1184,990.07209 1031.0623,989.40169 1030,988.71875 L 1030,899.6875 z M 970,1008.2813 L 970,1101.4375 C 960.99605,1093.578 954.32558,1086.6315 950.0625,1080.625 C 941.04462,1067.9188 937.1818,1056.2132 938.4375,1045.5 C 940.1636,1030.7729 950.72012,1018.3661 970,1008.2813 z M 990,1017.5 C 991.34903,1018.3007 992.60398,1019.0545 994,1019.875 C 999.71626,1023.2901 1005.0286,1026.5908 1010,1029.7813 L 1010,1131.9063 C 1009.6423,1131.6608 1009.3297,1131.4346 1008.9688,1131.1875 C 1002.0943,1126.4111 995.77675,1121.8769 990,1117.5313 L 990,1017.5 z M 1030,1043.5 C 1040.3078,1051.1478 1047.9499,1057.9949 1052.875,1064.0313 C 1062.4133,1075.722 1067.1562,1086.9402 1067.1563,1097.7188 C 1067.1562,1115.903 1054.7604,1131.9867 1030.0313,1145.9688 C 1030.0199,1145.9605 1030.0113,1145.9457 1030,1145.9375 L 1030,1043.5 z "
       id="flowRoot1916" />
  </g>
</svg>
