<?xml version="1.0" encoding="UTF-8" standalone="no"?>
<!-- Created with Inkscape (http://www.inkscape.org/) -->
<svg
   xmlns:svg="http://www.w3.org/2000/svg"
   xmlns="http://www.w3.org/2000/svg"
   version="1.0"
   width="2000"
   height="2000"
   id="svg2039">
  <defs
     id="defs2041" />
  <g
     id="layer1">
    <path
       d="M 907.25007,1058.651 C 905.89691,989.23467 906.15909,919.42754 904.75575,850.30231 C 904.55156,842.58597 904.43401,834.24508 904.49452,831.76701 L 904.60456,827.26142 L 907.47812,826.05832 C 910.20648,824.91601 910.54809,824.8552 914.23943,824.85489 C 918.35636,824.85453 919.9271,825.14316 923.19816,826.50106 L 925.22655,827.34311 L 925.13248,831.63882 C 923.75455,894.58925 922.95824,933.1946 922.79502,944.96059 L 922.591,959.66644 L 925.26102,957.12374 C 928.67958,953.86825 931.64845,951.75861 935.22372,950.04437 C 942.50867,946.55134 950.55815,945.83982 957.77445,948.05112 C 960.71593,948.95245 965.47071,951.40433 967.27929,952.95234 C 968.06086,953.62133 968.79639,954.07256 968.91383,953.9552 C 969.03126,953.83769 968.86581,943.4368 968.54624,930.84207 C 967.84458,903.19231 966.98056,855.63078 966.881,839.17415 L 966.80856,827.20083 L 969.68216,826.15863 C 972.34899,825.19139 972.87182,825.11731 976.95052,825.12855 C 980.93262,825.13952 981.61532,825.23476 984.21892,826.14275 L 987.09252,827.14483 L 987.01102,839.65325 C 986.96602,846.53288 986.47162,872.94996 985.91232,898.35787 C 984.91362,943.71103 984.70152,959.49732 985.09082,959.49732 C 985.19842,959.49732 986.14922,958.75327 987.20372,957.8437 C 993.95442,952.02087 1003.5938,948.15673 1014.3068,946.9787 C 1030.9378,945.14984 1045.467,954.97171 1051.1287,971.8706 C 1054.575,982.1573 1053.6984,994.4147 1048.8292,1004.0216 C 1045.2963,1010.9924 1038.1032,1019.1324 1028.6746,1026.83 C 1025.898,1029.0968 1022.1131,1031.9257 1009.7429,1040.9797 C 997.38582,1050.0241 996.80802,1050.521 992.82082,1055.5309 C 988.14772,1061.4028 986.45762,1063.1282 984.38802,1064.1401 C 982.00822,1065.3037 979.94952,1065.52 977.86012,1064.8261 C 973.96079,1063.5309 971.91762,1061.0054 971.38718,1056.8253 C 971.21271,1055.45 970.88138,1045.6153 970.65095,1034.9704 C 970.42051,1024.3256 970.12121,1015.6162 969.98589,1015.6162 C 969.8505,1015.6162 969.20812,1016.3388 968.55842,1017.222 C 966.43456,1020.1092 955.60004,1030.3426 942.63694,1041.7052 C 934.8398,1048.5398 930.78154,1052.8866 927.37327,1058.0545 C 924.3703,1062.6078 923.35993,1063.5771 920.40229,1064.7428 C 915.23829,1066.2337 907.57864,1064.5279 907.25007,1058.651 z M 928.02748,1037.3028 C 933.43133,1030.9838 935.20654,1028.7025 938.06705,1024.4013 C 942.88928,1017.1501 947.15882,1007.2412 948.91727,999.2201 C 949.67061,995.7835 949.806,979.847 949.10969,976.5696 C 948.54243,973.8999 947.43685,970.4654 946.62317,968.8451 C 945.70839,967.02383 943.42746,964.64053 941.80693,963.81312 C 937.7517,961.74228 931.17201,963.45849 928.02692,967.40754 C 925.59639,970.4593 923.54082,975.6333 922.64089,980.9645 C 922.00445,984.7347 921.9816,1030.6781 922.61354,1035.9001 C 923.31905,1041.7299 923.37003,1041.963 923.89512,1041.7615 C 924.15664,1041.6611 926.0162,1039.6547 928.02748,1037.3028 z M 991.61822,1039.0342 C 996.27322,1034.9193 1003.8654,1027.3447 1007.0698,1023.6181 C 1014.4136,1015.0777 1019.4298,1005.6885 1021.259,997.0591 C 1021.8877,994.0931 1021.8918,982.2555 1021.2653,978.7671 C 1020.3317,973.5679 1017.4327,967.79062 1014.6526,965.58875 C 1010.5645,962.35086 1004.4888,962.02989 998.87282,964.75501 C 996.58622,965.8646 993.18512,969.4923 991.59782,972.5148 C 989.32912,976.835 988.60612,979.6165 988.22642,985.4871 C 987.66772,994.1261 987.68372,1028.6167 988.24972,1035.4775 C 988.51432,1038.6849 988.80142,1041.3092 988.88762,1041.3092 C 988.97392,1041.3092 990.20262,1040.2854 991.61822,1039.0342 z "
       style="fill:black"
       id="path2156" />
  </g>
</svg>
