<?xml version="1.0" encoding="UTF-8" standalone="no"?>
<!-- Created with Inkscape (http://www.inkscape.org/) -->
<svg
   xmlns:svg="http://www.w3.org/2000/svg"
   xmlns="http://www.w3.org/2000/svg"
   version="1.0"
   width="2000"
   height="2000"
   id="svg2252">
  <defs
     id="defs2254" />
  <g
     id="layer1">
    <path
       d="M 972.5051,1103.4613 C 972.5051,1088.6678 972.40667,1076.5641 972.28636,1076.5641 C 972.16605,1076.5641 968.11937,1077.8905 963.29373,1079.5117 C 958.46809,1081.1329 954.24949,1082.4593 953.91906,1082.4593 C 953.58863,1082.4593 953.40729,1074.7649 953.51609,1065.3605 L 953.7139,1048.2616 L 963.09187,1045.2797 L 972.46984,1042.2977 L 972.48747,1009.6894 C 972.49717,991.75488 972.24086,977.08116 971.9179,977.08116 C 971.59495,977.08116 967.38246,978.4076 962.55682,980.0288 C 957.73118,981.65 953.68449,982.97644 953.56418,982.97644 C 953.44388,982.97644 953.34544,975.25697 953.34544,965.82208 L 953.34544,948.66772 L 962.92527,945.50603 L 972.5051,942.34436 L 972.5051,912.91897 L 972.5051,883.49357 L 977.29502,883.49357 L 982.08494,883.49357 L 982.08494,911.49615 C 982.08494,926.89758 982.33899,939.49874 982.64948,939.49874 C 982.95999,939.49874 991.00152,936.90032 1000.5196,933.72447 L 1017.8251,927.9502 L 1018.0179,899.45815 L 1018.2109,870.9661 L 1022.9921,870.9661 L 1027.7734,870.9661 L 1027.7734,897.86332 C 1027.7734,912.65679 1028.0377,924.76054 1028.3606,924.76054 C 1028.6836,924.76054 1032.8961,923.4341 1037.7217,921.8129 C 1042.5474,920.19169 1046.766,918.86526 1047.0964,918.86526 C 1047.4268,918.86526 1047.6082,926.54774 1047.4993,935.93743 L 1047.3015,953.00961 L 1037.5375,956.26387 L 1027.7734,959.51813 L 1027.7734,991.88077 C 1027.7734,1017.9029 1027.9607,1024.2434 1028.729,1024.2434 C 1029.2547,1024.2434 1033.633,1022.917 1038.4586,1021.2958 C 1043.2843,1019.6746 1047.3371,1018.3481 1047.4648,1018.3481 C 1047.5926,1018.3481 1047.6082,1026.058 1047.4993,1035.4813 L 1047.3015,1052.6145 L 1037.5375,1055.8788 L 1027.7734,1059.1432 L 1027.7734,1088.8556 L 1027.7734,1118.5679 L 1022.9835,1118.5679 L 1018.1936,1118.5679 L 1018.1936,1090.118 C 1018.1936,1067.6687 1017.9992,1061.7396 1017.2724,1062.007 C 1016.7658,1062.1934 1008.6414,1064.9092 999.2181,1068.0424 L 982.08494,1073.739 L 982.08494,1102.0488 L 982.08494,1130.3585 L 977.29502,1130.3585 L 972.5051,1130.3585 L 972.5051,1103.4613 z M 1001.0435,1033.2823 L 1018.1936,1027.583 L 1018.1936,994.96297 C 1018.1936,977.02196 1017.9395,962.34295 1017.629,962.34295 C 1017.3185,962.34295 1009.2769,964.9414 999.75891,968.11726 L 982.45339,973.89157 L 982.2615,1006.4366 C 982.11131,1031.9086 982.26779,1038.9816 982.98149,1038.9816 C 983.48302,1038.9816 991.61091,1036.417 1001.0435,1033.2823 z "
       style="fill:black"
       id="path2336" />
  </g>
</svg>
