<?xml version="1.0" encoding="UTF-8" standalone="no"?>
<!-- Created with Inkscape (http://www.inkscape.org/) -->
<svg
   xmlns:svg="http://www.w3.org/2000/svg"
   xmlns="http://www.w3.org/2000/svg"
   version="1.0"
   width="2000"
   height="2000"
   id="svg2158">
  <defs
     id="defs2160" />
  <g
     id="layer1">
    <path
       d="M 1025.7803,1091.5926 C 1025.7803,1070.6429 1025.5992,1053.5023 1025.3779,1053.5023 C 1025.1565,1053.5023 1012.2114,1057.9218 996.61076,1063.3235 C 981.01036,1068.7253 968.07579,1072.9743 967.86739,1072.7659 C 967.56397,1072.4625 967.392,982.14528 967.50682,883.40256 L 967.52441,868.27844 L 972.00563,868.27844 L 976.48686,868.27844 L 976.48686,906.36881 C 976.48686,930.67028 976.75106,944.45918 977.21666,944.45918 C 977.75296,944.45918 1027.7364,927.04717 1034.556,924.48467 C 1035.3001,924.20509 1035.4896,944.99958 1035.4896,1026.9085 L 1035.4896,1129.683 L 1030.6349,1129.683 L 1025.7803,1129.683 L 1025.7803,1091.5926 z M 1001.4865,1030.9937 C 1014.232,1026.4188 1024.9157,1022.4493 1025.2283,1022.1726 C 1025.5408,1021.8958 1025.7089,1007.3517 1025.6017,989.85238 L 1025.4069,958.03548 L 1012.3366,962.82838 C 1005.148,965.46448 994.14096,969.50838 987.87666,971.81488 L 976.48686,976.00848 L 976.48686,1007.6601 C 976.48686,1032.1033 976.69476,1039.3117 977.39986,1039.3117 C 977.90206,1039.3117 988.74096,1035.5686 1001.4865,1030.9937 z "
       style="fill:black"
       id="path2242" />
  </g>
</svg>
