<?xml version="1.0" encoding="UTF-8" standalone="no"?>
<!-- Created with Inkscape (http://www.inkscape.org/) -->
<svg
   xmlns:svg="http://www.w3.org/2000/svg"
   xmlns="http://www.w3.org/2000/svg"
   version="1.0"
   width="2000"
   height="2000"
   id="svg2">
  <defs
     id="defs4" />
  <g
     id="layer1">
    <path
       d="M 890,938 C 890,979.66667 890,1021.3333 890,1063 C 893.33333,1063 896.66667,1063 900,1063 C 900,1029.6667 900,996.33333 900,963 C 926.66667,963 1073.3333,963 1100,963 C 1100,996.33333 1100,1029.6667 1100,1063 C 1103.3333,1063 1106.6667,1063 1110,1063 C 1110,1021.3333 1110,979.66667 1110,938 C 1076.6667,938 923.33333,938 890,938 z M 1000,1011.0625 C 986.19998,1011.0625 975,1022.2625 975,1036.0625 C 975,1049.8625 986.2,1061.0625 1000,1061.0625 C 1013.8,1061.0625 1025.0001,1049.8625 1025,1036.0625 C 1025,1022.2625 1013.8,1011.0625 1000,1011.0625 z "
       style="fill:#000000;fill-opacity:1;stroke:none"
       id="rect4134" />
  </g>
</svg>
