<?xml version="1.0" encoding="UTF-8" standalone="no"?>
<!-- Created with Inkscape (http://www.inkscape.org/) -->
<svg
   xmlns:svg="http://www.w3.org/2000/svg"
   xmlns="http://www.w3.org/2000/svg"
   version="1.0"
   width="2000"
   height="2000"
   id="svg2">
  <defs
     id="defs4" />
  <g
     id="layer1">
    <path
       d="M 940.76759,1251.9032 C 923.16185,1245.6176 911.00782,1235.1531 903.36046,1219.7008 C 889.27016,1191.2239 898.31672,1157.4842 923.30223,1145.3228 C 929.51626,1142.2955 932.461,1141.7521 942.6294,1141.7521 C 956.43081,1141.7521 963.76704,1144.6565 971.66579,1153.2366 C 986.60175,1169.467 990.91997,1189.5585 983.351,1207.6116 C 978.1953,1219.9064 961.8847,1232.1474 946.29488,1235.4195 C 941.71302,1236.3792 937.96421,1237.642 937.96421,1238.2203 C 937.96421,1240.9033 955.24289,1245.2471 968.82625,1245.9771 C 985.78549,1246.8881 995.91289,1244.6527 1011.2742,1236.6054 C 1036.1369,1223.5833 1051.2615,1200.8938 1051.2615,1176.6191 C 1051.2615,1168.3558 1038.9338,1093.7804 1037.2889,1092.0915 C 1037.0027,1091.7981 1031.7821,1093.3142 1025.6875,1095.4591 C 1015.005,1099.2219 1013.7197,1099.3578 989.94768,1099.2593 C 966.42396,1099.1579 964.55252,1098.9474 949.29395,1094.6893 C 918.65613,1086.1412 901.92615,1070.4434 881.87512,1049.2252 C 863.56543,1029.8501 853.37458,1011.9784 847.92431,989.68379 C 845.3879,979.30729 845.07928,975.21419 845.6778,959.87979 C 848.03846,899.39378 874.42798,840.46329 955.20261,766.31603 L 966.4429,755.99869 L 962.7214,736.91663 C 958.1505,713.48058 956.57916,675.42312 959.21002,651.8736 C 963.55348,612.99336 976.06412,575.00685 993.33617,548.25462 C 999.24323,539.10557 1017.7498,518.86756 1020.2091,518.86756 C 1024.4792,518.86756 1048.3249,559.98194 1057.5121,583.18496 C 1060.7647,591.39929 1065.2574,605.36482 1067.4958,614.21861 C 1072.8133,635.25173 1074.2572,668.42795 1070.6664,687.06716 C 1061.8717,732.71842 1038.895,770.94997 996.18461,811.00135 L 987.24563,819.3845 L 995.3007,857.4195 C 999.73097,878.33865 1003.6837,896.7947 1004.0844,898.43271 C 1004.775,901.25604 1015.7325,901.44973 1032.3724,902.14132 C 1045.8236,902.69963 1052.2738,903.6412 1059.9428,906.16863 C 1090.3144,916.17511 1112.303,939.55915 1119.9653,969.99689 C 1123.6514,984.63899 1123.1583,1005.6954 1118.8093,1019.3649 C 1111.2167,1043.2298 1077.7611,1069.9134 1053.1719,1082.6608 L 1046.4185,1086.1622 L 1053.5445,1124.8986 C 1059.9047,1159.4693 1060.6101,1165.1021 1060.1081,1177.3092 C 1058.8384,1208.1844 1044.1779,1229.9971 1014.2595,1245.5242 C 1001.443,1252.1724 984.45139,1255.9321 967.28819,1255.9162 C 953.81077,1255.9029 950.60822,1255.4178 940.76759,1251.9032 z M 1016.6058,1087.3321 C 1025.0133,1084.481 1033.9336,1080.0151 1033.9336,1080.0151 C 1033.9336,1080.0151 1004.4387,947.62484 1003.9607,947.13418 C 1003.654,946.82017 999.026,947.62484 993.6763,948.92753 C 976.61314,953.07909 970.52475,964.92649 963.73977,978.33989 C 961.07755,983.60289 960.6308,986.47229 960.65402,998.16769 C 960.67972,1011.099 960.92852,1012.3143 965.22595,1020.4947 C 968.04056,1025.8511 973.10447,1032.3017 978.52786,1037.4389 L 987.28502,1045.7318 L 981.6516,1044.9906 C 972.97491,1043.8475 957.29698,1035.2035 949.34283,1027.1777 C 945.07618,1022.8711 940.64823,1016.5268 938.16477,1011.1605 C 934.66266,1003.5903 933.97472,1000.3209 933.5296,989.12409 C 932.70103,968.28919 938.53984,952.17819 952.72463,936.16387 C 965.47614,921.76737 971.74866,911.09436 986.94861,907.1587 C 990.7974,906.16208 993.9464,904.79098 993.9464,904.11112 C 993.9464,901.19681 978.1187,827.62744 978.1187,827.62744 C 976.6047,825.92522 959.03284,849.4101 941.46962,867.3602 C 908.79904,900.75175 891.00298,929.72913 883.97145,960.98559 C 879.7759,979.63479 880.57506,1000.5766 886.0769,1016.1569 C 899.29529,1053.5898 922.86578,1080.8568 965.95531,1089.1573 C 975.23955,1090.9455 1009.6056,1089.7061 1016.6058,1087.3321 z M 1074.0313,1053.4084 C 1083.523,1040.7512 1088.0626,1028.2245 1088.9164,1012.3278 C 1089.3935,1003.4464 1089.0525,996.78209 1087.8979,992.41989 C 1083.0823,974.22039 1070.2246,957.41439 1055.0823,949.52443 C 1047.2252,945.43163 1044.5748,944.77645 1034.2112,944.35264 C 1023.1659,943.90464 1012.1898,943.34765 1013.0712,946.40394 C 1013.9526,949.46024 1041.9311,1073.2459 1041.9311,1074.7926 C 1041.9311,1076.3393 1068.4743,1060.8163 1074.0313,1053.4084 z M 1004.8251,720.13896 C 1037.6026,684.80187 1053.9273,652.17884 1053.9273,622.01198 C 1053.9273,603.11555 1048.8674,590.10184 1035.6847,575.09314 L 1029.2182,567.73087 L 1022.5788,571.22119 C 1003.0557,581.48674 986.26614,610.83544 977.81996,649.46207 C 970.43072,683.25435 968.93798,729.7579 974.68824,747.02768 C 975.44341,749.29633 988.99774,737.20267 1004.8251,720.13896 z"
       id="path2188"
       style="fill:#000000" />
  </g>
</svg>
