<?xml version="1.0" encoding="UTF-8" standalone="no"?>
<!-- Created with Inkscape (http://www.inkscape.org/) -->
<svg
   xmlns:svg="http://www.w3.org/2000/svg"
   xmlns="http://www.w3.org/2000/svg"
   version="1.0"
   width="2000"
   height="2000"
   id="svg1941">
  <defs
     id="defs1944" />
  <path
     d="M 1038.937,800.00397 C 1019.2873,800.17244 1006.5353,805.55656 993.52104,818.39242 C 987.82279,824.01258 985.8306,826.72011 982.98628,832.69153 C 977.59295,844.01435 976.11719,855.22102 978.8157,864.1875 C 981.49107,872.32929 984.00652,876.76152 996.33753,883.11758 C 1002.3539,885.83264 1012.7865,885.86803 1018.6528,883.17174 C 1031.089,876.89948 1033.2825,872.10883 1036.0663,864.32291 C 1037.6602,859.89857 1037.7158,853.35874 1036.2017,849.78006 C 1035.5528,848.2463 1032.3907,844.06583 1029.1605,840.49105 C 1025.9303,836.91627 1022.7682,832.7358 1022.1193,831.20204 C 1019.2182,824.34507 1021.677,818.24949 1028.6459,815.06137 C 1031.1621,813.9103 1034.6447,813.30619 1038.5578,813.21982 C 1047.1668,813.02981 1057.8239,815.28452 1064.6916,819.25903 C 1069.2358,821.88885 1076.5576,829.65653 1079.0178,834.47892 C 1082.9723,842.23024 1087.1884,856.62932 1088.1173,866.62485 C 1089.0152,894.90935 1093.4102,923.38101 1082.728,950.28008 C 1077.9617,962.18607 1067.9738,969.56045 1054.0756,971.43086 C 1038.2663,973.55845 1025.0502,967.35969 1015.7822,953.5028 C 1009.2924,943.79982 1006.0661,933.83519 1004.5433,918.8112 C 1003.688,910.37347 1002.7232,908.95348 997.79994,908.95348 C 992.952,908.95348 991.81504,910.97736 991.19202,920.734 C 989.91185,940.78171 981.994,962.09526 970.14957,977.4159 C 969.02544,978.91233 968.52466,979.60955 968.22677,980.04282 C 967.83358,980.359 965.83808,982.50835 958.69403,990.76716 L 958.69403,800.13938 L 940.5764,800.13938 L 940.5764,1200 L 958.69403,1200 L 958.69403,1007.3953 L 963.86663,1012.947 C 979.54399,1029.7588 989.59716,1053.6661 991.19202,1077.8618 C 991.80428,1087.1503 993.01418,1089.209 997.79994,1089.209 C 1002.8123,1089.209 1003.695,1087.8432 1004.5704,1078.7555 C 1006.2082,1061.7524 1012.1462,1047.0536 1021.036,1038.0246 C 1030.199,1028.7183 1041.3376,1024.9569 1054.2923,1026.7587 C 1063.8566,1028.089 1070.2491,1031.2175 1075.8493,1037.2664 C 1081.2927,1043.1459 1084.1367,1049.588 1086.9528,1062.5065 C 1088.7404,1070.7073 1088.9031,1073.7221 1088.9297,1098.7417 C 1088.9538,1121.3739 1088.6869,1127.6695 1087.359,1135.5728 C 1085.5589,1146.2866 1082.4442,1156.8718 1079.2345,1163.2231 C 1076.6096,1168.4172 1069.4078,1176.1741 1064.6916,1178.9034 C 1054.7023,1184.6845 1036.6976,1186.7845 1028.6459,1183.1011 C 1021.6756,1179.9123 1019.2128,1173.8118 1022.1193,1166.9604 C 1022.7699,1165.4267 1026.0652,1161.0754 1029.4584,1157.2923 C 1036.4723,1149.4724 1037.8014,1146.4429 1037.1767,1139.5538 C 1036.2756,1129.6163 1029.8259,1120.5981 1020.2506,1115.8844 C 1015.1199,1113.3587 1013.6859,1113.0495 1007.5223,1113.095 C 999.22985,1113.1563 992.9293,1115.6198 986.91312,1121.1653 C 980.88453,1126.7223 978.20439,1132.5012 977.7866,1140.7725 C 976.53603,1165.5305 993.73944,1190.7207 1020.5443,1198.2461 C 1027.8992,1200.311 1051.6065,1201.5604 1064.5583,1197.6211 C 1088.6001,1190.3087 1104.6621,1181.3407 1119.6132,1163.4669 C 1128.2784,1153.1078 1133.4208,1134.5342 1135.2935,1118.1864 C 1136.7108,1105.8143 1136.3981,1089.8437 1134.5623,1080.9491 C 1127.1981,1045.2694 1095.1977,1017.4524 1057.4879,1013.922 C 1045.0796,1012.7603 1041.6955,1013.5736 1030.2708,1020.4757 C 1021.0199,1026.0646 1020.1711,1026.3847 1014.3739,1026.6774 C 1008.7493,1026.9615 1008.0442,1026.7903 1005.4641,1024.6192 C 1001.7412,1021.4867 999.41459,1016.7384 998.72072,1010.8347 L 998.152,1006.0141 C 998.152,1006.0141 998.152,993.01494 998.152,993.01494 L 998.69364,987.81526 C 999.34355,981.59715 1001.6376,976.76293 1005.4641,973.54323 C 1008.0442,971.37216 1008.7493,971.20099 1014.3739,971.48502 C 1020.1711,971.77776 1021.0199,972.09784 1030.2708,977.68672 C 1041.6409,984.55583 1045.1935,985.4504 1056.8921,984.26756 C 1090.1557,980.90428 1118.5375,960.13336 1130.6084,930.3209 C 1134.9813,919.52076 1136.1872,911.96945 1136.1872,895.54806 L 1136.1872,881.22186 L 1133.8582,868.22267 L 1131.9083,860.82937 C 1130.8356,856.76871 1127.7528,849.06668 1125.0837,843.71377 C 1120.7903,835.10304 1119.2992,833.04163 1111.9762,825.67738 C 1096.2699,809.88266 1078.4017,802.52249 1050.6092,800.43728 C 1046.4518,800.12536 1042.5758,799.97278 1038.937,800.00397 z "
     style="fill:black"
     id="path2024" />
  <rect
     width="56.407837"
     height="399.86392"
     ry="0.86661297"
     x="863.23297"
     y="800.13574"
     style="fill:black;fill-opacity:1;fill-rule:evenodd;stroke:none;stroke-width:1px;stroke-linecap:butt;stroke-linejoin:miter;stroke-opacity:1"
     id="rect1895" />
</svg>
