<?xml version="1.0" encoding="UTF-8" standalone="no"?>
<!-- Created with Inkscape (http://www.inkscape.org/) -->
<svg
   xmlns:svg="http://www.w3.org/2000/svg"
   xmlns="http://www.w3.org/2000/svg"
   version="1.0"
   width="2000"
   height="2000"
   id="svg2">
  <defs
     id="defs4" />
  <g
     id="layer1">
    <path
       d="M 1116.5262,709.47855 C 1115.6766,709.47855 1112.0313,711.42683 1108.4297,713.79821 C 1095.018,722.62747 1082.2864,726.88849 1069.2133,726.91571 C 1060.6629,726.93358 1058.0763,727.71526 1036.6678,719.56549 C 1020.261,713.31976 1011.4025,711.31912 993.69735,711.37833 C 966.07043,711.47066 943.90833,715.8919 928.76585,724.36008 C 922.40386,727.91791 914.12548,735.89688 911.30609,741.18669 C 903.96616,754.95768 905.98069,771.51345 916.2138,781.44368 C 919.83713,784.95978 926.68912,788.89616 932.06782,790.55802 C 940.00396,793.01022 954.42718,792.14943 957.5338,789.04272 C 960.31201,786.26452 960.20237,778.50742 957.35285,776.19666 C 952.22545,772.03857 950.83696,770.47837 949.09796,766.92399 C 946.76468,762.15501 946.51791,757.11691 948.35158,751.68058 C 952.11913,740.51078 965.17223,732.95931 984.92219,730.51171 C 990.87394,729.77416 1004.2411,730.5985 1005.3899,731.77823 C 1005.6528,732.04824 1005.5731,734.06702 1005.209,736.25628 C 1004.1294,742.748 1000.3849,773.49465 999.41922,783.84099 L 998.51457,793.4303 L 997.51949,804.28615 L 997.04453,814.10162 C 995.78602,839.17864 989.76699,857.90447 979.78825,867.88321 C 974.4037,873.26781 970.18479,875.41894 964.27348,875.79892 C 956.59876,876.29229 952.37545,874.19889 939.59906,863.51829 C 930.9155,856.2591 928.95648,855.66014 924.96632,859.01763 C 920.54514,862.7378 919.32342,867.72414 922.2297,870.16747 C 930.14498,876.82178 947.60833,889.98815 950.88462,891.76606 C 950.88462,891.76606 953.45226,893.37723 954.97814,893.98245 C 962.43071,896.93837 974.61526,897.00363 982.47964,893.98245 C 985.3509,892.8794 987.34213,891.5399 987.34213,891.5399 C 994.13431,888.14067 998.25908,884.95769 1005.1412,877.78917 C 1019.5289,862.8026 1029.4947,842.08187 1035.0856,815.57169 L 1037.4828,804.28615 L 1039.6086,793.06851 L 1042.3223,777.50841 C 1043.8178,768.95042 1045.7412,758.09371 1046.598,753.37683 L 1048.1572,744.80522 L 1050.4187,745.25759 C 1068.0838,748.84712 1083.6179,746.48466 1100.8078,737.59068 C 1112.7046,731.43524 1125.4158,720.6645 1125.4158,716.73837 C 1125.4158,713.30736 1120.7152,709.47855 1116.5262,709.47855 z M 1041.4634,884.98113 C 1033.1067,885.14178 1025.1029,886.99367 1020.4071,895.33942 C 1018.694,898.85631 1016.0196,905.24537 1016.0196,905.24537 L 1012.4462,914.29188 C 1002.9327,938.37734 987.71653,965.47482 971.1262,987.93064 L 966.19589,994.62502 L 957.60166,1005.4808 L 950.86197,1013.2386 C 933.55433,1033.1503 918.52454,1047.0745 909.38366,1051.6411 C 898.89264,1056.8819 893.69407,1056.7853 881.65605,1051.1433 C 874.96639,1048.0085 873.02286,1047.3994 871.02644,1047.7733 C 866.69794,1048.5859 861.92362,1055.8874 862.97501,1060.0764 C 863.29566,1061.3541 866.03626,1063.1412 874.46406,1067.6078 C 880.54501,1070.8312 886.80869,1073.7908 888.39572,1074.1892 C 892.71159,1075.2718 902.88455,1074.5401 908.65993,1072.7416 C 922.20542,1068.5238 938.6922,1057.4909 958.348,1039.4737 C 961.80168,1036.3073 964.88165,1033.7062 965.17812,1033.7062 C 965.47456,1033.7062 967.14003,1035.207 968.88721,1037.0306 C 975.02371,1043.4355 984.66423,1046.4785 996.59228,1045.7832 C 1005.4282,1045.2686 1011.6632,1043.6186 1013.7354,1041.2826 C 1017.0003,1037.6011 1016.6852,1030.2402 1013.2153,1029.2731 C 1012.2305,1028.999 1009.1258,1028.7473 1006.3171,1028.7079 C 998.34141,1028.5946 993.00594,1026.4508 987.31954,1021.063 C 981.88686,1015.9163 981.80469,1016.6062 988.54077,1009.4839 L 992.34037,1005.4581 C 1000.4486,996.26918 996.01396,1001.2774 1002.495,994.05963 C 1002.6277,993.75276 1006.0006,989.5132 1009.9811,984.62865 L 1017.2184,975.74041 L 1018.055,982.842 C 1018.5148,986.73968 1018.922,990.9793 1018.9598,992.27296 L 1020.7917,1005.8429 L 1021.7189,1011.6327 C 1023.391,1022.0491 1027.0335,1040.4276 1028.8881,1047.7957 C 1034.0177,1068.1715 1039.5581,1074.9577 1051.0748,1074.9577 C 1056.8829,1074.9577 1061.311,1073.406 1074.46,1066.7711 C 1079.5974,1064.1784 1084.506,1061.8478 1085.3835,1061.5915 C 1088.0413,1060.8157 1090.6655,1057.0961 1090.654,1054.1055 C 1090.6406,1050.6361 1089.2194,1047.8714 1087.2836,1047.5928 C 1086.433,1047.47 1082.5157,1048.8341 1078.5992,1050.6226 C 1068.8794,1055.0628 1065.5734,1055.8346 1062.2484,1054.4457 C 1057.5977,1052.5019 1057.015,1050.7301 1057.0457,1038.7952 C 1057.0608,1033.0076 1057.3306,1023.1491 1057.6564,1016.8799 L 1058.2445,1005.4808 L 1058.6957,994.62502 L 1059.1264,987.93064 C 1059.6117,980.64867 1061.3893,941.19305 1062.0661,922.61468 C 1062.2986,916.24595 1062.6712,909.65103 1062.8807,907.95935 L 1063.2426,904.88353 C 1063.2426,904.88353 1063.7562,896.87864 1061.591,892.62547 C 1060.9372,891.34058 1058.1045,888.70211 1055.4174,887.37847 C 1050.6696,885.04038 1050.2687,884.98113 1041.4634,884.98113 z M 948.46467,1105.4223 L 941.95115,1107.7973 C 914.552,1117.8082 899.97692,1134.1704 901.21919,1153.5273 C 902.33017,1170.8386 920.37576,1183.4183 940.09662,1180.6216 C 949.10308,1179.3441 950.95563,1177.6503 950.97508,1170.6252 C 950.98528,1166.9427 950.80281,1166.5867 947.03984,1162.6417 C 942.52785,1157.9112 941.58928,1155.8659 941.58928,1150.994 C 941.58928,1143.8174 945.7317,1136.7694 953.3724,1130.979 C 957.81883,1127.6093 968.15393,1122.2847 968.86459,1122.9952 C 969.06776,1123.1984 968.39091,1129.1582 967.3719,1136.2488 C 964.02339,1159.5477 962.58919,1174.8896 962.57724,1187.3162 L 962.57724,1195.096 L 962.01183,1205.9513 L 961.5369,1210.8373 C 959.99947,1226.387 955.93949,1241.8159 950.74891,1251.9082 C 944.17355,1264.6925 933.34239,1271.19 922.38803,1268.9161 C 918.47933,1268.1044 915.74793,1266.4668 902.05598,1256.7938 C 900.22495,1255.5002 897.9389,1254.4415 896.98996,1254.4416 C 894.8694,1254.4416 889.96845,1258.7552 888.75761,1261.6783 C 887.2077,1265.4207 888.27278,1267.0405 896.42451,1273.416 C 908.89922,1283.1729 912.50862,1285.6751 916.84709,1287.5066 C 920.54763,1289.0681 921.80343,1289.2171 929.30866,1288.999 C 937.60439,1288.7584 937.7048,1288.7196 944.80082,1285.2674 C 950.88546,1282.3077 953.0023,1280.7701 959.13954,1274.8187 C 967.6488,1266.5669 973.62438,1257.9932 979.87874,1245.0331 C 984.73631,1234.9671 988.35976,1224.525 990.87031,1213.3705 L 992.52127,1205.9513 L 994.66978,1195.096 L 998.42407,1175.0132 C 1000.4891,1163.9672 1003.3923,1147.9274 1004.8698,1139.3692 C 1006.3472,1130.8109 1007.6967,1123.0594 1007.8777,1122.1353 C 1008.0586,1121.2131 1008.2544,1120.7973 1008.8728,1120.7334 C 1009.2439,1120.6955 1009.7798,1120.7941 1010.5464,1120.9592 C 1016.247,1122.1913 1025.2008,1126.0289 1029.1596,1128.9432 C 1036.8504,1134.605 1040.0151,1140.8388 1040.0151,1150.3834 C 1040.0151,1165.419 1028.7659,1178.9842 1014.3912,1181.3229 C 1012.1921,1181.6803 1010.2458,1181.7484 1008.986,1182.7472 C 1005.8546,1185.2303 1006.0276,1187.1621 1006.8736,1190.2244 C 1008.3049,1192.7314 1009.8582,1193.3232 1013.4278,1194.807 C 1020.461,1197.4846 1032.9926,1199.8726 1041.3041,1205.9513 L 1043.6565,1208.6212 C 1050.463,1216.3723 1050.9242,1227.4427 1044.9007,1238.7458 C 1037.4254,1252.7712 1019.6006,1262.7567 1006.7243,1260.141 C 1001.6209,1259.1039 999.21351,1257.8565 994.87339,1253.9664 C 992.1646,1251.5387 990.79885,1250.8227 988.88002,1250.8227 C 983.52633,1250.8227 978.49913,1255.4601 978.49912,1260.3891 C 978.49912,1263.1026 978.94643,1263.7641 984.46983,1269.2321 C 991.04919,1275.7466 996.8658,1279.2028 1006.0006,1282.0558 C 1010.7629,1283.5429 1012.8483,1283.7518 1023.0081,1283.7293 C 1036.6294,1283.6993 1041.6149,1282.5825 1053.4941,1276.9225 C 1065.7983,1271.0595 1073.7491,1264.9179 1081.2898,1255.4358 C 1085.8606,1249.6904 1091.4404,1238.8118 1092.9381,1232.7296 C 1094.4521,1226.5793 1094.0963,1214.3888 1092.2817,1209.7516 C 1092.2817,1209.7516 1092.8295,1210.0592 1090.8122,1205.9513 C 1089.0831,1202.4323 1086.4984,1199.1487 1081.3122,1195.096 L 1077.9662,1192.9707 C 1073.5065,1190.1425 1066.8843,1187.5425 1060.0763,1185.9592 C 1054.6667,1184.7002 1053.4977,1184.0406 1055.3947,1183.3125 C 1055.8938,1183.122 1058.1915,1181.4222 1060.507,1179.5362 C 1069.0978,1172.5365 1076.9052,1160.8257 1079.3903,1151.1976 C 1080.8371,1145.5945 1080.8687,1134.9804 1079.4581,1130.2319 C 1074.2891,1116.2221 1057.9721,1108.0787 1047.6144,1105.3998 C 1029.1493,1100.6235 1018.9915,1099.1243 996.95404,1099.1307 C 974.9167,1099.1372 963.62725,1100.4428 948.46467,1105.4223 z "
       style="fill:black"
       id="path1900" />
  </g>
</svg>
