<?xml version="1.0" encoding="UTF-8" standalone="no"?>
<!-- Created with Inkscape (http://www.inkscape.org/) -->
<svg
   xmlns:svg="http://www.w3.org/2000/svg"
   xmlns="http://www.w3.org/2000/svg"
   version="1.0"
   width="2000"
   height="2000"
   id="svg2">
  <defs
     id="defs4" />
  <g
     id="layer1">
    <path
       d="M 951.84375,899.59375 C 940.24331,899.5554 929.00299,900.70125 920.875,903.0625 C 891.55837,911.57937 869.49609,930.44107 859.3125,955.625 C 847.50857,984.81588 857.6832,1023.4659 880.125,1034.7188 C 886.1214,1037.7256 899.22535,1038.7258 906.28125,1036.6875 C 916.69539,1033.6791 926.49362,1025.0076 931.03125,1014.7813 C 934.33628,1007.3327 935.79227,995.83339 934.4375,988.125 C 932.37928,976.41398 923.17697,964.91292 913.0625,961.46875 C 904.16587,958.43926 890.51766,962.0933 882.03125,969.78125 C 877.17877,974.17712 872.10106,973.05033 872.65625,964.125 C 873.3531,952.9215 879.32023,942.70201 890.625,932.25 C 897.8205,925.59727 902.57594,923.47686 910.15625,919.9375 C 923.27395,913.81266 931.84905,911.4884 945.125,912.1875 C 976.90921,913.86124 1000.5835,936.49535 1009.0938,973.34375 C 1011.9959,985.90968 1011.7219,1017.5807 1008.5938,1033.1563 C 998.12449,1085.283 969.37694,1136.0805 927.21875,1176.9063 C 919.99671,1183.9001 910.68337,1191.9423 906.53125,1194.7813 C 897.03852,1201.2719 877.94258,1210.7543 865.21875,1215.3125 C 859.40072,1217.3968 855.46872,1219.36 855.46875,1220.1875 C 855.46875,1222.6034 857.51919,1225.6535 859.78125,1226.5938 C 865.90391,1229.139 882.3231,1226.7977 896.375,1221.375 C 943.59456,1203.1528 990.01936,1168.8888 1015.8438,1133.2188 C 1033.0314,1109.478 1045.3135,1087.3865 1051.1875,1066.875 C 1055.4619,1051.9489 1060.895,1037.5838 1060.9375,1016.6563 C 1060.9855,993.06366 1059.5465,982.88274 1053.8438,966.59375 C 1049.5171,954.2355 1046.5327,948.38052 1039.7813,939.0625 C 1027.4726,922.07416 1007.3345,908.93853 984.96875,903.28125 C 975.40215,900.86149 963.44419,899.6321 951.84375,899.59375 z M 1113.1563,930.625 C 1094.706,930.66401 1087.1635,956.03738 1103.375,966.78125 C 1107.494,969.51101 1108.656,969.82015 1114.4688,969.5 C 1124.9747,968.92128 1131.5786,962.43795 1132.3125,951.96875 C 1133.1274,940.34542 1126.0184,931.66419 1114.9688,930.71875 C 1114.3513,930.66592 1113.7514,930.62374 1113.1563,930.625 z M 1113.1563,1029.6875 C 1094.706,1029.7266 1087.1635,1055.0999 1103.375,1065.8438 C 1107.494,1068.5736 1108.656,1068.8513 1114.4688,1068.5313 C 1124.9747,1067.9526 1131.5786,1061.5004 1132.3125,1051.0313 C 1133.1274,1039.4079 1126.0184,1030.6954 1114.9688,1029.75 C 1114.3513,1029.6972 1113.7514,1029.6862 1113.1563,1029.6875 z M 851.09375,1248.625 C 845.12043,1248.7651 839.02637,1250.3971 833.4375,1253.6875 C 815.04273,1265.1657 815.6743,1279.4839 825.15625,1296.625 C 824.89908,1296.8541 821.58377,1298.6069 817.78125,1300.5313 C 809.99506,1304.4718 802.137,1311.5803 800.34375,1316.4375 C 798.0121,1322.7528 798.1245,1329.4737 801.0625,1334.4375 C 805.12363,1341.2988 813.01941,1347.4796 823.59375,1349.875 C 832.69667,1351.9372 845.57908,1351.748 854.625,1348.3125 C 871.90652,1341.7494 880.95227,1327.5572 872.65625,1314.0938 C 869.95621,1309.7119 867.2585,1306.8701 863.25,1301.375 C 869.98087,1297.3447 878.36903,1290.9541 880.875,1286.2813 C 883.38105,1281.6084 884.42217,1273.1981 882.15625,1267.875 C 876.79354,1255.2771 864.23505,1248.3168 851.09375,1248.625 z M 852.625,1255.875 C 861.03853,1255.875 872.68581,1263.5872 872.375,1273.0313 C 872.06416,1282.4754 867.13783,1292.1699 858.375,1296.7188 C 853.85734,1293.7559 846.68231,1287.0013 841.75,1280.2188 C 837.63007,1274.5532 836.636,1267.6032 839.25,1262.7188 C 841.10188,1259.2586 847.69834,1255.875 852.625,1255.875 z M 830,1302.25 C 844.38463,1317.1526 862.40466,1327.2847 846.875,1339.3438 C 841.91748,1343.0293 831.61791,1342.593 826.875,1339.6875 C 812.55559,1330.9155 804.13745,1319.5843 830,1302.25 z "
       style="fill:black"
       id="path2086" />
  </g>
</svg>
