<?xml version="1.0" encoding="UTF-8" standalone="no"?>
<!-- Created with Inkscape (http://www.inkscape.org/) -->
<svg
   xmlns:svg="http://www.w3.org/2000/svg"
   xmlns="http://www.w3.org/2000/svg"
   version="1.0"
   width="2000"
   height="2000"
   id="svg2">
  <defs
     id="defs4" />
  <g
     id="layer1">
    <path
       d="M 978.51761,1095.6454 C 979.15992,1089.3839 980.25981,1087.8092 983.52649,1087.1479 C 989.65867,1085.8792 1001.3955,1085.564 1003.1814,1078.3283 C 1003.5755,1075.0809 1003.4648,1065.9396 1003.4648,1065.9396 L 1003.7482,1053.5508 L 960.12602,1053.5508 L 916.50382,1053.5508 L 916.50382,1044.7633 L 916.50382,1035.9758 L 921.3548,1029.2111 C 937.90589,1006.1306 955.82368,966.5474 964.21562,934.52478 C 967.29354,922.77982 970.10648,908.74786 970.10648,904.36807 C 970.10648,904.36807 969.89291,900.3329 970.57386,900.05211 C 971.38982,899.71567 987.78272,900.95381 1006.2381,900.98688 C 1026.5387,901.02325 1042.9938,899.64093 1043.4602,900.17406 C 1044.0408,901.1401 1043.4597,902.2231 1042.507,905.14967 C 1038.4247,917.68937 1029.956,932.14927 1018.4407,946.24162 C 1015.716,949.57619 1005.3316,960.87533 995.36414,971.35084 C 976.47783,991.2 965.79002,1003.5262 957.85372,1014.6112 C 952.95198,1021.4577 947.79695,1030.256 946.82343,1033.4366 L 946.25224,1035.3029 L 974.92414,1035.3029 L 1003.5961,1035.3029 L 1003.5961,1010.9995 L 1003.5961,986.69608 C 1003.5961,986.69608 1017.9057,977.18686 1031.2806,965.34071 C 1044.6555,953.49457 1057.0955,939.31151 1057.0955,939.31151 L 1057.3097,987.28673 L 1057.5237,1035.2619 L 1070.9956,1035.4898 L 1084.4674,1035.7176 L 1084.7029,1044.6342 L 1084.9383,1053.5508 L 1071.2244,1053.5508 L 1057.5103,1053.5508 L 1057.3652,1062.0526 C 1057.1022,1077.4526 1057.7043,1080.6015 1061.3717,1083.0044 C 1063.5635,1084.4404 1073.4552,1085.9998 1077.863,1086.7288 C 1080.6889,1087.1962 1082.1494,1089.1622 1082.8609,1096.216 L 1083.4117,1100 L 1030.6474,1100 L 977.88312,1100 L 978.51761,1095.6454 z "
       style="fill:black"
       id="path1933" />
  </g>
</svg>
