<?xml version="1.0" encoding="UTF-8" standalone="no"?>
<!-- Created with Inkscape (http://www.inkscape.org/) -->
<svg
   xmlns:svg="http://www.w3.org/2000/svg"
   xmlns="http://www.w3.org/2000/svg"
   version="1.0"
   width="2000"
   height="2000"
   id="svg2278">
  <defs
     id="defs2280" />
  <g
     id="layer1">
    <path
       d="M 983.51756,1030.263 C 990.87562,1019.8765 999.0777,1013.7712 1013.0939,996.42722 C 1029.7871,975.77059 1044.6739,943.03667 1044.6739,943.03667 C 1020.8963,951.53915 1005.502,937.7179 991.77192,937.74337 C 974.94452,937.89813 959.65694,947.42371 945.78705,943.16899 C 935.73683,939.31857 937.41491,955.0907 934.65264,961.96956 C 932.45438,967.66175 927.66706,974.50148 925.45741,974.02196 C 921.78248,973.22447 921.53125,968.02253 921.07851,963.86523 C 920.65147,959.94403 919.83664,958.70474 920.42986,930.18435 C 920.76989,913.83643 921.14093,900.46087 921.2544,900.46087 C 934.49342,906.09677 940.18385,908.61371 949.75362,908.39517 C 959.3285,908.1765 977.24295,899.61291 995.38967,900.21709 C 1013.5264,900.82093 1023.817,906.87676 1037.0197,907.39414 C 1049.6229,907.88803 1066.0762,900.72916 1079.5453,900 C 1083.776,919.92741 1059.1416,974.49848 1051.2997,992.48973 C 1034.7001,1026.7258 1023.7111,1059.0086 1018.2543,1100.0668 C 1004.4259,1099.9468 991.18368,1100.0668 991.18368,1100.0668 L 952.60054,1099.9865 C 955.04118,1073.3583 968.41538,1051.5808 983.51756,1030.263 z "
       style="fill:black"
       id="path2335" />
  </g>
</svg>
