<?xml version="1.0" encoding="UTF-8" standalone="no"?>
<!-- Created with Inkscape (http://www.inkscape.org/) -->
<svg
   xmlns:svg="http://www.w3.org/2000/svg"
   xmlns="http://www.w3.org/2000/svg"
   version="1.0"
   width="2000"
   height="2000"
   id="svg2">
  <defs
     id="defs4" />
  <g
     id="layer1">
    <path
       d="M 983.1233,1049.0564 C 962.1476,1046.1413 944.7376,1039.0168 933.4416,1028.7258 C 926.4047,1022.3151 923.7285,1018.1818 921.6675,1010.5418 C 920.2119,1005.1461 920.1533,995.79927 921.5411,990.3895 C 923.2161,983.86042 925.4991,979.92267 930.8805,974.2807 C 942.6029,961.99086 956.4584,955.76167 981.5659,951.49333 C 999.0812,948.51569 1019.114,950.08613 1037.3736,955.86824 C 1050.1598,959.91713 1060.5778,965.96694 1069.21,974.35582 C 1080.7961,985.61545 1082.8644,1005.7339 1073.8702,1019.6876 C 1071.3638,1023.5762 1066.1096,1029.1257 1061.7732,1032.4644 C 1052.1563,1039.869 1037.2549,1045.6796 1020.4816,1048.5656 C 1010.7817,1050.2345 993.2571,1050.4648 983.1233,1049.0564 z M 1013.3365,1040.4019 C 1020.8161,1038.0086 1025.0335,1034.3957 1028.0472,1027.8 C 1033.006,1016.9468 1032.7546,1002.1647 1027.3639,987.63083 C 1022.5392,974.62233 1012.3877,963.4958 1001.74,959.54543 C 996.294,957.52495 992.802,957.28906 987.7956,958.60341 C 973.0656,962.47045 965.4601,978.37605 968.5417,998.86912 C 970.4463,1011.5348 975.8558,1022.5683 984.3951,1031.204 C 993.5359,1040.4481 1003.3973,1043.5822 1013.3365,1040.4019 z "
       style="fill:black"
       id="path2833" />
  </g>
</svg>
