<?xml version="1.0" encoding="UTF-8" standalone="no"?>
<!-- Created with Inkscape (http://www.inkscape.org/) -->
<svg
   xmlns:svg="http://www.w3.org/2000/svg"
   xmlns="http://www.w3.org/2000/svg"
   version="1.0"
   width="2000"
   height="2000"
   id="svg2">
  <defs
     id="defs4" />
  <g
     id="layer1">
    <path
       d="M 970.70637,1049.6874 C 951.82858,1048.4676 938.12842,1039.3884 934.42921,1025.6461 C 931.20425,1013.6659 933.48175,1000.9959 940.72844,990.60197 C 955.08457,970.0111 983.70365,954.46884 1014.4015,950.59213 C 1019.9007,949.89767 1031.3409,950.07996 1035.9813,950.93596 C 1045.4646,952.68532 1054.1899,957.08252 1059.3105,962.69301 C 1063.632,967.42791 1066.1508,973.83355 1066.8328,981.82281 C 1068.0735,996.35544 1062.5362,1008.4689 1048.8032,1021.2651 C 1037.7583,1031.5566 1021.0814,1040.6641 1004.6745,1045.3647 C 992.59366,1048.8257 980.73261,1050.3352 970.70637,1049.6874 z M 975.70187,1030.5389 C 997.18953,1026.73 1024.7942,1012.123 1039.6523,996.69954 C 1047.5947,988.45482 1050.2817,982.73241 1048.7686,977.28311 C 1047.945,974.31645 1045.2148,971.39494 1041.8787,969.91056 C 1036.8562,967.67586 1027.1222,967.8189 1017.5122,970.26872 C 1001.9913,974.22524 981.16147,985.10039 966.54337,996.87929 C 961.00585,1001.3413 955.80361,1007.2019 953.03972,1012.0915 C 948.18258,1020.6848 951.8123,1028.8841 961.38138,1030.9346 C 963.92518,1031.4797 971.58898,1031.2679 975.70187,1030.5389 z "
       style="fill:black"
       id="path3816" />
  </g>
</svg>
