<?xml version="1.0" encoding="UTF-8" standalone="no"?>
<!-- Created with Inkscape (http://www.inkscape.org/) -->
<svg
   xmlns:svg="http://www.w3.org/2000/svg"
   xmlns="http://www.w3.org/2000/svg"
   version="1.0"
   width="2000"
   height="2000"
   id="svg2">
  <defs
     id="defs4" />
  <g
     id="layer1">
    <path
       d="M 946.42831,1104.0493 C 931.27473,1103.7778 915.12402,1096.003 913.74613,1080.8933 C 911.82831,1059.8626 921.64143,1039.1705 927.95511,1020.1433 C 896.1808,1026.7832 870.29153,1019.2525 869.58116,986.18184 C 869.17701,967.18307 886.10835,948.42938 904.87097,948.55541 C 919.55353,948.65404 934.71992,953.99795 947.02877,961.63375 C 955.40076,939.01969 962.38466,917.22967 969.59102,894.85915 L 1010.2983,894.59101 C 1000.3892,924.93828 990.07879,955.15386 980.18079,985.50474 C 1003.5232,968.29365 1028.9958,951.40081 1059.1528,948.90359 C 1074.5958,947.62481 1082.1102,960.51621 1075.1584,972.78486 C 1072.0855,984.83777 1082.5851,966.87875 1086.1149,963.52466 C 1097.2198,952.97243 1115.0106,943.65383 1129.3212,951.98188 C 1142.8825,959.87397 1146.8241,982.81864 1133.8291,993.35454 C 1123.7547,1001.5226 1105.0926,992.90119 1108.8118,979.56025 C 1111.6208,969.48478 1113.4742,953.73749 1099.2832,965.0429 C 1078.4012,981.67855 1068.7976,1007.639 1061.3532,1032.2762 C 1055.1047,1052.9553 1048.3128,1073.4811 1042.493,1094.285 L 1005.0661,1094.7775 C 1016.656,1053.2805 1033.5666,1012.4308 1041.0483,970.6176 C 1043.0476,959.44407 1020.6525,973.05384 1014.1382,976.6147 C 1002.6642,982.88664 991.67959,990.19288 981.10409,997.95059 C 994.72669,1018.1978 1007.5582,1043.3614 999.84999,1068.0405 C 992.42129,1091.8248 972.5147,1104.5165 946.42831,1104.0493 z M 968.41086,1087.8333 C 989.43369,1079.0904 994.75839,1049.6053 984.49749,1029.1372 C 980.93439,1022.0295 976.6551,1015.3739 972.38538,1008.7066 C 964.39709,1033.054 954.55172,1057.1699 948.81696,1081.8919 C 946.50274,1091.8683 960.09286,1091.2925 968.41086,1087.8333 z M 932.15942,1007.2853 C 934.77047,998.28549 940.55037,983.8641 942.77047,974.75783 C 930.93492,964.24152 912.64783,957.61062 897.11382,961.72023 C 882.2323,965.6572 875.35603,985.88116 883.10567,998.74669 C 895.12809,1015.2459 915.16084,1013.9583 932.15942,1007.2853 z "
       style="fill:black"
       id="path2192" />
  </g>
</svg>
