<?xml version="1.0" encoding="UTF-8" standalone="no"?>
<!-- Created with Inkscape (http://www.inkscape.org/) -->
<svg
   xmlns:svg="http://www.w3.org/2000/svg"
   xmlns="http://www.w3.org/2000/svg"
   version="1.0"
   width="2000"
   height="2000"
   id="svg2">
  <defs
     id="defs4" />
  <g
     id="layer1">
    <path
       d="M 1051.7437,946.11393 C 1011.9487,952.57773 984.21155,996.21523 947.8289,1017.9563 C 926.08144,1028.0302 904.43334,1018.0538 902.38087,1000.8786 C 901.28243,991.68673 903.53488,984.52223 910.44057,979.41333 C 922.10204,970.78603 926.73681,990.04283 938.76551,988.80153 C 950.63589,987.57653 960.52856,981.10513 961.19043,968.70723 C 961.92792,954.89283 948.32174,945.10053 935.60196,945.23893 C 926.42747,945.33873 918.16457,947.68036 910.60272,953.16933 C 892.54075,966.2801 887.26831,983.75293 887.67452,1002.8354 C 888.05603,1020.7576 898.12689,1037.33 912.60532,1047.0234 C 925.82867,1055.8765 943.04319,1057.7111 958.07908,1054.2226 C 1003.3794,1041.8867 1021.8164,992.57593 1066.313,979.53733 C 1095.545,970.97173 1112.2628,1002.7682 1090.7226,1022.0591 C 1081.9546,1029.9114 1078.6826,1015.8055 1071.1152,1013.523 C 1060.7439,1010.3946 1047.5791,1013.1535 1042.2085,1023.4783 C 1037.6024,1032.3335 1040.3744,1043.4463 1048.4198,1049.5357 C 1057.7495,1056.5973 1070.2803,1057.1587 1080.6966,1054.168 C 1103.011,1047.7614 1115.9107,1022.7177 1115.0274,999.90213 C 1113.5525,961.80243 1083.0604,941.02713 1051.7437,946.11393 z "
       style="fill:black"
       id="path1933" />
  </g>
</svg>
