<?xml version="1.0" encoding="UTF-8" standalone="no"?>
<!-- Created with Inkscape (http://www.inkscape.org/) -->
<svg
   xmlns:svg="http://www.w3.org/2000/svg"
   xmlns="http://www.w3.org/2000/svg"
   version="1.0"
   width="2000"
   height="2000"
   id="svg2">
  <defs
     id="defs4" />
  <g
     id="layer1">
    <path
       d="M 873.26391,1104.5281 C 867.11967,1097.1763 877.07367,1082.1041 888.24392,1075.7615 C 901.97324,1067.9659 918.9385,1057.9578 928.10982,1045.2298 C 935.02924,1035.6269 926.14026,1021.4688 918.08478,1010.1621 C 909.22728,997.72972 892.49199,986.05497 894.16247,970.20499 C 896.69759,946.15097 908.70876,923.9191 918.5228,901.69181 C 886.7957,904.57654 858.53061,924.33246 846.46326,955.3857 C 841.39178,968.43628 846.05277,985.22086 861.64894,983.23892 C 876.86083,981.30582 876.27485,953.70597 882.72002,955.92971 C 891.00283,958.78747 880.49487,988.68857 870.4917,999.49133 C 858.77943,1012.1398 841.78095,1015.8528 831.09569,1003.19 C 816.77251,986.21596 822.41109,960.85749 833.06325,943.66829 C 857.02839,904.99617 907.04942,886.46542 950.72818,895.77041 C 979.59662,901.92031 1004.4142,929.39667 1002.0626,960.31186 C 1000.92,975.33306 987.43228,987.94016 970.22469,981.16046 C 956.00987,975.5599 937.49798,949.28967 943.50631,943.55463 C 947.20024,940.02873 969.10425,969.91863 978.65283,952.82739 C 992.53698,927.97582 952.01749,901.03566 927.49965,902.18794 C 920.55417,917.03551 911.95507,937.18662 908.80966,950.59751 C 905.61417,964.22189 937.61103,997.16245 949.23556,1014.0545 C 957.91769,1026.6708 945.22413,1041.608 930.47924,1059.8356 C 947.33406,1064.1875 965.03773,1082.2744 969.49215,1081.7973 C 975.58181,1081.1452 983.02042,1072.2527 996.09022,1063.7558 C 988.88944,1025.1763 991.58918,998.56722 1028.6421,987.17683 C 1049.4246,980.7881 1066.0557,1002.3612 1053.945,1020.1763 C 1044.4344,1034.1665 1032.4079,1045.9916 1019.8353,1057.0496 C 1026.2152,1067.7111 1030.5095,1085.3763 1041.5704,1087.5517 C 1048.5781,1088.9299 1068.4351,1074.8917 1074.4659,1064.0135 C 1067.0169,1028.5435 1086.717,1007.8644 1110.4153,986.19539 C 1065.943,935.10606 1022.2646,930.67633 1025.9814,923.63608 C 1027.5115,920.73791 1039.4123,924.4807 1045.5907,926.87417 C 1072.5306,937.3105 1119.9442,959.26047 1146.9728,990.94882 C 1166.2678,1013.5702 1176.3107,1046.8771 1164.0999,1075.7536 C 1155.5146,1096.0566 1134.1996,1115.2525 1110.7485,1108.4893 C 1094.5588,1103.8204 1082.7449,1090.1 1076.532,1075.8875 C 1063.7512,1087.305 1051.6015,1100.3526 1036.2995,1108.1368 C 1020.3706,1116.2399 1005.4743,1087.5055 1001.7623,1073.7957 C 960.27836,1104.5225 955.82042,1122.2557 942.83034,1098.8122 C 938.72526,1090.2295 939.7356,1081.7818 922.52979,1068.6038 C 907.54475,1089.3941 880.37807,1113.0403 873.26391,1104.5281 z M 1119.2112,995.44572 C 1077.9032,1029.4791 1090.7628,1095.8672 1121.3138,1095.4939 C 1147.1204,1095.1866 1149.5464,1029.4855 1119.2112,995.44572 z M 1015.4349,1048.3732 C 1025.2112,1039.0842 1049.2258,1021.3844 1042.3268,1007.378 C 1033.9078,990.28573 1009.089,1004.5264 1010.1241,1021.4924 C 1010.6476,1030.0719 1011.1237,1031.4502 1015.4349,1048.3732 z M 1179.3187,1109.4927 C 1162.4429,1104.8398 1168.9547,1076.1102 1186.7573,1080.4076 C 1207.499,1085.4144 1198.5966,1114.808 1179.3187,1109.4927 z "
       style="fill:black"
       id="path1933" />
  </g>
</svg>
