<?xml version="1.0" encoding="UTF-8" standalone="no"?>
<!-- Created with Inkscape (http://www.inkscape.org/) -->
<svg
   xmlns:svg="http://www.w3.org/2000/svg"
   xmlns="http://www.w3.org/2000/svg"
   version="1.0"
   width="2000"
   height="2000"
   id="svg2">
  <defs
     id="defs4" />
  <g
     id="layer1">
    <path
       d="M 978.32973,922.97132 C 962.15913,922.97132 949.04843,936.08206 949.04843,952.25257 C 949.04843,968.42309 962.15923,981.56509 978.32973,981.56509 C 987.04016,981.43919 995.54516,980.50239 1004.1423,978.87759 C 1016.7834,976.37809 1033.2136,964.15009 1027.1423,977.90879 C 1026.3458,979.71389 1018.045,1007.1513 1006.9235,1038.5026 C 987.16336,1094.2051 986.91896,1095.5095 996.70476,1095.5026 C 1001.9595,1095.499 1006.6621,1097.2284 1009.3973,1089.2402 C 1014.8802,1073.2275 1025.7574,1032.1177 1043.1423,971.81509 C 1054.1933,933.4823 1051.4871,924.17434 1035.5798,945.69007 C 1023.0498,962.63779 1011.816,963.51779 1007.361,948.34632 C 1006.8789,944.75782 1005.7402,941.37051 1004.0798,938.31507 C 1004.0399,938.24178 1003.9952,938.16924 1003.9548,938.09632 C 1003.7759,937.74784 1003.5825,937.40246 1003.3923,937.06507 C 998.73876,928.81421 990.73716,923.89993 982.36093,923.25257 C 981.04523,923.07155 979.69483,922.97132 978.32973,922.97132 z "
       style="fill:#000000"
       id="path2167" />
  </g>
</svg>
