<?xml version="1.0" encoding="UTF-8" standalone="no"?>
<!-- Created with Inkscape (http://www.inkscape.org/) -->
<svg
   xmlns:svg="http://www.w3.org/2000/svg"
   xmlns="http://www.w3.org/2000/svg"
   version="1.0"
   width="2000"
   height="2000"
   id="svg1953">
  <defs
     id="defs1955" />
  <g
     id="layer1">
    <path
       d="M 1006.9629,1168.7208 C 972.86928,1161.6017 949.53855,1136.818 948.72816,1115.2373 C 947.99183,1095.6295 966.86693,1078.6517 983.00973,1084.4017 C 991.90976,1087.8547 996.68609,1097.7619 996.33501,1106.9107 C 996.12581,1108.6166 994.74053,1113.7889 993.25658,1118.4048 C 989.72946,1129.3758 990.06344,1139.4622 993.11297,1143.4924 C 996.4733,1147.9335 1002.8046,1150.549 1013.2722,1151.8208 C 1034.9962,1154.4937 1050.5846,1145.3952 1053.909,1122.6818 C 1055.1394,1101.2433 1045.2237,1082.8426 995.15009,1037.2786 L 985.29083,1028.3074 L 983.3024,1029.9421 L 878.05414,1135.8264 C 873.3129,1131.296 867.7945,1127.4265 863.66598,1122.3118 C 903.36266,1085.0782 926.34182,1056.028 966.20854,1018.9764 L 970.43431,1015.0206 L 965.99723,1011.0224 C 938.27672,985.5497 913.96838,958.6222 906.44012,921.07077 C 904.42509,904.81594 905.1886,886.51443 913.53507,872.39678 C 926.3722,852.19611 945.96797,839.50582 968.61898,833.1492 C 992.5653,827.44319 1023.1129,834.96724 1042.0829,851.24374 C 1059.7249,865.95133 1062.5761,888.44873 1045.2716,904.78651 C 1033.4921,912.29649 1019.1935,909.11278 1010.5335,898.67776 C 1007.103,893.66086 1005.6662,887.79576 1005.3621,877.56832 C 1004.8459,860.20571 1004.1914,857.61981 999.38685,853.96271 C 993.64367,849.59115 978.01484,849.39392 968.07849,853.5676 C 954.36724,859.32687 949.11524,873.30596 954.65709,889.29091 C 957.95391,898.80024 963.47599,907.32035 973.90169,918.98375 C 979.82446,925.60963 1019.1853,968.23888 1020.475,967.94108 C 1060.5513,933.16257 1085.737,902.91301 1126.1251,868.49342 C 1127.0751,868.25649 1140.1921,880.42472 1140.5303,881.85688 C 1102.4947,918.86076 1075.668,947.23873 1037.0153,983.59873 C 1050.0609,1001.3529 1069.3444,1013.1453 1082.0283,1032.0975 C 1097.9159,1058.0625 1102.9234,1079.7648 1098.833,1104.933 C 1088.9,1148.4995 1051.5403,1177.2043 1006.9629,1168.7208 z M 888.93143,1027.8261 C 863.02843,1011.2981 877.90781,979.68471 907.48804,988.402 C 930.48179,1003.4034 913.49753,1035.0416 888.93143,1027.8261 z M 1094.7916,978.89112 C 1119.0373,951.13991 1154.0113,991.24916 1120.1807,1011.4419 C 1098.8661,1016.848 1085.927,998.59577 1094.7916,978.89112 z"
       id="path2037"
       style="fill:#000000" />
  </g>
</svg>
