<?xml version="1.0" encoding="UTF-8" standalone="no"?>
<!-- Created with Inkscape (http://www.inkscape.org/) -->
<svg
   xmlns:svg="http://www.w3.org/2000/svg"
   xmlns="http://www.w3.org/2000/svg"
   version="1.0"
   width="2000"
   height="2000"
   id="svg2">
  <defs
     id="defs4" />
  <g
     id="layer1">
    <path
       d="M 1060,800 L 900,1000 L 940,1000 L 1100,800 L 1060,800 z M 920,830 C 908.96,830 900,838.96001 900,850 C 900,861.03999 908.96,870 920,870 C 931.04,870 940,861.04 940,850 C 940,838.96001 931.04,830.00002 920,830 z M 1080,930 C 1068.96,930 1060,938.96001 1060,950 C 1060,961.03999 1068.96,970 1080,970 C 1091.04,970 1100,961.04 1100,950 C 1100,938.96001 1091.04,930.00002 1080,930 z "
       style="fill:black;fill-opacity:1;stroke:none;stroke-width:6;stroke-miterlimit:4"
       id="rect1898" />
  </g>
</svg>
