<?xml version="1.0" encoding="UTF-8" standalone="no"?>
<!-- Created with Inkscape (http://www.inkscape.org/) -->
<svg
   xmlns:svg="http://www.w3.org/2000/svg"
   xmlns="http://www.w3.org/2000/svg"
   version="1.0"
   width="2000"
   height="2000"
   id="svg2">
  <defs
     id="defs4" />
  <g
     id="layer1">
    <path
       d="M 961.58572,1088.8992 C 944.20699,1077.5273 930.85843,1063.1222 923.69347,1041.7068 C 920.63679,1032.5708 918.62614,1022.1834 918.22144,1013.4373 L 917.87332,1005.9138 L 917.87554,995.88251 L 918.21965,988.06399 C 918.61794,979.01456 920.56678,968.8447 923.69347,959.49938 C 930.70425,938.54495 943.11689,922.74956 960.24216,912.99032 C 974.58005,904.35875 986.67517,901.14156 1007.8255,900.01208 C 1034.9019,900.01208 1048.7606,910.32146 1048.7606,910.32146 L 1051.9982,912.48185 C 1059.5506,917.52156 1068.5798,928.20155 1073.3691,937.75999 C 1077.2593,945.52368 1080.314,956.53071 1080.314,962.78432 C 1080.314,970.58778 1076.9647,978.04859 1071.0137,983.50157 C 1066.3277,987.79547 1062.3576,989.4494 1055.8074,989.83628 C 1044.1834,990.52285 1034.2639,984.72543 1029.2146,974.29406 C 1027.144,970.01603 1026.9346,969.12512 1026.7225,963.67841 C 1026.595,960.40827 1026.7932,956.27523 1027.163,954.49386 C 1029.9192,941.21844 1041.4513,932.21189 1055.7866,932.1391 L 1058.7762,932.1239 L 1053.1704,926.64899 C 1046.1403,919.78285 1039.7954,916.18411 1031.1761,912.92539 C 1026.1037,911.00764 1021.5204,910.72581 1014.5145,910.44229 C 1009.2087,910.22758 1003.7609,910.38009 999.32957,911.4325 C 985.92369,914.6164 977.90559,922.48709 973.86556,936.42834 C 971.23448,945.50766 970.49536,953.21799 970.13183,975.37735 L 969.79546,995.88251 L 969.79098,1005.9138 L 970.15443,1026.4189 C 970.53258,1047.7535 971.20696,1055.1658 973.55005,1063.7411 C 975.61597,1071.3023 978.49617,1076.518 983.18728,1081.1938 C 990.43749,1088.42 997.97215,1091.0213 1011.865,1091.095 C 1018.9231,1091.1325 1021.2994,1090.91 1025.4368,1089.8248 C 1036.0718,1087.0353 1048.07,1079.4987 1054.9873,1071.2627 C 1062.4764,1062.346 1067.0932,1053.6401 1071.7096,1039.729 C 1074.3761,1031.693 1074.5673,1031.3277 1076.4263,1030.7142 C 1080.0083,1029.5319 1082.6743,1031.4254 1082.6743,1035.1519 C 1082.6743,1042.0047 1074.4418,1061.0108 1066.8596,1071.6622 C 1057.439,1082.4293 1054.9703,1084.5794 1046.5357,1089.9997 C 1037.9395,1095.9521 1026.3718,1100.0576 1002.8201,1099.8376 C 986.9921,1098.9968 972.64318,1095.5543 961.58572,1088.8992 z"
       id="path1933"
       style="fill:#000000" />
  </g>
</svg>
